<mxfile host="Electron" agent="Mozilla/5.0 (Windows NT 10.0; Win64; x64) AppleWebKit/537.36 (KHTML, like Gecko) draw.io/25.0.2 Chrome/128.0.6613.186 Electron/32.2.5 Safari/537.36" version="25.0.2">
  <diagram name="Page-1" id="tqq36ADUzC4dPqITqcui">
    <mxGraphModel dx="3354" dy="1916" grid="1" gridSize="10" guides="1" tooltips="1" connect="1" arrows="1" fold="1" page="1" pageScale="1" pageWidth="1700" pageHeight="1100" math="0" shadow="0">
      <root>
        <mxCell id="0" />
        <mxCell id="1" parent="0" />
        <mxCell id="826YfGAfoeWJMJrcTG79-1" value="" style="shape=image;verticalLabelPosition=bottom;labelBackgroundColor=default;verticalAlign=top;aspect=fixed;imageAspect=0;image=data:image/png,iVBORw0KGgoAAAANSUhEUgAAAmcAAAJnCAYAAADSsvQRAAAcnHpUWHRSYXcgcHJvZmlsZSB0eXBlIGV4aWYAAHjapZtplhy3coX/YxVeAuYAloPxHO/Ay/d3UUU+kZLeYLOlrmZ1ViYyhjsEku78z39f91/8qT14l4u12mv1/Mk99zj4ofnPn/G+B5/f9/enmo/fd3953/38ReStxGv6/KLVz2v48f73Az9ew+Cn8ocTtfX9xfz1Fz1/XmP77UTfCyWtSEvY3xP174lS/PwifE8wxvdWerM/3sI8n9fv5z9h4H+nb/b9sLfvy29/z0b0duE6KcaTQvJ8T+m7gKT/k0uDH/L7XjiQg/g5pPZ557sSAvJXcfr5p7Oiq6Xmvzzol6z8/Cn89fvu92zl+D0k/Rbk+vP1L993ofx1Vl7o/3Dl3L4/xV/fJ9n9s6Lfoq//793tvnvmLkauhLp+b+rHrbyfOG5yCV26OZZWyU6lhhqv+up8Nap6UQrbLy46+bmHSCZuyGGHEW4473WFxRJzPC4aP8S4YnpvtmSxx5WUv6yvcKOlnjZ5jGm9tOcUf64lvMt2v9y7WuPKO3BoDJws8JH/+Mv9px+4V60Qgm8/Y8W6YlSwWYYyp+8cRkbC/Qa1vAD/+Pr9j/KayGBRlNUincDOzylmCf9AgvQSnTiw8Pppm2D7ewJCxKULiwmJDJC1kEqowVuMFgKBbCRosPSYcpxkIJQSN4uMOaVKblrUpfmIhXdoLJG3He8DZmSipJqM3PQ0SFbOhfqx3KihUVLJpZRarLTSy6ip5lpqrVYFisOSZWfFqpk16zZaarmVVpu11nobPfYEaJZeu/XWex+Daw7OPPj04IAxZpxp5lncrNNmm32ORfmsvMqqy1ZbfY0dd9rgx67bdtt9jxMOpXTyKaceO+30My6ldpO7+ZZbr912+x0/s/ZN65++/oOshW/W4suUDrSfWeNdsx+nCIKTopyRsOhyIOOmFFDQUTnzLeQclTnlzHfgD8xjkUU520EZI4P5hFhu+JE7Fz8ZVeb+X3lzln/JW/y/Zs4pdf9h5v6ct7/K2hYNrZexTxcqqD7Rffz+tBHbENn96dX9fGPsPQuLSHet3TPnj4n1cFtEZ/dRIpHiLk5pcU6YPfTUSMAAq451l1hsyHZnKaP7PcA02ysf2/nGShwOwYzp9nwrgS2xVw69e4GoN8+2s63Dyd2dxmlL3dRNWLlO7pH8lVDaJNI2ZwJSrWX68Z7QhpqYfIaS/R2emHM75NmFmGf13BkFc6Nv6/hFjV7Ouknn5gYDi26rjl6EuT2sm1bZyAwyGkG6Mtoebp/AfXHRfhdZvLrHeblpf9dp93C2e/vJ8/ZdxhDkLEtrJr9YAmVze0irD1cBdH9WLJ5PF7JK6ConOM0f8l7ymmP0dRclvWxywW4ltTLP9bVw8bFJQbgupV4trHlmXbcTxX0f0K52kCG1jV0REL1sKz1osXNvVk7UGiB4tiduRi+6Ui8RSbXt0js1hrgYpxs3qwiwsDZesUzqO/59GUX3d7/oGUg9AtwzaXziSQsniB/2O36XRn0ABadBo0ZROTqxjXwilb52DMQzB4tkpfXEvSruA4zZN1NULV6+tbZmsHJ0PoovphZzd/ku7pY7Zw309M5jWKlTt5XrOZUTnBlXDTufTEGVnOr0vcWN8uqL66tq6bW9x4XKy8ybHg2pE0nP4lj4GbmwrJ4B5covEp2+IwhhM7dxUrdwkwBgjgr3j2I9NFq6sxo6a9VONXMyEoaSK9n20G3No5yubhBTnGPuyQX68dSUhTjdWffEtra6lmM3YgSdWe81sKNa20owkb+6conqOAPlqMxICVug/3bIhWADg/ohFynaf/s1jglA+U2xpQJAbjeGwjGTZM7sFE/aFfJUK4xjfBKkG8QIiJ7j0P5cf6xRCgtEx5CDkqiS5tZONOy5fJzYcC7aE8zhvzJxFguAXAeWmEKOtLxadICFtnei+0+cIFIGRjahQ/0HIN2S4IaPb2C3kCdfiSYsk0fdoImtUv0peaLbGuxDN3E8a2txHVdIk+DFBMyXG0+CBgBxpWkDngJLGjk4OCAqu+RNzVEsN0a4ZthKEO1K5qbAkVUSvfzRtMhJyKaXGMuaE+FyLlcq1B+CJOfer9WxWAvVQUeCD6kGsjZzuZBMyrsaSD3XCnYGsNl6LEd4m4PEqU0CAiRSFIF7AjI4xaGkCPXdx1URRwwCL7Ct79imWgYoWbPQP2dCLiz3jDMnWHTrer/tBVWLF1u4ITqb9APmEFoXZFgO4tGJ9q2joH9pNBqL66ZLTVQRC+dsfFif9W0sOosqDdfcDoBdXySbrB7f0Qg9NgoNfJoQEIEmsmE3QGCUe26Y6iaAz6iVnA44B4JON2gF4j6bBd6rU1aD8iPnMEoekSsCn62IaqudjDjIqA6vb2jqWLgNJEVwCyIDn3cJMMcCiEnj8mVM2sza5O6o7AEIg2Xc5kUhnFjpL+5o4oKBkiSKcmFXVnprEr0WAA19sNajXjq50Jxr1rcMCi1WLaEWKNe4IRjjsS6qqjibCC5xcj1N2JGg10buFikqrAXC5Qp7xWuqKe75lzYvUiUcUl1IF7zk4jRAhEhLMa4NO+Z8WCViiyyXcRT9ki6AXOGRotL3cWE2Y01A43ZJfdm4l7VQKxaxR1vrgE8yn91GAKQgUoegZkHtkBkSlqCaw3HUdym0riOj3KIIwIMqk9MA17lL3amyvEeqieJ4r+xDAyadjzYBeD33Dsogd6ijCo+i2caVU6PcOspJykT8uj0STOZqoaoq0upsbtTg08u7EFQHJyhGwCFopJHDgRr2pEPHo7bwiSpN/NurPJyVuLwdYKYdenKgkPak11AEyIhz5kPpSkaRyyZupP7AfhTr7g3hwCr92QZMLo0BUKIbHgqQ2anpZjVtgGTOQBzPRlAsGPi+sZpoXz/Udw21M+hQDGL0lFwR0kkCL/CUuImAYNpzekaiwGrwhdHs5bIQmGMkKscAmINwVasATxQ3sogWq0bPQmwFNUKJTmdNjpteCuBtvl9zwKVHOyBAFR4XmhHy6ZTDTWSLDPZFClki7QFFA7tO2FIuqBAJxZyhilNh506rEPkjuVQmcLT+UmqgAufkSttBrcWnTHHGRAL3TVi6hf6f0C/CC16nJ2Y4i1V7aLYF6DShSXgxBJFRyUhXB7wfAQ8xSPVWbArVQCEdm4mL+A0ikCZOSNeQ+RO50KlI8AzshU0FV3W7GyInCLBP9B6CKyWQY3asFnlHBQGXpfQjQA8dPpGWrId6pQ7QK0AtnUnnOlrReuS6oR9uLdpYwCFl8NVZXopHv7gIqmhcBY0HR46FVCLPIFLpmAuHJZziODCMrgW7ucdyiRpZSAHPoMVzIbvjrXNohSPjP9FbBFQtQtUOYXbmJF2wneCGg8agiR/ibNU3ct7S65G0oxr66hSsjHcoxtynVWQpGnK2ziLPRoRBQFSkAitBGtqddCergMNICOWJbJsIWr9gQPTr3Bnss6ETAQIsjUDDJkAaEQoHjKqqcAlxZRQIRHYQfPkTJDpAcLnMVr65RbCYFgkUgRSdRCH9tCIk3JGsUa6uHygto706AYQNxuTU0jToHu6b0sej0IQgiSN6NMONsDI9UI8qndsbnMqvrrJTcpccH2A/I7RGTEMmGEs+mexlaCE50MBkFW85aBB8Ub/g0fgoBewiMJsxZnt3WIhyv9gHbm1QvHQg3b9aXtU3xxobWou+IRiEBxDe+0df/YEtYEsMmACgsIaCfAPZ68sJSqJi/PAhAQVlMm0tgcnU0ITRTB07pNO4d4LA+gBb6zXQpHjv46uAEE1bC0Dt1ilUNWm5eZw8ADaJXpQuhRdQMREJg+HFEaENASlqFl0DiFLdOcvpeN5azYEfSKYi/qJgseQJikQCkJ3NnaBOIFoSot68/gz4xKPHl+nOOqcGkwqKzqFtPRoesYFowbkvFBRMksT4uwHszbDgnrgcGRRwF2naKYkKYNGSNEFFxBRH7Js0jRqmJrzX5WoTBI20PrWH9UOk0kQRvGXdWS6ItvWI+CDoBYuBh+EWwmHsJX0KahQN3CnWTf2HpUtT6Cg+ILJT0FAOUuciZ3BRsZVIDCofxOyQ/pMaOkA23GeTLRvy6nw1AE1VkPekROkj4GeoiUlBH8A4yNmNv6V9hqNTMD3ozFjACpoJlOAjgyKGd3FtsjV0X20hoivf0KBEub7QqHM7hhOjp52BNaAL1TRlHzyLMFBACfRUM8qPgq1ryJFOOuXQwWJ2yg5WM6gGkkOpunr2JPBg2MItgv9kdYe6V0XVIBRZbo/IuIYwpJSAZVaNCkFIrDMA1IyohlJdgBeoPkq5Gl70rompoDwaV62JTq295VZ7qpQBVXblsfnk6uAKoLYFXv2Y69B9g/yu3FrBJw18AoUH/AKTqrYW0oIvJOrVl4Y/goU4XRLTRJw/8qk4JNRMd2l8DXI9aUeLiF1/0yPEQEiKC6WqgetjXIp6rMAOEOhEEJqcBNhPfY7rtyWTQeSBF9RAXzQVogDMAMKJuC48vOTIXiioC6i06/CmhpfGYlCVuIUOSscZPDpQVh1dTOdcPmPAMXLVYx6znD0wqAkkkh5jno7j5PNA7kHQvpB+1BwumDVFithTL5FOrNAlfEWRNfi2zo9wWnQRwgnnN6IzUyviGqQSUI1QAJ6L25HwAlpA84ScxkzQ0VDrxbkVyB89BaRvVFQKksIu03Rh05dQyKLJuQeoGyimpoO1cOtUdCWETot4n6wdL6Rb8coC5I1UBXZdjTfS/xSJhoIT/YPf4h6BZvgBG4hTQGM2Sg9tn/EbiNVQVoWY4kj9+ULAyWHms+bVEjFwJMaxktgEm0fMnmBPikujEJ1Y4ynWd5LGVcBtBVsJAcznTpThrmYrCtQwE6nRhfhAo4IQk2cvMVeMERGwQW3+fp88Q/s0GrUB7nM7dGbT9gZditTWfAl9yaJBLDoQtMWF8VHKf0rxew1CsYYWvLqdyoPHQA3vlM2NF9YQC2g1pCipontJl8zngSrWVDzgPTty47Q1AiBURD/5odnBCu8+u3zNc9fcpEVqhZsUXtGxM7yBL+jfcwUQl7ZcdsJZgR1ZzUsjEFqS7HafHIk+bXy4IRxo5wY+oUlJWE97SRmEHOZFmsf1XC6FJ2tCf+LQ3+ePi0hbsDJTJxVJcFY8rVmV6JB7oiFoPdqJPsCP78Rp+Q7MTZwPmVyYPVCuEaMumSU8px/oytUiEkscQLAmCgEK5DPA6gG05Q5CPHwW6ZeVCU3HEMFvVkv1SOf3ImGpBI6bPUwPq40/+Zvb5t2oyTuJpdzyjcgLc0CCcrr8H39fLqCCO62blqeAClauIlo5FXq/gCOIXBjyCiZ67/UmxxINzr04RBXXmzKAGHzXEBq04KeTSMlFy18ovKIdMIvjlyNHc3ax7XgvArbiQ5n1TNuU7/76Nx8FJLEC3hrYsOrn02DP8cajyN/tNHSgHwWcO3ttHQTxQ9fGAVVxpS3aYyW5r6yRCPR1cvaY94T5I0OwKjAC3MHRATqlOfKs+GmbtE8EpauoB1NQUZ0aqEllCrOEDmFptPjm8jFvuF9DeRI3PTmoIgGwMeHY8B8Q6QSOQ4LPZdELwQWNh11114sRNidh6KQhEVzddPZBTz4dmGTO57wKEGAQPD4FS39o0zTjrZrpd82b7znKFO6zV4feAaYQr2gwBK9Uz6KgixirztPQ20vXvrwnkUQKokzXibT0CBgoPA4d6lDkWC7a50ejDL+WgGTRaOfKBnPHkhxStJAexKWdMKDix4CDThRCChclBWjASNsgpTbSGFzn0j1poAiRNmMlmbZP9bM3cnE96JUg6Pa0O+mndP2bJ1N++JrWKDdin6rEFVcOT07j8BEfrUcNLj7lNXPqP30pqlYzDWkDQgX8QykhRCKKGIsAo+ZnEjSd7GA1qrb7b/T1TA02aFC9yYK8Q3enJuWLxpEIjK8A/tARADXsgxp7uzBd4zvQbSoBtHV9RUA6nDaIikazEnh1qWk9ld+0xqn9Bbwd2rxPLpM/tzQ8a/rdc7utC3Q0BmsAXFColI4kFx6awHx2Qy6encWyuqYhJJflcFo0XBQKhAnXufQhlQ40TiEuWoAGhiah3Vr16EXQiEK7Z4VoHUiXytNoB2GwOucHFZFbLuPaNyjOqTj6bKJJwVE0OBrKWRj5HrfAGuPFT1hYQ6oqhHGPJqHaYmoswV1pdMuyvfASNkODzI3xhuawudyJTU10gJFJICdxpQ8+kdF8xb67JQr2pEGRndQvJYi8xVOgODS0hHooWmT/mdZDFlaWJwgeZhoy0iJSAPwH2A5mhVPRjbD6p+o56/YKPNobD/DBQrTkRf5DjoH21rBds8TP1MljaqrSAOKtqynllBGe41u69MX4AZI/XpNEE7oLkwLFo3YLEoXKd/kNW8NORfqOi5gGTuR6zjYpPnQFYaK4oaB0NDFNctHopqtnKMocrzRhEe1YKXBD+we/X74QI7oF/LWpaRaiUmSAA4Ol6eomFyCTU52MHsRWkbnDGzC14BSjjq9mwhj8szACH0yCyNHUdCf+ep7tabRzhdq+q7I7VI2NWPKhmTbXY00NuAUxhp752VeXRIkNlZnIAOJeFJRA5tn7BAdTRxjLhIgiZIGy7pdSz0RiXrALLcDhlybHd1aPEe+q+xsXAQQu8NgTe7orBKmtZFINoIenw3BWGs/jd5OFSFQllrgRiVxSICuD3VvQp6wSGhY25Cj3A6VgC/9zjKb9iiaeBV2jorcWJvdq+IX7124M3JctDADrEbUvrgMQkK3pOsIZRBC6M8J8jTJLUCXtvYYMytJmfiE+J+XaQUhY+pHRCD2680gnyOfiajrJAnYyFYDGwm/4x6tw3AGADVVfCdExJBylTWvX67EDuEYHh4Tle4za00vP0rQlRyNVrpFI02ZpTJ7Ik9U3F+2ShqgwdLG29RP+X5WdNEqFcGNQULXr9iKFokl/2geFQmmHrOG5RosQm7aTGgjitOtMLHoZGr7decBW7bVsIYBmOMmeOloSzJKrWVtPTaOxA5blRmui8uA1MiRj4bVB8/oGriIMF0FJjMN3G00PtMg3U+bJa+dCE1YqoK71QXKHJm0/V07zp6TxCHUEV0KA0Cmc3OFdgI2mBwcDVf8GmRQp2g3MaggFRw+jTZomNYsO2Np7R6Aj4Xa49JJmjAOhge0v8Ivmd8CfhmH7UdIWhmFQHXywJ6ymDV2FXEU7v00aQV8KGzew2yS0NQi7Xv/vhQjBR0/0nh7AiE53C1lgnwaAYNoCgITu41aUYgcVqTK0PMgEFrahLT7qt8b1IXTt/uLDnXGGNB6CcknUbMK6Fo6kg1epmq4iwJEsS2MBVpEp0i2Qhfe+o7OqZyLq+9mKimTRy3lGWcMeNdCJiMESxohwUsQVYQZvh/ypUsobfux+SEi16R2ymdLzUvSDGqaUw83aacIMt6I9ByMnyv7b4gWqwVuS2sFYwCBCHZwI6feSpUEiAKBY9ZoQxpVY0iYTK/F20+K/3PPXXjaclReKc2qQIhOtHdWukTU/4DMWVgh9hUYOOLtMUDGAcAmC9aLIqkcMeGdrqYMwV56uOHORZC9BAZ0AoRVXp6mw6WEabnp7uh/+8wTzntA7wgdrfbaLVKqMEsIVd8TiKmmBGGnOS3nzziQuRZpRk2UZRPSrB++2pogc3BJmS73W30ME+q1pIPOe6JD3vmh66ocb5OwXG9PF5cADxpv2zMSZ2080bM+nACN6IglpRIURBCieAtHEpizp518wA4gqKyM1E8ZyabRPtJBtxkccB8pWPSH39mQl2L80QLdcVLOaa0vM4ctQRoAraeZvCavPZ1g5IaNpabb0noC5CF5CuN5pATjURkOWaWKgh3c1SudXywBVcMs+1WjvouG4+RzZbG/AU//Cn2UUcUBN0qL6HdY54rhoFlX9VK5oelw2mJq073Cg2yQqeZXZtHF3g4FM5QZ/pdMkeJI24iLGgIjoiRnNCNRWpdK0K4YIJ+mRAhywEBPtp7rvuOSrrSoOB7PIcZoGjaLaJFOHJqvqF6F0dvkaypL8ypLcYnaW/wcbxa1ip51QhenOWY5G1IA2wE3LU48UzJUFcZr/aYM5CMT4FY3bAPz+UWl5axPuqxgbNfO78Pn56v74xjzvMTcsTBvIxKytna6HtJA7FeKkLxFWLYIL8BAAnEAG7BKk0J02dbTB+jIC9z2ZsrUNTG5hQRsZTwJNw/z73S5wAvOWwF9WIKFBU4rhoOBuFLJ915/pVC9Li6prrUnQZJo1lSYLp+35ogf3snF1ZFO2lCGrA2UX6JHwTT1TgtlNYtgbsMultQKNCVUVuq2RgR6v5ZQZGcb1gSo9iYFb8dUFuXVAnevXor358nY/HyEWDQmx0IEMIHn1HIrp8ZlC1qmExMHU+kLf5e2gn4kY1Bb5IyCQa2sPW3Njwk67ku6o4TLNjs0GOluF4umSWPKHmalyes2iwR//slG2iVQWoSfIXg++hF+8nfuMO+ZtVfijd9HbejziTK8nwPBQMWtoZRR2J4gwQn63hWljnZ4PZ7jCcUG4fWdWoof6uqdXAuBW0bR66HDGQffTGZSA9tfBHm3/+qopa5bqhy+OFYcJQ0YiLCTP5GXMpm0YiM6hs+YmWhDcHVcD/U9HQO/p7dW/R39QBzhZd2CfmzwGCF12+/yhTTO64589bvbL68AdKQQysyOcBB8hemQEUkYj4iXXKV6ayHAG6015Sqxe4d9oW6AXXwHYg8OuaxaUdwQ7wWaipoc6utrhNg0m2iGJ7Q1iLY3AYlVgJLhoYAAIaAMLReAWlpkL6WES4otKO4vPToQdCr1O/HKHb0raJ7x+tF1ecSAN7k7hQa/+LumXuCE9Dwrg5MlFQO/2YDUmIRpMQVewmPVRRlDTqOlDF6aHGMfCbrpFzEEyzjPMsKTH5re79QST9lL3K4YRvEaYSyb8XSRwMaS+RpTQ4HWIqXd2owM8FTSPBstX5N/fwEmPiOvBiViOauBtuSInn9jhRNo9bH1Ht/0MS8ZnCSTfc0d/5BvtGpAjcntH/HQjl7QPBRGDo2db9dSZ47CkkUNZ6ENA4j0NiXvSMw32nmLQjjvriEuOBDA9WaM900R4WZe6AoupbJr0bQ9R+CheVHhOTV2+ySc3z+eBQM3mvMZziDZxFAKlzUuWPSGtPdfg1vNgeqIjvsxNdED3ny0bPXCz/u4Zkt9enf83D9SmTztdo1aCgUR4Y/2tfXrKw4AROO0R8vX8ipLHM7FuDEkM9It4CeJNqEuNzj/VQwUK14HETyHE9OZHYLjdRDKUtHBfRjwc0w2rpoKHVb2Gj0QFMYNDE2shMrQ5ceVwsRfZFXoza+R2b0Qy6sGBq381QqXg1JvqTY9MbAQBsmR/HIG2/0nIhBX0TFaZeiLq4Dm2Hu3FJgD/FfBEY2kRmp02/aOMavXto5NWbCn03br+HU/yeoRQz6OMizuSzn7P/hSNqmMv0mh6vCBqXCnc44wgA0rmaN8nnVJEk/cNLfvLLojnNNKL6FSOfhvjC/1hHztQ9C95/o7r/yn3/9NXCNxnOgn+PEf7AdpZ0MO2ZQEeybULUFTuMogO0EUw5JSb3Z+BghhDjzJn1EPX/DECb9yOV9wxOu/BqhLMYYWR1n7p32PUhpLUY9acM0GHQePJN/1Yi0Ye9CgJATNgIT2eia3XDECDjeuAGAMjNXzF2+GU/QILPYwOT0QAG67SJirI2uh8UXeeCz8NUaHnu56P5Q4pSGrg85iydkX+7dj+GDDde3d3/wvobYm3dSmpOwAAAYRpQ0NQSUNDIHByb2ZpbGUAAHicfZE9SMNAHMVfv6hItYMdRBwyVCcLokUcpYpFsFDaCq06mFz6BU0akhQXR8G14ODHYtXBxVlXB1dBEPwAcXVxUnSREv+XFFrEeHDcj3f3HnfvAG+rxhTDPwkoqqlnkgkhX1gVgq/wI4BBhBEXmaGlsos5uI6ve3j4ehfjWe7n/hwDctFggEcgnmOabhJvEM9smhrnfeIIq4gy8TnxhE4XJH7kuuTwG+eyzV6eGdFzmXniCLFQ7mGph1lFV4jjxFFZUSnfm3dY5rzFWak1WOee/IWhorqS5TrNUSSxhBTSECChgSpqMBGjVSXFQIb2Ey7+EdufJpdErioYORZQhwLR9oP/we9ujdL0lJMUSgCBF8v6GAOCu0C7aVnfx5bVPgF8z8CV2vXXW8DsJ+nNrhY9AsLbwMV1V5P2gMsdYPhJE3XRlnw0vaUS8H5G31QAhm6B/jWnt84+Th+AHHW1fAMcHALjZcped3l3X29v/57p9PcDcktyp0QbGKEAAA0YaVRYdFhNTDpjb20uYWRvYmUueG1wAAAAAAA8P3hwYWNrZXQgYmVnaW49Iu+7vyIgaWQ9Ilc1TTBNcENlaGlIenJlU3pOVGN6a2M5ZCI/Pgo8eDp4bXBtZXRhIHhtbG5zOng9ImFkb2JlOm5zOm1ldGEvIiB4OnhtcHRrPSJYTVAgQ29yZSA0LjQuMC1FeGl2MiI+CiA8cmRmOlJERiB4bWxuczpyZGY9Imh0dHA6Ly93d3cudzMub3JnLzE5OTkvMDIvMjItcmRmLXN5bnRheC1ucyMiPgogIDxyZGY6RGVzY3JpcHRpb24gcmRmOmFib3V0PSIiCiAgICB4bWxuczp4bXBNTT0iaHR0cDovL25zLmFkb2JlLmNvbS94YXAvMS4wL21tLyIKICAgIHhtbG5zOnN0RXZ0PSJodHRwOi8vbnMuYWRvYmUuY29tL3hhcC8xLjAvc1R5cGUvUmVzb3VyY2VFdmVudCMiCiAgICB4bWxuczpkYz0iaHR0cDovL3B1cmwub3JnL2RjL2VsZW1lbnRzLzEuMS8iCiAgICB4bWxuczpHSU1QPSJodHRwOi8vd3d3LmdpbXAub3JnL3htcC8iCiAgICB4bWxuczp0aWZmPSJodHRwOi8vbnMuYWRvYmUuY29tL3RpZmYvMS4wLyIKICAgIHhtbG5zOnhtcD0iaHR0cDovL25zLmFkb2JlLmNvbS94YXAvMS4wLyIKICAgeG1wTU06RG9jdW1lbnRJRD0iZ2ltcDpkb2NpZDpnaW1wOjFiN2FhYmZjLTZmYmUtNDE3Yi1hMWNiLTNlZjAyNjEyYzhjYyIKICAgeG1wTU06SW5zdGFuY2VJRD0ieG1wLmlpZDphMmE5YWQ1Yy0xNDY5LTQwMmYtOTJiZi04OWRhMzRhN2ViZDYiCiAgIHhtcE1NOk9yaWdpbmFsRG9jdW1lbnRJRD0ieG1wLmRpZDpkMWEyYTgxMS0wM2JhLTRiYmUtODFhMS1kODQ4MTYyZTVlMGMiCiAgIGRjOkZvcm1hdD0iaW1hZ2UvcG5nIgogICBHSU1QOkFQST0iMi4wIgogICBHSU1QOlBsYXRmb3JtPSJXaW5kb3dzIgogICBHSU1QOlRpbWVTdGFtcD0iMTY4MDcwNDI4NzA5Nzg1NyIKICAgR0lNUDpWZXJzaW9uPSIyLjEwLjMwIgogICB0aWZmOk9yaWVudGF0aW9uPSIxIgogICB4bXA6Q3JlYXRvclRvb2w9IkdJTVAgMi4xMCI+CiAgIDx4bXBNTTpIaXN0b3J5PgogICAgPHJkZjpTZXE+CiAgICAgPHJkZjpsaQogICAgICBzdEV2dDphY3Rpb249InNhdmVkIgogICAgICBzdEV2dDpjaGFuZ2VkPSIvIgogICAgICBzdEV2dDppbnN0YW5jZUlEPSJ4bXAuaWlkOmZkMmFkZjFlLThhMDctNGQ1OS1iOTczLWZiMTA2ZmZjODg2NyIKICAgICAgc3RFdnQ6c29mdHdhcmVBZ2VudD0iR2ltcCAyLjEwIChXaW5kb3dzKSIKICAgICAgc3RFdnQ6d2hlbj0iMjAyMy0wNC0wNVQxMDoxODowNyIvPgogICAgPC9yZGY6U2VxPgogICA8L3htcE1NOkhpc3Rvcnk+CiAgPC9yZGY6RGVzY3JpcHRpb24+CiA8L3JkZjpSREY+CjwveDp4bXBtZXRhPgogICAgICAgICAgICAgICAgICAgICAgICAgICAgICAgICAgICAgICAgICAgICAgICAgICAgICAgICAgICAgICAgICAgICAgICAgICAgICAgICAgICAgICAgICAgICAgICAgICAgCiAgICAgICAgICAgICAgICAgICAgICAgICAgICAgICAgICAgICAgICAgICAgICAgICAgICAgICAgICAgICAgICAgICAgICAgICAgICAgICAgICAgICAgICAgICAgICAgICAgICAKICAgICAgICAgICAgICAgICAgICAgICAgICAgICAgICAgICAgICAgICAgICAgICAgICAgICAgICAgICAgICAgICAgICAgICAgICAgICAgICAgICAgICAgICAgICAgICAgICAgIAogICAgICAgICAgICAgICAgICAgICAgICAgICAgICAgICAgICAgICAgICAgICAgICAgICAgICAgICAgICAgICAgICAgICAgICAgICAgICAgICAgICAgICAgICAgICAgICAgICAgCiAgICAgICAgICAgICAgICAgICAgICAgICAgICAgICAgICAgICAgICAgICAgICAgICAgICAgICAgICAgICAgICAgICAgICAgICAgICAgICAgICAgICAgICAgICAgICAgICAgICAKICAgICAgICAgICAgICAgICAgICAgICAgICAgICAgICAgICAgICAgICAgICAgICAgICAgICAgICAgICAgICAgICAgICAgICAgICAgICAgICAgICAgICAgICAgICAgICAgICAgIAogICAgICAgICAgICAgICAgICAgICAgICAgICAgICAgICAgICAgICAgICAgICAgICAgICAgICAgICAgICAgICAgICAgICAgICAgICAgICAgICAgICAgICAgICAgICAgICAgICAgCiAgICAgICAgICAgICAgICAgICAgICAgICAgICAgICAgICAgICAgICAgICAgICAgICAgICAgICAgICAgICAgICAgICAgICAgICAgICAgICAgICAgICAgICAgICAgICAgICAgICAKICAgICAgICAgICAgICAgICAgICAgICAgICAgICAgICAgICAgICAgICAgICAgICAgICAgICAgICAgICAgICAgICAgICAgICAgICAgICAgICAgICAgICAgICAgICAgICAgICAgIAogICAgICAgICAgICAgICAgICAgICAgICAgICAgICAgICAgICAgICAgICAgICAgICAgICAgICAgICAgICAgICAgICAgICAgICAgICAgICAgICAgICAgICAgICAgICAgICAgICAgCiAgICAgICAgICAgICAgICAgICAgICAgICAgICAgICAgICAgICAgICAgICAgICAgICAgICAgICAgICAgICAgICAgICAgICAgICAgICAgICAgICAgICAgICAgICAgICAgICAgICAKICAgICAgICAgICAgICAgICAgICAgICAgICAgICAgICAgICAgICAgICAgICAgICAgICAgICAgICAgICAgICAgICAgICAgICAgICAgICAgICAgICAgICAgICAgICAgICAgICAgIAogICAgICAgICAgICAgICAgICAgICAgICAgICAgICAgICAgICAgICAgICAgICAgICAgICAgICAgICAgICAgICAgICAgICAgICAgICAgICAgICAgICAgICAgICAgICAgICAgICAgCiAgICAgICAgICAgICAgICAgICAgICAgICAgICAgICAgICAgICAgICAgICAgICAgICAgICAgICAgICAgICAgICAgICAgICAgICAgICAgICAgICAgICAgICAgICAgICAgICAgICAKICAgICAgICAgICAgICAgICAgICAgICAgICAgICAgICAgICAgICAgICAgICAgICAgICAgICAgICAgICAgICAgICAgICAgICAgICAgICAgICAgICAgICAgICAgICAgICAgICAgIAogICAgICAgICAgICAgICAgICAgICAgICAgICAgICAgICAgICAgICAgICAgICAgICAgICAgICAgICAgICAgICAgICAgICAgICAgICAgICAgICAgICAgICAgICAgICAgICAgICAgCiAgICAgICAgICAgICAgICAgICAgICAgICAgICAgICAgICAgICAgICAgICAgICAgICAgICAgICAgICAgICAgICAgICAgICAgICAgICAgICAgICAgICAgICAgICAgICAgICAgICAKICAgICAgICAgICAgICAgICAgICAgICAgICAgICAgICAgICAgICAgICAgICAgICAgICAgICAgICAgICAgICAgICAgICAgICAgICAgICAgICAgICAgICAgICAgICAgICAgICAgIAogICAgICAgICAgICAgICAgICAgICAgICAgICAgICAgICAgICAgICAgICAgICAgICAgICAgICAgICAgICAgICAgICAgICAgICAgICAgICAgICAgICAgICAgICAgICAgICAgICAgCiAgICAgICAgICAgICAgICAgICAgICAgICAgICAgICAgICAgICAgICAgICAgICAgICAgICAgICAgICAgICAgICAgICAgICAgICAgICAgICAgICAgICAgICAgICAgICAgICAgICAKICAgICAgICAgICAgICAgICAgICAgICAgICAgCjw/eHBhY2tldCBlbmQ9InciPz67wUqhAAAABmJLR0QAAAAAAAD5Q7t/AAAACXBIWXMAAAZ5AAAGeQFf6MGaAAAAB3RJTUUH5wQFDhIGnsIvhAAAIABJREFUeNrs3XecnWWZ//H3fWbSCB2UJlYQEewFkCQUxbXv2n666rprW7uujTCTgAKZMwFU7FjXtaxdFAu4igokVAWpgvQivQYSUufcvz+uExlCElJmkjMz1+f1el4zmZZz7ud57ud7X/d1fa8iSZJkI/JhuiYxHuNajCt0Y1yle/nn7WOLwjYttipsjsntY3NMwmbYpLBZZVJh0xq/PwkFKhNL/F/L2RSNQf8ewP3xo/9gIZa0v764srARH+9vf+1u3Nc+5lXmNZjX4k7cVViMpVjW/ri0sqTBknEs+UR8PUmS5B+UHIIkSYabg9m8iy0LW2BL8fmWNf69NbZpf9yiLbI2a4uu5R83GcFvfyHm4d72cQ/uwp2Fu2qIuMFfv6PFnS3uPDqEXZIkKc6SJEnWSYCN62aHyuMKj/XAsbOIUE1axZHzUIiwhSISt2DQcWfl+sI1lSu7uLJyTV/8bJIkKc6SJBmLTKc0YltxfHtLcHxhm8oe4tgVu+AxbbHV1T4agz4m60ZFS2y3Lj+WFK6rXFr4K84f4K+FBSW2W5dUlsyOn02SJMVZkiQjncPoHmC7FtsVtsV2IgK2y6DjkTlSHUWrcnXhcvwNVxSurdxSuWkctx8RIi9JkhRnSZJ0OocyYRm7F/Yo7FkjErZDW4BtK3LEkpHHfbgFN+Mm/K1wYeXcJtfl8CRJirMkSTYiPbG12F0Y14hqxmfiuZW9xNbkJpjQPsbliI06qqgUXYRFlRsKc3Bq4ZxWFCws7WLprAdXqiZJkuIsSZKhYjoTunhE4ZGVx2Of9vEMTMwRStosrPylcArOEsLtlsJts3IrNElSnCVJsn7M4FE1xNdTPDhHbIccnWQNuRGX4kL8qXJ2P9fksCRJirMkSVbDoZQWjbZJ6+NavBAvwm7CK2xzuT2ZrB8tkbd2F64pnFQ5AddioJlRtSRJcZYkY5123tiWhW1KRMMOwgsrTxTfa+Q9nQwTyy09luIc/ASnVm7u5q4j07YjSVKcJckYE2WPaPD0yrOwt/j4qByZZCNzj8hRO72GYPtTf7SySpIkxVmSjD4OZeIA++LVeE5bjD1SGromnUfFbcKe43R8Bxc2M5qWJCnOkmQkM4OJNfLEnorX4qWi1+R44bKfJCOBZcKu4yx8u/IH3NWf7aaSJMVZkowgUbZT5emYIhL6n56jkowirsdPC78tnDcrImxJkqQ4S5LOYiaTBti/8DJhe/FkUWGZJKOVu3E+Tm7xg9lcnUOSJCnOkmRjirFSw3l/58obxbblozBZblkmY4vFbaH288IXK1eNY9Hh2ZUgSVKcJcmG4GM0xvPoylMLr628XEbIkmQ58/Hrwv8McN7s3PJMkhRnSTJczKbcy76Vlxb2F9YXaQibJCvnfswp/KLFD/u5M4ckSXGWJMl60zaI3VQIsndgd2wrHPyTJHl4FuAqHFf5QeHe7EKQpDhLkmStmcm4Fjvin/Ae7Cmd+pNkfWjhYhyNP7S4dXaKtCTFWZIkD8cHaGzKXngxXtkWZUmSDC1z8b3C8X3cmsORpDhLkuQhzGB8ZRre5QHn/nTtT5LhYyEurhxX+EEzDW2TFGdJkkyndLFp5RmFHuwnrDFSlCXJhmMRzsYncF6Te3NIkhRnSTIG6WHzEmLs9XiNaKeUJBtSkCwR/mCL2/9ePOhYKlomDQz6uLT9u90rLCC62l8bL6qHx2FS+9ik/XGyzi9iWYKf4qs4sxnjkCQpzpJktHMoE1q8vPIW7C36XCbJUDEfd+GO9nHnoM/vah8L2wJsyXKBVljcYklhSWVJg2UtlnUx0GLZMlqFpW1F1t0aJM666GrQVdvCrIYIm9gWZRMHCbUtCttVtscO4uNOeHRbxHUKN+PEyrH9XJKXVJLiLElGIT1xP0xssFflUJFTtmneJ8ka0BKRq+XRqwFhDXEtrq5cU7gGVxduqOHtNVAZKPGzLe3PCwPjaH18I7nmT6eMo6sV4m15tK27ML7FDoVdK7sVnihajz1GCL7uQceGumcGcHvhC5WvDHDXUVnZmaQ4S5LRwXQmdPHMyjsLb5CmscmqWYZ5uKf98W5cX7i8xeWFaws3bM4d08dAW6LD2GwghNqTKruJYwcRbV5+TBjml1Hx58rRDf7Yl0a2SYqzJBnZzOCpNYxjXyU8y5JkMItwBS7FZbget5T2MZ9bPxOCLWnTw6YNdqpxPKrwWOwy6HjEMJ6rEytfnMQph2UULUlxliQjSpAVbFN5N96KnWUT8rHO8u3FhZVLSnhsnd0WZfOwoLCg74GE+2QNmU53F5tUNilxbIOntHhuifSBJ4pChcagY12puKPy48rhhdv7s7F6kuIsSTqbXrYqvKCdV7Zn3gdjmvtwV+UmnN7g5AHOLtxXqIXalw/2YVsgtSgDNLrYohH34jPwjMqTsAU2x2aiinRt79OKy3EYfpPWG0mKsyTpQA6nsZjniTZLr5V9L8cqd+FPuLAdIfvLAJcelRGxjuFNlMewY+UJYhv0CWJr9DHtY6e1eH4two8qn+3nvBzdJMVZknQIPREtmx7zvh3z2h9TVGFJcSaOxxmFv1fuyMbaI+oe3qywJbaobFMiuvb0wlOxR40o26qeaxVXFL6Ar/WFYEuSFGdJspEm9E3aJrKzRdl/RsvGBi2xjXVVW5D9FNdVlvZHblkywumNHNGuErYfE7Br4dmVZxeehu3E15cf44Uo+2ZhVl/4pCVJirMk2ZC0qzD/E/8u/MqSsSHKLsMcnNDgj7MySjJWxdu2eJzYEn1c+9hOFCOchNnNFOpJirMk2TB8nAlLY/vyg3hKjsiY4Xx8vXDKEi49JrcskxXoiUXa5iKSdm1WcSYpzpJkmJlJYxnbNTgcb9RZrWaS4WEprit8YYDvFub1p+dYkiQpzpJk49MbuWUvqPSJkvz1YZlor3O/6G+4pP21pe2j5QEfpobIfZngwU2kN8uzMuxcgR8WPt/HbTkcSZKkOEuSDmEmj2zRi/8Q3khrSgs34jrRA/Hv4iF/T2VeI4xH762Rs7SksLiyqNLqClFWanwc1zbX3KxdMba5qAjdVbSy2VN2HhhK7sf/4mvNsMRIkiRJcZYkncChlGU8pXCccBlfWT/M6sGNqP8iLBX+XLmywfwWCxssarF4Pks+PwR5KL1xb00q4Yq+eQ0n9DdifxFZa+QZXGsqbqxhiXJCf5zPJEmSFGdJ0gn0MKnBKytHe6hv2VJhNHqnaL1zWuHsJVw0LvyuKmpzAyYD91AKjRLRtA9VXihbRq0NSzGn8K6lXHl0JnInSZLiLEk6h0PYusEheKcHjCeX4q+4ABcVLqhc0OzQXKSeMM/8Vw+Y4iarZjG+UTiij1tzOJIkSXGWJJ0lanYqfAkval+/5+I3OLVwPW7rY/5IeC8zGF95Fg7GS4RJZvJglmFW4dN90QczSZIkxVmSdAqHRHPko4Sp5IkNfl25ocXSBgMjsUH1DMoSJozj7fFP2+V9+Q8WVw4rfKYZFbNJkiQpzpKkw8TZZGw2m1tG4/vr4XmFIzFNtplahM9XDs/E/yRJUpwlSbLR6I38s+l4zxgWaC38qvCWvijsSJIkGVNkpViSdBBzuG8qp4ok+OeNUYF2beGNfdyUV0SSJCnOkiTpBIG2bBpnF27H3sZWG6ollfc1mZtXQpIkY5U0wkySDqSPJV1hH3GosZVz9esWJ+YVkCRJirMkSTqOI6JC8RuVjwoft9HOgsp3l40QK5QkSZLhIrc1k6SDmcPANC4SjdX3HuULqj83+OxR3JtnPkmSsUxGzpKkw2mG39exOElUMo5GBnBRXzSfT5IkSXGWJEln0x9tqA7HjaP0LS4WTemTJElSnOUQJMnIoBmtqr4oWhqNNpZUrsuznCRJkuIsSUYUy/gyLh2Fb61VMtcsSZIkxVmSjDS6ubdG9Gy0UTAxz3CSJEmKsyQZUTSphT8afe754/GYPMNJkiQpzpJkxFG4U+SfjSYm4Ol5dpMkSVKcJcmIoytysy4ZZW+rG8+dwc55hpMkSXGWJMmI4ojoFnCj0ed59nQc8PE0x06SJMVZkiQjjcI9WDTK3tbEyn8t5bF5hpMkSXGWJMmIokb0bGAUvrVnoP8QtsyznCRJirMkSUYS443e7b9XNvhMD9vkaU6SJMVZkiQjhc1FheNopBtvKnyulyccnPNUkiRjjEy8TZIRRm9EzV6JqaN84fgUTGuwcBp3zOG+PPtJkqQ4S5Kk45jKVngndh0Db3d7/BOmTmW7/bj7NG7PqyBJktFMySFIkpFFb0SU5mCLMfS2K5bgflzTfv9n4JIWtzaiGfyAsBdZ/rGF2k3riPj9JEmSFGdJkgwtM2m06MfBORr/4F5ch9tEVO0O0UXhPswvzK/x+ZL2sbSypMHiGv9eXFiIhZWFzdFnUZIkSYqzJEmGi172xq+xdY7GWrMMi4X4Wn4sFsJsfvu4X4i5ewp3FW6t3Fa5pXJbN7fMip9PkiRJcZYkY51D2W6An+J5ee8OO622mFsiPOUGH3cXrqpcWbgSVwzE53cXWoWBFq3+0dfBIUmSFGdJkiynh20Ln8QbhdVEsnGpK3y+FNfj4sIllYtxbWUe7i3c04yoXJIkSYqzJBnp9LIDZuHNKcxGFEvxd5EPdxWubX+8vIurj+TuHKIkSVKcJcnIE2Z7i4jZXinMRjxVFC/cIyJqV1bmFuYu5sKJUahQm1lZmiQpznIIkqSz+CiNcWxfeD2m4xF5r45asTbQPu7E6TilLdhuq9zXz4IcpiRJcZYkyUakh53w4sJ/YN8ckTHJMlyIc3AeLiv8rS+sQpIkSXGWJMmGoJdHiWT/V+GpmJijkoio2s24ERdXTm7w+77skpAkKc6SMS8cSol8p2V9mQ8zJMyguzK5sGvl7XiF8C6bkKOTrEaoLca8winCVuV0YbC7qC++nyRJirNkLNDDjoUphZP6svn0+oqyrStPxHPwL9hP9rhN1p3b8AecjItwTTOjakmS4iwZ3RzCpAZfxG2T6Dk0I2drzUdojOdZhRdhHzwNO+bIJEPMjfgr/ozf4cxsRZUkKc6SUcbHaSzhU4V/xXubsY2SPAwzKJVxlUcW/lmM3xNFo/LxOULJMLNUWHb8vfCrFj8qXI5lzSg2SJIkxVkyEumJHLO3Fo7GrTigyU05Mquml0nYGXsIUfYSbJv3WbIRqUKQXYDjK79rcMMSbj8m20slSYqzZORwSBQA7F/4HzwaP2ryuhyZlTOdLbo4AC8WOWS75agkHco9wqLj7MrZDc7qC4+1JEk6iHQcTx5CF4+pfK4tzJbh5zkqDzCD0qJReXyDt+Cf8Bhsk6OTdDhb4oV4QeHOyt97+UOD71UurAxkh4Ik2fhk5Cx5EDPZusWPcGD7+ri7i12PzNW13ljMbFt4RuWtIlI2UVZbJiObAZGndj6+jT8Ubl3IvZ/Orc8k2Shk5Cz5BzPYtHIEpi0X7oXftGIrZMzyMbrG8RS8AK+u0ecyFzbJaKGrfezdPm6vnDKRP/ZwzgAXHh3iLUmSDUQ+YJLlwqy7RsugY7HpoG+9pnD8WDWfncG+Ld5SIpfs8Wjk1ZKMEZbhOvyt8LsWP+/n2hyWJElxlmwgetmn8Isa1YXLuR7Pb3LlWBmHQ+hqhOXFPvgInoXJcusyGbtULBEG1L+vfKdwVov5s6NjQZIkKc6SYRAkuzT4GfZc4Vs/xTua3D1GBOrOItfu7ZiSV0aSrJIrKj8t0Z3g0iZ/zyFJkhRnydAJkm3xVdFKaMXrYUaLo2aP8p59vdGe6o2VV+LZGJdXRpKsEfeKtlFnFE68ldO+nkUESZLiLFkvUTIR0+PThzjX34m3NvnFKH3v3ZXtGryj8mZsL0xkkyRZe5Z3JbgU32zxiwb3tlg6O605kiTFWbJmvJ3yyIgU/Q82W8mP/K3w6j4uGU3veybdLR6H1+BdwsstSZKh5Rb8GCfgbxO56bCMqCVJirNk9czgWZWf4LGr+JEzBnjhUSwYRe/5CZU34vXYPa+CtWaZuB7mt48ForH2IhE5WSISxJe1jxXtF2r7aAyaf8Z7oNiiW0Qvxw/6uMmgj5u2jyzOGDkswp9wmmgddeasuE6SJElxlgymJxpy/1j4ma2MFn7QDCEzoumldLHNAO/Gm9piNJuPP1QwLT/uwRXCQuHvuLFyI24qIciWi67lAmygMlDimmmJz2ul1VhJpKRFbTww75QWjfLAvxuVrhpf617+7xJf6yqRCziuLdy2Xn4Utq3sgB0qO5T4fJv2/FYGzXMl57yNRgu34a/4buV43Nef0bQkWSlpQjvGOIRJhUOEVcSqGChcM5Lf50waLbbDCwfi/e4qIy4t3D/ouA0Xlmjb8zdx3IpWpZY4WpXa32F5Q+0WWqUMEl2FUtufL2NiI4TaTiXakT2+weNqiPNtMaF9TGwfE1K4DSsNkde5HaYWPoFv9cQi8YbCvGwblSQPkJPRGKI3JsjX4Tjh5bUqFuODTb4yEt9nT0RTXiFaLE0d46d9vhDaV+MqXFq4osEVR3LTWByQ6UzoDqGwfWXnws6VR7XFwyPbx3btjzlHDi/z8Fv8pjK3n8tzSJIkJ54xxQz2rPzSqvPMlrMIb27GqnakCbOXFv5LRAYnj8HT3GqLsDmFM9oRsdtx21jxq1tXDmOTZWwuji2wdWWXwpPFsXtbtCVDz8L2dXsWvruEMz6ZLaOSFGfJaOdQthoIYbbvmkyUlf/Xz69GiOgc34qH6Ey8TCSNj4Vre1n7oTZfbE/+doDfN7imsKTB0iNHuUfdcNPuGDEO3SXsV3bA04Qf3j6i8neS2BYdXNyQrBsD7Wv6fOG/+Bux5ZlFBKOcj9E4JnMQx5Y462X7ZpR2j9UHzIQGTbzPmiXDL8TrmiHmOv3c7iZsMd6DHcfIw+vvYqvyApzaYu7siI4lG/7e2qoRnTWegqeKqPQO7Wtx2xyh9eZKfA8nFy7si23QZJTRE5ZGO/Rzdo7GGBJnPby3cN0CTvzsGFPmB9Po4iWFb67Fw2JR4T/7+E6nvq+ZbN7ibfg3PGMMnMor8Hux7XNZ4Yo+7soprOOuy8nt/LWda0TVnt4+nmZsbrMPFTfjnMqJXRw/iztySEbN8/lZhT58vsmvc0TGkDibwZTK9yozCz9sjqFmvb2xiv+laOC9piwpzOjjkx14LsdhL8yu8Z4mjsLT1hL5NnfhJPygxrbl/Ab3z8qqthHB9FgYTSxMGmDTRkTWno+DRKRgvLZlSI7WGlFFlfGt+GGL/25wfYOleU+MyGdTo7BPje3rm/HyZuzaJMbOtua2+DZegMNbfGn2GEiOnhm5WJ/Ge9fyVwfwzSbv6JT3cljYIzyxRLuldwtT0tHGfFyP8yu/6OK3szKJf9RxGI1lPBH7tY/dPFAlmh58a848/Bz/i0vGcfPhKdJGysKlq8ELG3ytRpHNqwq/6svzN7bEWfvB/jZ8tj35fbdyWD83jOb3PYM3V75s3XpGnrKUFx7TARVTM9iq3f/yrSL6MNq4RmxZnlo5vX+Ee8wla319b1vZvfKUwjNFscEe0odyTVksGq//rnJiM3Ixkw6lN67rN2G2EGYnF97Ql3mzY0+ctSfAHds2Es8UVW6nVt7ez7Wj9P0+tcaKcs91/BOX4VXNaGS8sUR19wBTaxhWPtvoiZa1RPXZKe1V/5mVW/sjcpaMbaG2aY3OBztj/8JLasxZ4+X258OxRDs3rXBcF2csZUl/RmM66fqeUGORPUtc5/fjg91844g8T2NTnLUvjEMqR4i8pYqL8R/LOP/oUVQo0MOmhU/hP9fjz9yDtzf56UYQZY2l4ez+frGFOXmUXKvzRRukEytfK1xZWdbM8vFk5RGGrgZdrSgw+Bf8Mx7ffqhtkiO0SqqI+J+JL+H0FrfNTt+0jX09T24/k/qF9Qz8ufLK/qhAT8aqOOthu8IZ7QluOVdUPlw5afYo8ITqjRY2rygRkVnf6rBjWhw6ewMWUPTGQ+eV+LCIGIwGbhGmsL/FiX1j1Jk/GZI57Kmi/dFeokp5t/ZiM1k15+NnOLnBn2alSNsYz6WtcDA+6oHt+qWVQ/s5KkdojIuz9kXyURyzwpdvLvTi230jPIpxCNs1+INwNB+KSe3lzQ20qullt8LhlRdZfXupkcJlwo7ktw2umJUeTckQMZ1NumLrcze8VETVsnvBqqkix/i89j15YjM6oSTD/0zaqhHRsv/wQMQMri7s1Ze2KCnO2gJgR5yGJ6zwrQWVoxsc3TdCb9p278zPia3AIclPqby0HVWsw/SaS4vNGhEtmyXOz0jNrVneWPxqfKXFjxvc08yVejJ893wpkcczufL8Evk8zxAtqCbmCK1UpC0SraKOKxzf4q7+7EAwXIuIbbv4PF5rhe4ZlQ/185kcpRRnoIfxJcKrR6zk/S/CcZVm/whU873Ruuh/sM0Q/tnfFf6lL0THkHIs5Xb2xoeEOBvJ1Wk3CYPYHzY4YdYY8tJLOm4eeHLhZZX9hfntjjkqq+Qq4YF5ciM6ENyTQzI0zODxNYIFL13Jty9vsd/sMdy5J8XZyievZ+BH2GUl316K4xt8cFaYHY6U97QjviW83IaSpZU39/ODIRbJ25XwX3ujB+cAjjSux3dKbF2ed2RWXCYdwkw2H+BpJUTaq9pCLfspr5xbROugn1eO7+feHJL1eh7tji8KH7+V7YRMLxzbl7sKKc4G82G6JvIFYbK6skbFAzirxVsaXNns8BLfmdGQ+X01KjSHY0vw3C5eeuQQiNVeJhT2q5GDsKeRabq5DHeU2Bb5duXmvoyUJZ07P4yvbF55TuVtJToUbCJ91FakYoHIsf164fu4oy+3PNeYwyhLI3L7vfb8vrLn0aV4fZMLc8RSnK1MJDxH+J5tt5ob9Tx8AGd1st1Bu/n3H0WrpuFgKb7YRe+R69he45CwBdgN78S7RqgoW4y/4dc1VoU3pYdSMpL4OI0BdmvxdhFlf4Ls+bkqbhWG5T/s4m+zMpq2WnpoNKId0zex62oWtl/ekg8enBZCKc5WI2q+KSpIVsdl6GlGm5CO48OMmxirlNcM8391j6h0/e+1jST2sGWDt9d4IOw2Ai+VlvBM+mHh132R8J8kI5oZPK5yAF6Cf8KmOSor5TacjF+3OHF25qU9hEND9L9Q5Jjt+jBjeVBGzVKcPZxo2L1EnsFmD/OjN1cO35Svzegwtd/DGwrHieqs4eZO9N7N149bg3E4hPFdvKhyiMh3GWnGmS1ciaMqv1nELcfmai8ZRRwS1Z5b4gklWty9XtjYZG7aQ5knWqt9B9/FHWkgzYyouH95+zn0cMUnX23G7kmS4mzV9IbnyqesWWPwewpH1Li4FnTITfGoGnkRUzbgf3s/voovVP7ev0Ku1Qcom7JlYdcakbaXi3EeSdfaEuHB881lfKWb+/pyEk5GOdPpLuzS4IPCa3BH2Yh9ZQyI6uxvVn5QuKE5RguBesP94LU1cri3fJgfv7fw3L5IDUlSnD2swNmnxpblI9fgxxfi2MpRG7uapzdcwd8n3JU3hkP4pfgVzq/cUmKrc1M8FtPwYiMzl+UvlZ82+N++Udp3NUnWYH55skiVeLnoa5usnNtxQuVEnNrPXWPljfdEcdfbhS3V1mvwK58vfDQLLFKcrREzmdyK5O5/X8NfWYIfVT7SH/vnG+t179KKTgA7b+QhXCCEahURsi2tvAJ2JEyyn8OP5nHFFzPRPxnjfIzGOB6DA0Vh1FNzVFbJXfhriTZR3+qLFJBRy/vp2pSDC9OtWTeXW/CqyllZRJXibG1WiS8R5q2PWMNfWYZf1ej/eO2Gvtim093F19dCUCYrp4X7ajR3bza4ri/ObZIkD8yPXZVtCm8W3Ud2lN0HVsbyhus34iuV7ze4rW+UtYn6GJPG8/Ea299reh18u/DevvSBTHG2NrQrHk8QeRZrMyantCNo523I13sIL2zECm2TPHvrzDwRefxS5Q/9mVOWJGuyMNy+i7fgdcLHqitHZZXcjO8Xftk2qB7xVhztBuaHtkX6mgqzO/HvTX6dl0SKs7WmhwMLv7H2+VsX4KPNKLXeEK9zqxJu/Qfl+Vvn1e3/CQPZ07JdS5KsHYdTloQ/2isr77fxUys6nVu0rXi6+MW6ekVubA5ji2Ucizd4cAPzh5tvf9fiFbPTqDvF2TqKngmFH+Kf1+Fhfy0+WDhpOLfF3kLZnjeVyJHbLM/aWjEgCheOwvcKd83K3IckWWdmMr7FTiK9403SguPhnhPzhRXHV7v4fot7R0oaRbuB+ddFn8y16SyxBP/S5KS8BFKcras4K+0edCdat3yKOyv/Vfhxc5hWCL3RAeD7ol9ZsnYr15MKzb7wLUuSZIj4II3J7CP8DKd4eEuFFGoxD30VJ1Wu7O/QqNIRlMVhVvwZkZu9VtvYhZMX85JPZg/NtSbzBdrMjVllXomGrbuvw5/YpEQ7lIH9+ctpQ3wxHhpC+g3Cky1F9ZoxgOMxcwmfO2qUV1AlycbgbOocbtiHX3SF6NhKVHnmPLVKzWIb4aj/gsLjprJgU27otJXjPtHR5TiRj722fZuX4IPdXD4nz3mKs/XhuSzujhvnIOsWPZsgfNM2m8o5c4awSmcfdih8K1ela7wyvbqEkP1sk0vOyC3MJBlWTmfpNC4Ruw9XVfYqUbSUIm3VbCN85F66A/tP5e79uW4a9bSN/MJ62UN0QnjeOp7D/6t8sRnG5UmKs3XnTEyLMugD8Oh1vCDHYW88agpnzB2CbgLHUhZypCwCWBPuxE/wtgFOnz1Ck2+TZCQyJ477p/IX/LyEufejrXkC+VikIQy8d8VramwN3zaVe6eycENHnXppTGMvEQx42jo+c+7HMf2ckac3xdlQTS6LpsanL1mP8Sl4auGJU7lgDnesz2t6Ns8R4mzzPEOrpIVTcdgAR83mrtNzTJJkY82jdS53TYko2nWFbcVWZ7KZxw0NAAAgAElEQVT650a3qIR9vTD93WQqt8/ZgDYc0ziwxlbmnusRDDivwazT0tdsvS6GZAV6mFw4xfq3LWnhrMq7KxfNXoettRlMqtH/853Wfs9/rHBH4egW3+uPyGeSJB1Eb7R1+zf8lzVr9ZMEC0UvyuMr3+iPnp7DeZ5eKyraH7cef2ZJ5eB+PpunL8XZcAi015WojFzfMaq4svJvlT/PjiT1NX0NBc9ttwTZIc/KQycBnIP/anD+rLUY2yRJNrhA6y48p4ZX1tPlVufasBS3iojWt0t0HhiyHpWH0N2IXqrHYvv1/HNXtnjW7FFgursxyW3NVTAtVihTRL7E+grgbUpsk16zL1eevoZu9NPCe+3jmJpn5CH8XTTS/UCTa07LhP8k6Wjm0JrD3w/kJ+0J8AkyVWNtntWb4/l4BSZP5a79uXN9577D6K7RCvCYIRBmCj2Za5bibNh4HksLrcKLh2icNivs3+CeqVw4Zw0E2hSmFvowPs/IgzihxUcafK8vK4GSZERxKov247TKuSXy0B6bo7JWbC08OZ9f2Xlfrp+7jjZBTboWhT/dJ0Re4PpyfuGwOZlrluJsuDidOo27sS8eNUR/djIOxNKp/GnOarbhjqSxjG/giXk2EKvD22v0dTtyNn+bk/0wk2REchqtaVyHX1YWFZ7RXoRmqs2aUdpi6rmFV09lq6lcOpX756xhJG06kwdClH3Y0EQwK/pxWs7NKc6GlTnMm8ojxLZi9xD92XHC4X/zaSHQVmr1sDdbtKN2u8pCgGU4s/CeJj+Ym/YYSTIa5ldzWLhvfPqXwi7YMQXaWj/DN28/Uw7CDXO4/OF+qYetu5hZo0BjkyF6LRfiqCa352lJcTbsTOGqwqsNbYVRF56FnffjzJWVG89l0b78oYTb9tPHsEC7B59rcHAfF+UVmSSji9PDduPKKZxSYp572hAuhscS2+OKOeE0sEpmhPfcUXh3O1gwFCzBt7v58al5HlKcbQjmMn9aVBUNtQFsF/aoPHsaf1yZj81cFkzj9BqtocbahFWFy/i7C//dF1vMSZKM3rn27inMKdEC6tkiIpRRtDWfLz/XoP+01fTp7GFnfFlUZg7l8+RWvH9WztMpzjYkz+Nv7TLjofbnaeCxhQOmcs5UblsxX2AOC6fwxxIO0k81NooD7seJhTc2OXtObGsmSTL6BdqSOVw4ldPwZGEhlM+p1bME3ygc1hc7DStlRqTIfA4vG4YxPa7Jj/NUpDjboOwfHjNVNH8dakp7AnoerprK1XMeOmENPJc/dodIebZ16/s5UrgFzWX0zs7chSQZk8zh5in8sh02200UUyUPpeJrhd7V7S708hR8STRbH+po5M1495zVCMMkxdlwTRStqXHh7Yfthum/2S50oJvmcPGK3zyT1hT+XKJkeh9Dl8TZSVyIt7f4yVFD2DQ+SZKRx1zufx5zG/xV9HrcKkflwcKs8kkc3lyNMOthWgnz2ucN0+s4tvLruVmhmeJsY/AC7hmISqLnGb7k/M3x/Gksmsb5K1ptzGXg6Zw3IQxYp4yi1eQSsUr+t8JF/en0nyQJTmdgCldUflUi+vOofG4hFq+fK8zqX0XE6hC6poUw+6r165O5Oq7Fx4e7rVSKs2SVnEKdGkmPLx3mFdyk5SucqZw3Z4UWHedQ53DR1CiXfq6R36fuNnyq0NMXOXdJkiSDF6V1LndP41ft+fHJxnbrp/txbOHIJvet7Ae+TLk3csu+KjoxDIcwa+F7le/PzbzgFGcbkzncPjXaOe1leKuIJoityx32Y85pK9nim8oVwlriucKLbSRyKd7Xzf/MSu+yJElWP/8unBqeaNdjb1EkNRaFWW83x85aRXeUD9G1gP8ofEpUZw4Xt4qo2dV5daY42+jsz1/bfciGO+drnKjOfNK+zJ3K/LkPnqjqflxXOUvkwm1j5JSdD+BUvHUpZ+Y2ZpIkayjQlk7lkgan1PCK3M7Ysdu4q/KRwjdnrSInt5eJ43hbYbbwMxsuKn4zh09fn5dlirNOYEoYxk5uC6INcX6eVOL4yxzuGPzN02KL86a21cZzsNMIGMKF+L5w+7/6jGxYniTJ2gm01mkx7/22RB7wE8fAs+xGzNicb34i3AMewkw2rbwLR2OzYX498wvv+m68riTFWUdMDHValA4Pd+7Zckp78nnGVC6fEyH9BzGX26dxevvnHtfBK8m70NfgE33xeZIkyToxl3umRReVJWJxOlo9IK/GB5t8//erWMz2sEXoMzNtmHy8HxWOm5OL6xRnncSUWDU8QjRF31BCaGdMmcpVT+Kq81b45l7c2cWplT1LZwq06/DeyneaaZORJMnQLJYX7sc5latEIdVoy0O7FP+5mN+duWphtnWJhuPv2kDC7D68rxmuAUmKs45asQ1MjQv0BTas9842OHAyNxzAFacOytU6IyaqeQfw6xpO0Lt2yPmtwrftLU1+Nzfzy5IkGUJOY9mBXNzifNGH+JFGRx7ahSL947TVCLPtS2xjvt2Ga+/3o8J35qymTVSS4myjsQc3T2IP0fNyQzYl3wzPr8w/gPNPXUHsnMai/Tm5sq3wttmY/Thb+L/CO5r8Ja+aJEmGg1NjcXr1NObiMSLFY4RrTu9pRsHXSunliYXP4vUb8HXdif5mCMckxVnn8efwPbsGb7Lh2ylNwr4DTJ7KOXNX8EI7jYX7Mrfdj/NZG+k8L8UPRa5EllonSTLszOG2dl/OTUS1+0h8xp0ktg0vWo0wexK+InZvNlRwoOL0rmiuvjSvthRnHcs0bi+RC/acjfDfTyjsXdhmGn+aw4LB35zLor2iH2d3+/WN24Cv7X58o4sP9sVKK0mSZEMJtHsP4A+t2FV4hpHTi3gZftvi3f2RQ/cQeij7s2flf4Xf5obctVmIQ/u4IK+yFGedPgmYFtGz19k4vS672sLrUe12Tw/qr3YGA/tGmH9x2XAN0++u9BcO68uchCRJNgKnsmwOp04N+6Gni2rGTmYAP668e/Yq7CmOoDHA/pVvG752TKvj7GXMOD3zhlOcjQTalZvbGL6msmvCU/C0KVw0N2w+/sHc6E13brth+n6Gt5pnHmYUjmuusNWaJEmyoZkaUZ6/4pk6t5PK/fhMYWaT21f2A9PpGuAVhS+KYq8NTcV7ZnNZXlUpzkYEc1k2hQWFgzby6uwxJaw2zp3KzYP9Z+aybBoXVK4qkaMwHBG0e/DewrdTmCVJ0gm0fSmvKbGDsLfOquQcEGJsJo5dVZ/MHsYVXlf4sjDd3Rj8Fp+Zs4INUg+NqfGMSVKcdR7P57ZWRK+eshFv/NKeeF6My/fh6tOjWnL5JNWaGivIv5WI8g2lkLy+8K7CT/oG/Z9JkiSdINDmcOu0SLR/kvCBbGzEl7QU1+JEUZH5qzmraBzeE0Vd7yl8BptvpNe7EEfg3MGL/h66CwcUtprGLXPyUktx1mmcGluHdxVeZeMnn26O5xfu3ZeLBucHzKU+jysaEZp+nqHxaLuq8N4uTpqVwixJks4VafOm8YfKliUW0hv6+XcjfonjhNj6anOFNJTBTGezBocWpts4Oc3LOavyyf4VInvTQuR+Dy8rXDCHG/IqS3HWcezFDd1RGbRHB7ycyYX9GhEt+/PgVdnp1H1DUJ2J/T3Qg61Y+6jf9ZU3dXHqkSnMkiTpfIE2/3mc2ogI0D7D+AwcaB83Vo5vO/g3Kz+ezJmHr5B6shJhtnlX5Je9TVgnbSwW4vP9nDz4izNi3D6KfxbN56dM4dy52TVgyCg5BENHD88sUcS5SYe8pFbhC5UjmitYWhwS536rRuRhTBEfd8KWYstzdYUDFX/Dvw1w7lHZXy1JkpE1V3fjHYUjRUHXUHCv6Bn898qphd8McF6DRYXaXIN58jBKi0e3Qpi92MbdfoW/Ndh31grPj5k8rsWfsfWgL1+ItzU4d1Y+E1KcdRIzGF/5Unu10ykM4KeY0eTKh5mwdm7w5Mru2A1PwC4ifD2YCwrvGsfZn8ibMEmSEUhvCLRX4xjhV7ku/F20p7tYFF39pcVlR62j3URveJcd014wd8Lz+f1NvrCSZ8XnC+9ZiXg8vfK2/li8JynOOmY1VkrcVMeL9kmdJNDOqbyjn0vW5BcOY8Iytqps3WDnGpPG87Bp5f0TOf/jKcySJBnBHExXd1gMfX0li9AVqe259BL8vkTXqKtx21LuPHrdBVkZh2W8qnJUe1HcCVyMA1e09+iNzgs/X814nYZ/bXJTXmEpzjpJoG1WIuHzDR02vhXXVd5SmNtcRXXQyjiUMhA5Bt0oS1l0TAqzJElGyaK6iye1txKfJVI6WqGXLBKJ8Bfhdy1+1+CGwrIulh2xDvNg2xpjssgN3qOGDdNBoh/opA4amvcUvto3SHQeGka4H4+3scquMwM4qfC2Pm7LKyzFWSfd7C8rfMuD9+M7hZswCyc1o5w7SZJkzNMbgukgPKmyuMGtuGIJlxwTRrHrzHQ26+Lx4tgTz20fj+zQ4Tgfr2mu0Eaql8fiRx6+ZeEyfBMHN8MDM0lxtvFpbwn+DC/q0DG+X3ienV85uTAnQ9BJkiRDx6HsNMC+oip0T5HXtrPOKRhbFUtEdemRzUFRsxk0Kq8X7aO61vDvfOk+Pvb5tdipSVKcDfcq7AX4leFtl7S+DIhS6UW4uHJSg9/UMJVdvIwlR2UftSRJklXSQ1dhQmFija3Jf6ocVKKoamL76B5Bb+lqvKzJpYO/OIPJlRPw/LX4W4sKn1zAJz6Tz5IUZx0izrpFleQrRthLr7gcZ1TOLFxWublwS5P5eWaTJBnrHMrkFjvUaKe0J6aKgqlHj/C31ip8ro8PrfiNmezZiu3OtfWGu0/0XP5KX7b2S3G2sTkkKjf3L+EIPXkEv5V57ZXUlWIldX7lL/2Zr5YkyRhiJju2wmj8mcJsfFdhNbT5KHqbt1X27uealQQcHiO64Dy1/b4fb817fd5Wovfy8dlJJsXZRqc32iN9Ba8dJW9pqYiezcf1wnD3jy3+1MWCFgOV1uys5EySZITSQ6PQNcD4LvYsHFg5cJAQ2xTjR+nbbxYO61vFFmRv+JpNLmxSY7t2y/b27e6VJxSeUEO0bdnWFw0PdJ+5ufLafs7KqyzFWScItFcLD50tR+Hbq+1jXuGcVrhinyWMGe9Zxj1Hh6BLkiTpWA5hk8LWJaonnyHE2DRsv4LAGM3ciOc319JAdialRmcDjfbnNXw+H10e2Pp9ZIMtWtyymE9/OgsEUpx1gDjbAj8WBQJjZbyvFdWglxQuqfytcHlftDZJkiTpBEG2Y4nI2B54Ep4mGqJvMkaH5NjKjP4oEktSnI1+ZvC6yv+IMPBYY4Hoy3ZH5bLC6Q3m3stfN2OgL7dAkyQZRnoo7dDX+AGe1mD/Ggn8j8UjRG/N7jE+TDcU3tgXqSpJirOxwQcZN5k/Cs+bsUxL5DIsFSH0uYXf4k+VewsLlrLw6BRsSZKsIx+gTGZSYZNWbFXu0+CgGm2algux7nz+PWhe/vFk3jgj7S5SnI01enmpMKYdl6PxEBbhApyLv+CqwrWbc930rOxJkuRheDONndip8NjKboWni9yx5e2YklVzH17c5PQcis6hO4dggy1N5jY4GS/O0XgIE0Vj9b1E1OzWyk3zuGZGCLYzx/HnT6TPWpIkbWay6QDPLuHA/yzhMbZjiQT0DDysOb+elBWUHUdewEPIDMbVsM24psmZK0wkpRXf+6axm3C6tlRhWrgY8yvnFn7f4o+NsPJYXFnSn6H4JBm1HEyjO6wrJrTYvu0feRD2xmYiMjY+n2frxMIGU2ZxXg5FirNRS280Oj8bZxTe1xfh4sHibfvK/+KAHPv15kohgM8UlaE3F27p494cmiQZ2UxnQlfYWOxY2aUdHdtXVFZ25QgNGd/Ge7P7S4qz0S7O/kXklS3Aa/B/zRWS23t5Jz4to2dDyXxchasLl1bOL5zXF19LkmRkzJ9bFZ5eY4vyKcL0dRfhPZYMPXfi35bwm09mEVaKs9HMDE6oD/TSPKdwQB/3D/6ZQyNPYo5IWE2GnmUe6GJwe40o5sktTu9iXmVggNZRORklyUbhUBotuiqNyo4NXlB5kWgLtIXYqpyYIzWsVPyq8KbcbUhxNtqF2RMqZwxa5Q1UPtLPZ1fys2+sfEuG5zfUJFSxoHB25bTK6YUbK3c1uLsv3aqTZFjpZRK2rmzd4Mk1Ujv2F61+uowNB/5O4j68o8kPcyg6k6zWHDoF8NL2im85XYV3z+CXfdE4/B8M8ItGVMfsmyO3QRYgBZvV6NLwgvYT4Np294K/zuDyyiVdXHYkd+eQJcn60xNCbI/Kk7Xd9wt71tHZym6kcUGLX+QwdPaDKxmaVeF38coVxnQJ+jfhyJmDKgpnRlj/1fheBwnku3Apnm3sVT7dL/Iv7sSFmNuOsF3VYKCBWbkNmiSrmv9KwSK6J7FHi/0q0wpPED0WtzF2tylrBz5rK/65yS/z6k1xNtonp6eJ8PBuK/n2Jfh/zagoHLyq3KlEpcyBHfI27qi8rMQ18b7269qmLdTGEsu7GCwrXFujmfvvK+djnij2WNhMsZaMUQ6lDDCxsmmJHLFni7yxAws7iG3Kse7AvxA343ciUvi6Dnptf2iLs6zQTHE2qoVZA28Q/mXdqxjkw9C/Ym5TL+/BMTqjcrOFXzV46yzu7GV3/D+RqPscmR93n4iqnYcLCldVru7m70dkF4NkDNATBq+PL+xSo6Dp2eLj5Bydf7AIf8IJLb7fiFSXX2LXDnl9iytvwvH9OW+lOBvNzGBy5fN4y2p+7LbCvn3hzTX4d7etsbLqlMrNxTi2cnh/TDJ6eRym4O0iRy6LGCKydpvoD3pd4bxW+K2d25+VT8ko4dAwfX1qi30LzxXJ+zt5IDqWPEDF7/GNwpw+bmz7Wn4FLxOL+E7gj5U39kdUL0lxNnrpjVYhfxIfV8fXm7xjJb//LiHuOiX3bAk+2OJrs9t5cj00GrE63rtyiGizNKmDJpyNPSn/o4tBu8jglMpvC1cWlgyweHZ2MUg6lEPi/h5Xw2l/qxL394Ht45EecODP+/2h9/5CkbrSj98X5vfR6o3dkJk4uIOE7P2Y3uQLeepSnI16ZvDayo/W4EfvKry0b4UeZtOZ3BUNZ5/WQW/r3sp/bMLPD10ht+q/GDeJFxf+XbRP2TGvgpXSwjU4s0ZU7VLc1ODm9BVKNjaH0b2U7dp9KB8vImP7iih+Ngp/eO7EnwrfXMYvjmrvNAwSu2/Bl3RWzu6FLV40O6NmKc7GAr2c4AHj2dUxgG8X3tM36EZu99x8vWjr1Enn42q8tcmpK/vmdCZ1hTh7qUh2fVReDavlvrZYuwpX4KIGf57FZTk0yYbgI0yYGNYWe+GZeKKoqNwpR2eNWSDMxn9Q+OPKkup7I6frM6KgqmMWi4WP9UV3miTF2eimh51LVPFtvYa/cmPh9X3MXeFm3gHfx34d9PYqzq28oT/ExKrGYGLl0Q3eLLZtt5H5KGsi1Be0BdtNOK3w+wHObsTXB7oZOCIrQpN14BBKI+7BrsKOrQcahT9DVA5uJrbdcv5f8/t1Hn5Y+TKubXBf3wr3Z7uK9SUiYvboDnsPVxae08c9eTpTnI0FcfaeEiuRtdkG+AIObkauAvgYZVz03DxW5/kBnYo3N7n+Ycaige1LVKD+S3tFni1Y1lwI17ZgO7st1k6v7S4GlbtnZxeDZDXMYHyLbUq48O9amCZc+HfHOOnAvy4sEfPe/+EL3Vy+usrs3ohIfsvKLZU29gTzXnw5KzRTnI16Ph45G8eLSpy1Gce7C8/v4y8r3Ng74eeiPL3TOLHw7r6HEWiDhNrjSozLK0Wl57i8YtaJa4U/3l9xOS5ucensXP0mIcg2a7vv7yFyVvdsf75djs56L5b+VPlZ5YTZkS+6WnqjUfv/iO3iTuPCysv713D+TlKcjWjaN+NPrZt/zQ8avGFF1/kZfKgyW+cZvw7gx/hgMywkHpZ3U7Zmu3Z+y3tF5Vcjr7l15n7RxWF5F4M5rTDIvbrQalCzi8Gonm+K2Kp8vOhJub+Iim0j0irSa2z9WYI5lS8Wzh3gxqPWoMq6N54B39SZ7fgGcGgXxxyZ0fcUZ2Nk1fqWyheFpcTaMr9duXna4C9+nM2Wcg6e1KFv+7hC79rkLfREa5cJlecWPoJ92g+ULMtfd5Z3MRgQXmunFE5ucW5hXmX+fBZ+PsXaSBZjE0Ru2OaV3do5Ywe054au9pH30NCIl7vxZ3ymFXPyotlreO/0Rm7Z53WWl9lgLiu8to+L81SnOBv1zGRyi0+JPLF1fbj+bBlvOnpQ5eYg0fffHfz2P1X5RP86tP54H12bx4r/de2V/655NQ0p83GB6GJwcY3m7lcu5rpPpc/aSFjwbdPi8Q0eXyN5/9lim2yrHJ1h4Sr8tvLD/lVUpT/M+dq+8lnRSaUTWYYvNPlQnuoUZ2NlVftonCjyO9aVW0Wi/W9XEH6PbPELsR3YiSzCpweYddSgooa14TDGDbB7u5fn22ps1SRDS8UdIrJ2bYkcmjPx52ZUiSYbmR66G3Ef7Nu+33cVldvb64yWbqOVi4WT/ykD/HV2bGeuFYewTSPc/1/Vwc/R2wv79IUITVKcjW4Oi3LpA2q06lhfvt7iw7MHPSx7Y7viLThO53QNWJGFOAKfa0Yu1LqK3PElSvtfXXk/HisqPPO6HHqhtlR0MVjQfjj9ocH/Va6rIbgXNzMnZVg4nLIkHPjHN9ii8uwWBzbYr8Y1P15sY+Y25fBd/wsL11Q+3+CnlXv61vF6741I5rGip3LHFjsVjhnH9E9kekOKs7FAWzx9Gh8Ygj93N17UjDyzwf/HY/EDnRs9gyWFQ7o47ogVtmbXUfRutYzXiC3P3MrZcBPADZUzcFbhkhY3Nrgp/ZDWj49SJkTv3B1KbFM+Tbjw75PX9gbldtFe70dd/PjI9VhMwowQ10eIIqdO9nO8tcGUWSv0c05SnI1aDmWTgeil9tgh+pPfxX80V8gJ6o2ebIfrbK+w+zGrxafWZWtgZRzClo3waHqtsOLIKrQNxwJcJ7pDXCzsXv7cjH8nD8Msxi9gzxK5Ys8Q2/WPa88VaSezYbkJP6r8psHZQ7HYOIIJizga7x4B5/MofLwZ0fIkxdnoZwYHVX49hDfnArywGdGLwSLwEQPxtV06fEjuxScqX+ofoongI5TxbFbCyPZ9bZG2uew8sCFZ1r425wsz3NMa/KFGFOK+0q4W7RuDWyaHUZaG+36XqDyeWjmoPFCJvKmo4s5tyg1HbV+zN+MrDX40wI3965gXu5JF44Qu+msIs043174Ob1jxmZKkOBvV9EZrjncO4cRbccI4Xnv4CjkQvXxQ5DZ0+nlagA81+NasIYqgLedFlGdG4cW78UJRjDE+r8SN8vBbLsb/JKrbzsJNhTu7uOuIyGsblUyn0R3bkY/AY2uYKx8gImQTcz7dqMwTRrHfG+C7De7pH8JFQ28UZ3wYPTq/UKOF7wzwn0cN8VycpDjrWA5my27mCCfuoeSOwhv7Vqjc7I1V+CnD8P8Nl0Cb2eALs4YpsXwGu1X+WXgKTcnrtyO4UWyBXrr84wCXHRWGuSOankjg3x1Pazvx7y7Mpx+Xp70juAMnlThOnhX5ZUPKh+meGCkmPSIi2uncU/iXvnWwBklSnI1YenkRvt1ePQ91VOLbDd43a5B/WE9snbwFXxshQ3Q3DsVXhqvy72C6usNuYB9RlLGXqGrNa7kzBPrduLNwQY0HxJwFXL0ptVKbHboN2kujQans0G4Uvj+eLhZI2whD2GTjUys3lnDkP77FVbOHyRrmo3SP50iRWrHpCBmfn+J1zfQ1THE2xsTZke0V1HDkPt2OVzY4Y3Abnt5Ypf9AVHqNBO7Bhwrf7xvGZNQZNArja2wtvb/yHLHtlHlpncHyLgZLRY/QP+CPLS5oxNbo/OYQ5QOtCz2Ma0Rvys1EbuMLCs+vEaUeJx34O4372tfRt1qxdXnncFq/tLcyP9Y+RkpR0sLKfv2RdpCkOBszwuyR+JaIng0X3yi8p29QrsAHKJOZXviE8EIaCczHzHF8+fANUC10cOQDTREVnvsbGdvAY5V7cX77uEi7i0FfPHiHlXZnj8dWnlh4Kp4lbFt2ytPSsdwtWir9rHJC/waweGkLs4Px0REkzBT+F2/rywrNFGdjTJw9U3QF2G4Y/5sFOKC5wsqnh50Lv8NuI2mlW/nkAMccvYEiJIdG54FdSlTPvU1YGmT0o3NpiYjxTbihRNup0wc4e6i2qg7hkQ32rUwr4TW2PXbEFjn8Hc3tYsfgJ4WL+kKkDTszmFzDLuOtOr8qczD34NWFP/al6WyKs7HCTLpq9LzcELlfP8OrV8zN6aVXmB+OpG27+zGr8Pm+dejFuZ7na3Irqjs/UKKibpMUah3N8i4GS8S1ciZOrtHU/WYRDVi8qlyantiKnFCZ1E7iP6h97NJ+yE7QuR03kjj/i8S5/lrle4XbmkNgcL0WwmzbyjH4VyNnl2I5P2nwn7M2kIhNUpx1BDOYVPm+qBTcECug1zRXaA/VnjjONvL6UC7DrAbHzootrQ3KdMZ38Xy8WRQPZKXdyHtoXyZsO87G5aJC9KYSInwnPEpsU+7TPnbIYRtR3Cmipj/D95sboTtFe3fiSPzbCFzEzcM7m/xwxW/MptwX98gdfRtQ6CYpzjYIh/CoRnQF2HwD/Hct/OD/s3feYXKVZR++3zO7qSQh9N5DFVERUFKoCoKAdJAmCEiVnuzMbgJJdmY2oYMiSJHeRKlSRBGyUUFQKVL9aCEQWnrb7O6c9/vjmUhYtkw5bc557uvK9X2S7M7MmXPe9/c+5fek4KQVR42kwRg4BfFZqzU6gF9ZuCgf0snuXKgfIKnp71k40og1glJ7zEPq095DImEbF//ooPDaYxbSXfgHV1LZoawNadjWSKCwUawAACAASURBVCpz7xq8htbCdBf2mdJNdiIjB5ergT8B1+Q05aniLE40wkkWfh3gS34CHJmDv3R50DYsni6/WYOXsR14EDg7JzVGoZCRDs9VDOyODFv/FpIS02dBUXwWEkgk/VMLNyJdlx9mq5x3WSnng1MP3zXwC6QesRbXgA7g6Bzc282+VQecbsXIfB7wQ50aUDuo7UAJjIYswY5RWglYNgaeal3BdX0kLDbyd7vW4HeXQpz+txoFL0yXVEbgtEJhOixqhVdGwV1GjFNXRiIvK6lIUxRfmIOkLi924FQLT+RhdmtIUyXGQn0/MbO+Htiyhp/7f7RB+u/d1GKOhA0N3IBkfAYAI0bCA9M1vaniLA40wXoWJhC8CeEI4NFWCf0DMB3c0dLF9H28N8IN7HMZ2Gk0vNkKM8J8I9OhoxVe+x7c3QkvFE+XqwOr6J2vKJ7wAXC3gStSkMvC9GmwbHqIbygjTSOnAZdQ2/WJBeCcfvDqtG7+cox8vl2K/9MAaxhY8B34x9+kfEZRcVa7jIL9gIMIfp5jf2Boq9Rk/I9WmDNa7AB2ruHvbx1glzHw3zHwbmvIdRB/AbcV3tsFnrHwMPB/wEaIM7xG0hSlPCzwNtBi5GB7bw5enhaBiE0jrAbkkFmZtW6n8jRwRbb7WrMxyLSWFX3a6oFNHfjLdCmdUSKMWgv0gZGbfFBIrz28O3HgwK+o7YfLAJtauNPC4ZmI+Ak1Q1sO/ovUoOyMeB09i6Rk9KSpKL0LsjlIR+2JRiZ2XJaF13Mh1ZStSBZMBjazMvbpNGrIXLYH2oB7F8GnXf9ivBzsTyoeLruyCXBaAwzUWzbaaOSsFzLSgnwaUogfNEuBU1u7cU6fBotGy3f3/Rq/xAOQDikzCv4zPcRxPivSCrYV2lrhpd3gNgsvI6fTQdRuOllR/GIm8KCBFgfGZ+H54vMTic7ANKQ6Za28ARhNPKLhLwOTLxEbjS8xSj7jBfTgLmBgGwN/bYV39NaNLho5651NCbYRYEUesFIHRQ8P2N3A6zG4xoOBtIFrx0dwjM4kaM/CHwpwFjIe6kxk9JBG0pSk8yoy5ugAA6dm4cHmiBWbN0I/Iw0INwLbxuS6txv4bU7q+bp+3sEGjqL3WroBwOR0MNZQSoWoY3YPTIBUAb5m/R3X1BNzgduWyTinbnHhEyOdRpfG4CTYHziwAFukZezSv/I9OMGHxRRxqH8tA285Ek3bzYWfGRiJRNQ0Cq3EHRdZk/7PwlUGHrEwPx9Sx2VvjAfTBsOKzVynUXuO/73xcaqHaTVWpmMcVcLv+Lojqc9L9baOJlrs3AMZGIKEwQ8LYQF80IXjW7oJWXc5JW1pxd9m2xhd+g+ATCf8dmrEB/g2QZ2FMRaORpzpR6hIU2LKu8hIrbsXw2NXil9ZJGkA48B2FrIGfhC3fc7COXm4out/vwDq6+E+YP8Sf9XLwGE5eFNv7+ihac2eFdJKfNGGHCSLgFv6EmYAbfJQPYQYvMaF9YGr6mDiBcHbl5RFM3Rm4akCnGjhcOAcYDrqwq3EhxeBNHB4HRyfg4ejLMyKEYfDgDsM7BPDAMTrBn7b3V/US/3unmX8rq8BR6bjFVWMDRo564FGOMDCAyG89J+XwN5XlLgANsEGrgiC9WP2FSxDBl+fkYL3m2tA8KShzsAwA1934QwjRcg6cF2psXMp7Yg581XAkwZmZyOYuuzKBBjcKULyNKTTPY6MtXBF11RyAwx24PfA98rZ1y185sDorEbPIoemYHpgNDQA3whakFg47RLx2SqJaTB/tKRgd4vZV1CHGNbuDLz1XZj514gLtOnil7a0Fd4bJf50Txr5HAORKKDWeCpRFmUzkRmMY4HGHLzYKtM0It/8koYtrKT6TqT2bTJ64nWgJb+CMTnAODApOAD4GWVaZBi5VoNGi+G5NjlFbANUutAEK7nlhYe94glHomCU+YBdb+FYpLs0ThhgRwu31cElDXB9S0TsNvqiRRoa/gH8owlGuFL7sh+SKq/Xp0yJkCj7N1Lc/8cOeO6SiDXj9EUxy5EGdorx99QBPFGA17r+RUqihD+m8mjhocAdwFP6OEQHjZx1w2iJQh0f8Ca6FBjrwJvTyvzBMfKzFhEAcWQYMNrARmPEQ2lhLb35aTBnJDxv4AngcSTNuTEydUJLC5SgsYBroNVAxsLF9fBoFt7/Ww3VSzbBoFHi5zUZmY8ZZ+YAZ7d0MR8fL+vHLkhXaqX7eT9gjVHw4PR41S+rOIuhODsd6b4LslbocQvX5nqxz+iJVrCjYK6Rh3TNmH4t/ZA0806j4KVd4bNpNRSGny7GtotHwfud8HAKHjLy/lcrHgL66ZOn+EwH8DHwhIFTgakGXs7B/GdqLKWVgQ0t5IGzqf0xTH1i4NacTDfoejAfZGWiyWbV/XpWM/DmLvDaNH1OIoGmNb/60A9BwuNBXpuFwO/yMtS8UuXydocUhG4Z443eAKOMWI1c1AR3NUdgNEw55CUy0YkUXJ/ZAFlHWt/3QTzTVtOnUPFBlL0A/MnAw1l4vlY/yPmQqoc9kEjRyIR8f7Ndac74ClayJV64CgwHjnfhz8BsfWTCR7vIvso2BO9U/5qF+6v5BROhYOFO4MMEfEfrAZe7cPG4GhczLfBxDn6NmO8eKPqNmfoYKh7QhkwaOQI4IgUX1rIwy8CgfnCOkQjSyAR9j7cYGST/lUCCFfser/bxPS3skdZSi8hEIpQv3/AnAL8kuGHcHcDJObjZo/efBcaRjJR1AXjBwskWXm2psULmHr6/fgUYkoJ9LZxs4OtIR5UepJRS15N5RrourwZe7oClU2u4E69B9qk1DbQYKXxPUkPNx8D+uW5EdUaawK7Cw7SuhZcdGJWtsbreOKJpzS/f7AMQt/0BAb7sm664OnuCA1e7cAzx8z3rjhSwk4GHgcZx8LspNdLN2RM5KcidDdyakekPeyKmmjugEwiUnmkDXgKesnB7rpuuvhoVZnVGmoFagB0T9p26wB9MN99lI6xmZV3wtN7OwDZWAhRX6iMV/uamFBktKbKzgA2DXH+MdCB6wkhYUgyH7pWgr26YgT0cWHU0PNcaseHLldIKna3w1l7wUCc8DbyBmNpuiEa9FWEB8DsrUaXLc/D76VXUrkaJCdDfwrlGUv1bJfC7/RyYnJPn/n+MB8dK3d35eB9FdID1R8Ej00uYUqP4hy7wK5CRBeBZYGhAL/ki8KMcvO/x59gEGeu0TcK+wnYrlhWnu/BKS8xMFYsTCIYaMdw8AykGHoJGwJNGB7DAwL0WrrPwznxYdE1MxoYVa57WNRK9+QFlGqvGBAs8vhD2u7pLuUYjDLbS/PV9n157GTDxE2i5UUfRhYYu6kWawFjY3gYnzArFE+9HXv9iBz5wpTlgYsK+435GCoUfNJAeBw/UeppzRfLS5TkHGUD99ybYopjC3gcxIB6qT3KsmQ/8F0nj32Thw1zMNs8mqCtIGnMK8O0EBxDaLFxydfd1tLshY5r8oj9w6JpSbvNffezCQSNnRTKS4v0NstkFwdvAITmJnnlOI2xV7ADdIqFf6QIL1xu4JCdFtXG+d9cAdi+KtO8TX6+7pPI58KiFxx14JuvDgS4KpGElIx6Tp5OMmtneeKgODpnUZYZmcX7ok4gPp69YON/ClS0RH3QfV7QD7IsL0Q/J4wdBAfhLPyng9YWszGF7gOQ+WEMN/By4KwPbj4/xQSQHn+bgbgNnFsVZI/Bu8T7TtERtsnzW5WQLu1s4Iw93xViYbWrgVuBCFWa0AZe1d7N2d8qopW2DeBMGzq6Tg58SAho5+2JxGGngLwTTpj3PwJ5Z+KefL9IE67nwHLBOwr/eGcB5LjzaUmOmtRXey6kUDHRllufxwHbAqmgDUNSxwDykBvUuK/Y6s/MxsIjpiQbo78Bo4HKkRlb3JPgdYq80p8t6vqoLd+FvSrMr+Rxk9CsJHl2si4yBE4FdA1ocHsr14PjsJdNgwSjob4KLCEaVYYgL/+BR8Fbcu5Cmg50G7a3wn5ESUXsWsedIISdhfe6jeYB4yMClKWjKwl+mw+LpMY58ZmB4Mdp7JbCBCjNAum+ndvU1mwBOQcoWTkdqwoJikzHwSKtODQgcbQj4gt0CWhw6rJwSg+J24DiSW3u2nAFG3MW/nYELDPwzm4CUX4vUrDxzFrQOhvWNNL38GNiXYP38lK9ikZrTmw1MM/Df5gpm69YaE8G0S01sDtg7YLER9fvhZQee6PoXndKV/RPk/wbJGhZOPgcuuFxLJAJFa87kBDcCqXMIQpw96kg9WCCk4GMD1yFdi0l/uFLIHLqHLRzekCBxciW4OXjfkTrEYw1sX4xYzCBGHa01QCcwF5lheGDxUHhNFl5MgjDLQP92+KGFR5G0uwozYSmyL+Sb5f6Iyn5dD+wzMKA6N+XLm1XiGS05/EMCiCS0ATkD/2oNSChNA3cMvIJ0hw5GjHaTHDExwErFjWHoaHhtuqQSEsE0sK3Q0QqftcLjO8M9KZiFRNFXIZmeUkGJsleReqLMlZB7Ct5ohWWtMfPj64kmWNPCBcClwOpoGhMksv08cGUdnNkM/+nuH42Rf+ciqc2gx1etbuDDXeC5aTGuf4ziRpVozgPTX8LrYwM4mTwHHJqDD8L4rI2y+e5iZcj2XmhauwC0WsjkxTsssWRguIUdDfwIOAjt0vLyQPZHxDT0H3Xw5qSEiLEu99e3gWbE8qVebwssMB2xb3qqFCPyNKxt4G7RaoHzPrCL14bpSs8kPnK2K6xiRKz4PR5kGXBzTpz7Q6EVlo6Bt5C03t+ADQ2sVRSlSRTqTvEa7DsaFu4KryT1ZNgKbdPh7THSsfwC0kG3si6RVfHnYn3fDQZeyMFnzySstOA86Le71Lz+GviG7jksA94EzrGQs/BsXjp0+2Q6LBojUf9dQxC4KxtYPFIaVZQASHxDgJHw+ogAXuozA3eE/XmzcmpfADzaJEOSD7ZwEvBNkukwb4C1gSsKsFVG5hPOSOrzUIBljszuTLr9ihfMyvtslxNl0rCBERFyMjITNsksQVKWt9bDzRMrrC904Q4DpxDCaD4LJxu4AXhPH23/SXzkbLTc5D8PQKjenoPbovTZp8lg7Vd2hYesRNT6IRtzEkV7PfAd4Ouj4YPWhC5Ao2EtA1erOPOENUfJIPK5SfvgGdjTwCXAkSQ7jWmRaPQlwMQc/OWZLq7/5TAd2kZL/eJ+IXyW/kZqVv+oj7aKM19pks+/L+KB5SeLgZ9G1StmGixthVdGwx+N1F6tD6yHRJWSlu7cBNhtDHTsAv+ZlqAJC40yX3asERdypXoGGqhrhccStKYOGgmnG2hB0phJpQOxSTkbuHwlaL0IFnnxi0fBewZ+iGR9gsQBVh4FT0+Hz/Tx9v9iJxYX6i3sHMBL3UcNFFLmYLaBPyAjgI5ChNqCBN4aG1i4zIWWRjHHTMoR/ztFU1DFu8PvDzMSkY09adjQhcsNTCW5I5iWAC9aOM0V2577cvBxxsNaQyMm2teG9Pk2N7Bvo2bdAlk8EstIOdnm8LfweQkwwcKb5RRSjoP+o8D9a8DXZBrQKunOV3eB31p4B7FXWJdkpSdSwE7ATmPg3T1gxtPxdmtfBUlnbo12cXvJykDbGHimtYp0VpS5AOp2hb2K6fADErqvdAJPA1daaMjD9OliWeM5reCOlijcXshzGyQOMkbqkenJPLgHeqGTrEw3wP/IyN8MvJgvY2PPyWzEM1IwPMzr0wwLc3CblW6ro5DaiaTZAOxs4ZZ2OC0TU8PMsbKZHoG06Ksw856jLWyfjuG1HQcD62EccBMJiRB2oYBYYvwYOCYH1+Th8wD2rneK63EYfMvAD9JqYq/izC8sfNfna9AGPJ6Fj0v9gUYwC2WT3DcqJ9A8fAo8iDh7Hw78A4kIJsUWYH3EOPOacbBmJmabbB1siqQz1YDWH1a20GzEBDoWNIGTgY1ScCdwIWLJk6CtgyXAy8BxDuxr4Hc5+CioNzBZ9pYnCKnZxMC5jth6KCrOfGGkz7//Q1Omr5mF4Q6cX3zo2qJyoXIy/mdJXurn9gTOKp7cFifkXukHnFAcf7R7XGouLpRU9XnAlroc+rqZjQJOjcNnOQ/qXWmiegQxLU5SuUMb8AxwXgpG5uCOZliQDSGj4Mj7+DCk6zCi6OGnqDjzlisl+rGjjy/hWngyC/8t8+eOtjKi429EdOZhTtKdNxQfzhOBP5EQ81YjqZubXbjgohikOTtkcz0mAtd1Bv76y9nixhpWWt4BTs3ITNOaZSwM7Q+TEVPZbUgOLmIqfIKFH+fg2skedV9WSjN8bmVGaxj3dAo4vhGGqYzy7wInkm/CZsXONL9SDW3AydMlJVgSTbCpldoNa+BXOfEeiyzTYfEoeM1IyvMFxIZideI/cWCogZEF+MYYeG4kzK9F1+w0rGfgOsQ2JUxed+BAK6mi3X16jaVGxgcNQZpbwrg/hwH1o+GpVmivMVHm7AJbO3ALcBjJMKy2wDILrxg4y8LUAvxzCiyMyhscI0X5x4a0lw8G3mztYR6oUv1pLqlsh78DwB828Eap/3g81Bcgjcw0fN+tERPUvKQ75+fgfitjRU4D/krIp8oAGIgIivsd2OvCGkvtNMAAIx5MW4X8VmZZOL0ArwHv+vg68y08a+T+/CCkz+oAh1jYvaGG1t4GGJiSeav3F8Vzf+LPYgt/t3Bmp6Qv78vDnKkRa4hqkwkUYe0VKwP7Z+TAo6g48wYDX/dRnLUD19syUn0F2KVoLJgC3rc1OGA2D0tycKOBgw2cgThJd8T8VvoGcEsHNKaDb2uviAwYR2ZnHku4onIRkKuH6XnZ9BYhswd92WwNzMnCv5DuwrAOD0MNXGhqZLB8BtZxpJnhRoIZcxc2BeAJC6db+FEebrg4ouUlxRNiJyHOawb2QOx3FBVn1XOefO4RPm5M0w28Uqp9RlrSHUcDaxbFzCstkuKpSbLw6Ty41cLRRk7cfyfeNWlrAA0GbkvDVudFPKXrwDADkwjeYXxFXODBAtww6QsBvwT/7vultjhg2spmdgPhRUG+aaTDMbKMl27MbwK3I+UfcU9jdiBd6IcAx+bhlpYacMG3cg+HOU5pDQOHNErDlKLirDr6y6a0Dv5sop0GHulf4oPdIO9hW+Dg5ZuIgedq/Rr/EmwePnPgDx2wh5XGgeeJb3dnf2AfAw/1h30yEbWlOB9SLmSsGOyGyX+A86Z8uSN5Cf5FKZa6RXGWhyVWDFOfJxw7GAMckQ5nPmKfZGCIK5Y5jwC7Ee9uzEXA8wZOrJOyjAdzZdQJh01O7t93Ca9rEwvHFcI96Kk4ixFr4p8vz3sW/jyhxFO5C/VG0izLPWMWd8ZAnC1nMtiLYWkebgZ+YOBcpMOoPab31mbAPUBTGtaO2pvrB3sDJxNudO9T4By+ugkuwz/7mCX9ZOwNRYH2DjCR8IaSDzNwQTr8Zowv0QgbATkrz+s6Md4D2oEnDJzlwPeycOskWJqrTe/GeYjnWlisnhKTckXFWdWsVRRoXuMCzy4to3ulXnL2e67wn16fUoZpbS2Rg9lZ+LUV64ZjELuQOE4cGAxcYODWRtiuKSJpzgxsCIwl3BTVMuBKF6Z33QiN/J0fNWfWwLxJXV6vIJtzPqTrYIDvGjguHYEC+wYwaRht4S7gFOKbpupE/BkPB36ShZuaVxDttYiV7tHXQ34Px41TU1oVZ9UwQRbFdfFnnuZS4JbLSxQcp0HKSj3Hiovzk3H/DvIwy8B9Bfi+Ea+0fxLhotsKqUfSuU9YOCrjb2dwKcKsP1LXOIrwxKIFnknBdS3dRE5dEWZ+RFRdt5uROlPkOb0R+F1I16POwHkGvhayMBvswKlFS5ydgLqYPYsWKad4EXH039+Fh3IxOQTnYZmBNwm3+Wr9VETT9CrOaoSCbFJb+PTrX1pUxryzlaXGYfsVNkuLGLrGniy4U2BxFu6xEjk8v3iiXRKjj2mANa0YduYz/s9x7Y2dkEkAYT7z7xkYNxlm9/D3fqU1LT28ZlbSmjnKN4v26o0NB6Zm/DksliLat3DgGuBy5L3EzZ+wrbiu/LxoiXFnMyxqiV/EfgbhpegBVrLwo8aQD6Eqzmr7CNUPn1rCLVx1VYldicWb+CBgtRUfMDekTSLkk9+8HFxj4MdG6qGmEa/FcyDwc+D2RhHkgTIeVgUuLm6+oW2SBsZlJXrRk5L1K63pml6GUXfKe7osxIPBmOL9EbQwOxSZjXkM8UtjdgKPIXYxR+fgpqnxOvh13XtmIYa0oR1EDexopblNUXFWUSjDL3H2qpFZZ6U+TBshG/WK38E/nfgWyvdJFj42UvNyAJKCexm5HjYmz9ooC3dm4OcNAXVzngyOC+OBb4W7d3CVhT/08Wz6VnNGz9E6poLbDjcV5+CGca/VAT9JS8rZb0Fm0jA8I7V21xbvi7hEyyxSHvEP4CADP66D+3IiXOIedJhF+LVzGwG7NCZr1qqKM4+jGJv48HvvNTCnlH/YBI6RdGZX875/FU98iaVZJg7My8FdjgymPxd4lnjUpBmkg/NiBy7L+JdeB6ABnNVgPwtHEl4dkQVai+PIlvSxGIUSOQO4BNqtpNbDGkWzsYGz0xLl9IUz5P7bzsiIuHHUiGlyiSxG/CV/Vg+jc/BwtpsmkLiSl87nuWG/DwsHFZIx2kvFmQ83zwZ4P0/zI+CpbIlRLxf62+5bj19KujjrItQW5eCXRSPbM4GniIeZbT+kI+62DBw21ifhZMQKoYFw3eg/ByZlSxgxU+ejOKOXyNkK12uWgUwp/9YnfmTgOD+6e8fCgKHwU+AOZNh9XKJlyx39T7VwcBZum5jc7MM7Ya+PBnZyZPqOouKsbHHmx43zbyPCqtQbeDO+OuD5U2BWLiEnvXLIwscpuKkYATqmKGLjINJ2AK6pg4lpjwvCM+Kf10C4ZrOugUl1JTbJXCjfqR8bqy30ETkr3meulYac3xBO51sKyHTCd7z6heMljbl6HVyB1NXFYdSOLd4n0yzsjzj635avAUd/n3k9AuuiA5w4Nn6NJSrOAvjAXi9OS4BHs+I1U+rKcjhf9TZ6L8QTe+SZLBMHPgXuboeRRQuSf1P7Rb6rAmkH7myEbRu9i6IdDJwUYoTEGik2v2lSec0dS/H+gOI6JT5bOWizImL+GdJ1W8WBS5s8cFxPQ72FHYu1dCcTjwHVC4C/Gzh2mVjxPFZLjv4+K9a3InJo3ccRT0VFxVlZN/CWHv/Kz4AHylgw+yOnva68Z0usWUsyObCXwOI8/MqFHyC1M89Q2+lgY+EHFh6ycEIjDKrmlzXCtsXZmWF24L3oSjqzXPG8BO87dTuWFEc3lUIeZlm5r8KIxBhge1emB1TcNNIAQwyc7sra9B1qP5LRBjxi4YxO2DsL91wKyzTT8KUb5/2IiLPBjjR0KSrOSuMiWaA29/jXPpSTmrNS+S5fHdligffy4bZC1xwt8EkOfmFlITgeiaTVsgXHRsAlLlyXqXB0TgaGWxhrYdMQP8dsAzkD/1fBz/ohzmZfUeamtQSmIwI3jM2/H3Cyge9nKlij07ChI0X/zfg3pi4oOpDB3odYOCEPt00tI0uRMD6MyPpXD+zVGJJ3n4qz2nzK18TbG2ZZ0WC0nNPN9/nqmIuliImgUgF5mAnc2Qm7WjgNeA3/ZjT6zRAjtXV/aoQ9G8uIfqWlZulHSNo8rGe708Ct/4TfVRjVWOyDICo7Anal1MvdBdwbkkAbZuHSouVOSTRCv0bY28iUkYPwvvEpKCwykPw5A4cV4EAXHtWast4piJVGVA74m1mpqVVUnJXEpsgG5hVPGHi7jMVzZeDbfNUHRsVZleTAnQoL8nBdAXZBvL3+TrgjTSolBWxl4W4L56dLrD8y0uwymXB9hp6ycNHjFQoa40PkzFRYk5SVOrWpSC1P4BjY1MA1mRK+/zSsbmGclTq/ETW8ti8GngBO74Bds/DAFFjSounLPpki1ygq+8hawMgm9TxTcVbicWxjD8WZBe5wymj9L6aauvNYW6LizNNF6vMcXGJlbudpSHF3LS7uqwIXGbglAzv29g8z4p92JTI3Niz+CzTkqji9Wx/EmVtFwXgO/mUkPRhWJHYPoCndSx1iI+xg4ObigWR4jT62ncAjwDEGjs3BrRfXbvQ7TD6I0HvZ3fXRt0/FWbzE2QYeirP/WHixucSNZLzUu21G910sSxwVZ56Th/cc+I0Lexk4FamBqrVIWj2wN3BvBk7MfDUlzjhJX01C6hnDYqGBKY5MdagGP2rOqurmM3APUr4Q1vSAnxo4PtOlwzsDAzNwtJX39wNqL0qx3NH/78ABFo5uhweymr6s5oJG6dp91/pj+K7iLG4YEWeON88A013pjin1WDgA6ZrqziphdnME3J3jSDMUWmB2Fq5zxPPrQqRxoKO2bl02RMbtXJ2Gr11Y7L67AOpS0gwR5hQAF7ivIEOlq+0WW+KDCPq8ynuooxg9mx7S9R0sZw0OSRdrEDNyP1wE3IBkBGqtG3MB8DRw0hLYJSc1ZfMv0fRltQtFlOyY6gwcmva2lCgx1CXs867rkTibB/x5ShkpTSNpidE9bGyv660YiFCbA+QbJdLwQyuGtt+uoY+QAn5iYKcO+FUj3G7hh0g6K8zi738BF7Z4M2JrMR5HzhwPNiwHPi/ABOBWYP0QrvEQ4GoDm6fhDcTDbrcafAw7kIHkd1p4Mq/2QV7zecTez8H1ciBWJ4Ly15xk0CSeQcM9OmF+CPy5nB+wMsduu+7/itf0VgyOLLyTkrFQP0LGvoQ+9qRMtgLyFv6K1JmFOZ5pjoWf5zyqdTH+1JxVLc4mg3WhFfgV4c15HQ6MM/Iedq2h+9UiB9lnio7+J+TgHhVmvlzoqImztQtfnYajqDj7goKIIy+iCy7wcK4MU8vipjOS7iOVFhEHSoBMgkJWRPZ1LnzbSlTkDWpnOGKQgwAAIABJREFULt/gokgLswB8megW79z0rT9pTU9EQAsU+sHlyIinsOgPDKN20pgLgL8Bx7aJo/8TOZ2E4ifzI/Z+UhYO1a+lfJKU1hxOlc7rRZa6cHsFP9fT6cE6ZdSuKd5S9OKaC+TScJcRj7ADkPo0nQ/X+yHlESszDT0TtBaWGO+tNDyL0FwEbY1wTrHQeRu9DXqkA8ku3FkQOww1jg2GpRF7PwbYMQ3r5uUwrJRIkhoChiFF+dUyzYplQDkLej3d15sB2E7t1IwEeXh3CExBiuvPQDzstEC5e953YXze+yiI12nNDq83LAvvAo1oE09P1/uPFg4Ejs/BbSrMAt3Ql0Xwba3uwBj9dlSc9SbOBlb7SwzcXV/mHMcO+BqwWg8L/edGF6/IkAabkyH01zniLTYO+d/tenW+OJ1bOLfFh0YW431acz4e1xPmZHrA48D11KbJsddYYJGV9PaxBTjQwqM5+FgvTeBfRBS94YZZGH2hGtKWRWLSmgaGUn3k7GMX/p4vc/NwxSSyvgd1PAONzkSOnGzoc4CLm+BeF36KFDNvl/BLUwAuN/AHn57TxdbbyNl8fJg3mIVlGbgCscdJclRgMdBq4K4OuFeNY8PFgbaIDhf+ZofMC9YSntK/y8SwMtVHzp4xFZj8Gdi+JyFsJT2k4izCNMP7OZhg4AjgHKRxIKn80cDVOZ8iRinv05rzrU+duDmYZeB84JOEivQngWMcODarjv5RIaLajG1tOBY0Ks5qgGFUFynstDB9VpndMEXTyC3o2YhvhlFxVhNk4Q0HfuHAHkZqjmaRrLTW+xYmZ31MV02SkgEvr+kC4+OG5YjHW4basmKplOWO/s8iTTOHdsADzeroHyVlFlXD18HAdxuS561aMYm4UI1QbyWtWQ0fGvjnb8oUUsWpBKv18k9mqjirHZpFPHwE5DJwq4EzLewLbEm8nbCXAi15GbXjN4s8/F3zjY/CaTIUMvA7pOHnmBjfA4uAF4Ab6+HeiVqDGUkcqItq6MzAPsAvKbNmO8HfZWJEaLXi7CPgPxX83Eb0Pvz1M6virCbJwcysNAwcgrj0vxnjj/vrergxoNfyskFmvutzqicnqdOpxDPd3QE8ZOFnFg7Nwe0qzKJLIdqHg50MrKXfkoqzFamvUpwVgH/lKts0NqB3o9DP1Uyr5kXaG8AlVk6GjUgNUpzSXH8GLp0YXArXS3G2IIjvIg+vW8ghNXO1znJH/2kUHf3zcGc+eu7zSveBiKgyEPiBfkUqzv6HKzfskCp+RTvwVLk/dKGcYjZAXL17WgVnZzVyFgeB1pGXSQ95V+Z1Xon4YdW6SPvAQN6r8UwlKgNPI2dOQEXSn8PdBu6s8e97uaP/cXXwPdTRv9ZYKeLvb3/9impfZXv9OauJnC125RRZFh1SBLlxL/+kzUTP0VmpTqRZYCZwXgZuBo4CDgJG1ODH6QAuy5Y5R7ZaPPb9m18ISCBfD24GJgLfQAR6LbEM+CNwr4EHs+q9WJMYcSWIMttmYC31wOsbJyE3bF01JwoLz7VUFtIf1Ic4W4AWR8ZZqL3iSi3aQUAzEoGopSjp7QZ+HcLretoQYAO0F7BSm5qndoZ6dwBPGjjIwE9zcLsKs5re64ZF/C0ORuZMKyrOAEkvDqjiIj1RxY3Ymzibb9RhPNa0QEcO/mNhogM7AzchQj/q6c4XCtCUDaeGyktxsHBKgOIsL9MDHgMejvB3bIvX+DkDhztwgIHHsmqJUfPY6IuzQcg6qKg4+9/nrFScWQutVTwo6/byTxZYFWeJIA+dzfAWcBKwH3ALEmWJIh8DTfXi4xbG6d+ryJnnczVLISvjrS4hmjNzFwOPGzijDnbNwv3NsLRZ615jgendGSAK1CGpzZX121JxBtVFzv7Pwofl/lAGjIFN5XnpkSUkw7xSKZKT2Z3PujJY/TDgamBexN7mmxb+HdaGbb2L1i0lJNf6vNju/CJC32kBqSk72oHjsnDrJHX0jx1WRiRFnY1s7xklheTUnFUjzl5wKljErIiyLfr4Z8uI7rgNxUdaYGkO/gqMtdIVdz+SaorC/TAIScmH9bx6FTlrI0QB4sKthFv43NXR/7AOeFAd/WMtztatgbe5IbCJflu9U5eQG7aatOYLhQpSI0Zec3MVZ0pv5EQ8vAAc1Ai7WjgLGaS9Sohva6hTvWlzNaJmiUfef202xG7oooXHwJBefqGFFwzc1gZ3XKbGsYnAwHo18Db7Gdi2ER7O6n2ZbHFG5ZGzRcAbLZV1VBoLWxgVZ0qJZOHpJnjBhV0RC44fVXGoqIZhNkRxhoeRM0eesbDYjOALtNuBxxG/tSdztdM1qlTJWbLPrVkjb3dHKwcXFWcJF2cOvRjB9sJMKjTfbAennyzOfYkzrTlT/kezCJNH0jDdwO3A5QTvkTacECN3xruas2U2XHEWhtdZBrhZjWOTx0qwtg3nMFfpszEImK/fXM+iJfbYyoQZwEy3gmaAoupdh76nEiwzGjlTuiEP83LwB+Bpgr9H+gNrN4W0PhjpKPREnJlkibMFwKsqzJKJKw1oqRp5u6sDW+q3lnBxZiozoHWB91sqTAukpBulr9KZNlfFmdI7/yaEonYLm3RCv5CeVy8jZ2F2JH4r4Nebg6YxE4upLXEGsLt+awkXZ1TWebYMaYevdHPbsARx1mFVnCm98yohRH8MbJIKT5x5FjkLK605DtYm+PqfBcU/SgKxIs5qaU/fQ781FWeViLM24KUqXnOjEsSZGj8qveLCe4RTNLu5DUmc2RikNR3YisrLKSploVFxlliM2FPUUuRs6wmS3lQSLM4qKZJsc+GVKh6UUtKaGL0Hld75iHDsIEaYkLzOOuRg5EVEua0uJHFmYOsQxNkCV+diJpK0dD6uX2N7er9COE0zKs4iRCWnibcrHHa+/PRfSlpTUXqlBTqNdA0HfqCxfZso+/WwFvCmVmzZpPDGo21D8J1zC/IqzpK6ka+PdFnXEnUu7KDfXoLFmanscz5b6euNg3pKm3FmHL0Hlb6F/lshPTfbh/ixF1d/2UIZ2k6DeMRtFPD6WkCd/5O8RqxXi+Is5DVGxVkEbtxKImd/q/iOk4ekn95eikf8N6Tn5lvhPbJVp3JdQooipaQZYO2AX7aTcEdFKeGyPrU3TNwA6zXWjnGuijN/1svyTqGOWBhUyiqlijPtCFBK4P9Cet1vHh3OGuFF1KsQljizIsyCHkDdaVWcJZIJYia/MeGNCquGVa3O2Uy0OCt3EsK7bhVGjlbFmeIt74f0uqtvABuEIG6srdHI2bnFaADBd6Fp5CyhdIjZ+dY1+vZXLQpLJYnizJQfOXvZVDZPcznDkbqzvkg52jSg9P2QziQcP7x64JshPK9eGNGGIs4GyqFsmxC+q04HPtGnJZHrwxDgazX69lcCNhmfnECRirNu1vtyeMlWIc5M6ZGzAehNqfStMhYTjvN7HeHUnXlSc2ZCEGfF2YbbhiHOCirOkro+rE7w83e9ZEShsik+Ks5iQFnDxQ28nKpCnFkpzCwlcjbA1pZpoBLa+lvZjFcPxNl2IYmzaq003JA8vwYAXw9DnLWrOEscadnDt6f80p1IiTOj4iyZ4qzMKNhcCx9Nrq4cbEiJD0t/NHKmlHa4+CiE1zXA2pmA66es/KnWPNZ1YFEIa82aSOdc0My5LJxJEkqIGHAM7FbjH2Mzq+IsmeKM8sTZDAtzq3y9oSWKswFo5EzpewF2TTiRM4BVjRgqB/l5rQdjlwo2hFFGBnYK6XuaqU9KIk9tA4Fda/xjrG5h7bFaf63irIRFrmJxdrHcYIMp7UbTmjOlTyy4NpzIGUj95IbBf+Tq05qEEDkDvqviTAmKFOwIrBaDj/LNlIozFWd9LXLtMK/SF5ovqcpSZxJq5EwpRWWEKc6GWdj4lAAXzmK3Znv1ly3YmrOL5K1/J6Tv6QN9UhJ5cPtBHPZxA9sbDVQkT5zZ0ufrdQAzLq2iGaAgXZoqzhRP9ZkJT5wBjFgVBgX4vFrrTUNAoJGzAqyLeJyFgUbOEsY4GX80Jib7+PYFjZwlT5yV4Vm2xMK7VV7Qekp3al7JqDhT+qBF0nxzCa/ge/MQCnarbgioCzhyVgi3a07FWcJIwTcIfhKFX2xkam82qIqzABf6xU6V4syVxbl/if98iC3NckNRllB9o0rF4sxIB3IgWBGj1Yqzpc1lWuh4cAgMTZy5MEMfkcQxCnHYjwP1qdqdcqDirIpFc3Gp4ozqI2dliTNq259GCU6wLKWKWsgqWYcAhxM75R2oeiLwa+WKJ1wYz3O7C5/qU5IcGiWSvQNSGhOLbdoNx1NRxVnIlCrOZmerNHK0GjlT/DlghBk5w8K3MgGtFx5FzgIVZ42wupGaszDqZj6tq27cnFJ7h7X1CGG0mp9LnAnHvFnFWQSiDiUcfHnNg9cqR5wRZLpIUXFWBTsEuF5ULc6C9jhzYRPCSzF9RDizV5UQyMgBYHNgi5hpkW30202YOENqT/o6WVoDL3mwiZYrzlZp1C4Vpe/Nf2mY4szADjag9cJ48zvmBXx9NiU8vykVZ8miH3BADPfvVcYHWD6h4iw64qyvk7h14VUPXitFGalKC6vqqqr0RXv4ac2NgTWC0zrVrU0mwMhZkzzzIwhvBM0sq+IsMVgxhv5hDD/a4IKsMwrJSWu69O2b5DrwukfXtBx7jFWMRs6UPrhU7uHZhLcJp4y4kQfxvFa9NlmYH+D6MgTYKsTbY5ZRcZYYDOwT4EEpUHGGirNkiTMjkbO+xNknwOcevFZZ4szI7EIVZ0opfE71hfIVrxU22NFEtSbOQrMBMDDLUXGWJI6N6ecaSPCj4lSchUwnfbuFv+5FaqBYl1NXxr9f0+p9qJQuzsIyojW1FDkLMq1ppRFg87BuCguzCirOEkFavPTiWjjfD1jvXB3jpOKsqzj7Yl+o+pqWk9ZcC42cKaVtwp8RXuTMAOs2BuBIXowkD6zydwTSEJAR0botZTQBeUw7MD/vzdqlRBwDBwNDY/wR1x4Y78+n4qwbcbawj5v+dcebBc6oOFN8WpjDTGuC+PL5Xltl5fnZoMrfMTQdwPpmJd07MsTvZB6lWQUpNU4a1gd2Id7emGtZFWcqzlbEhTfavRNn5VzXtfU2VEq8sT4jvLQmBFBblYF6A6OpvhvtMgOnNfi80LvSKLFziN/JXCudvEqMGS8R2m8hUdo4szYwTL9xTWsuZwHw8VTvUgPl/J5V3PBSIkoNURd+5GwgsEVTeZHhkmmAQcApwO1IRLkaVgamOnBFo48dYEZ8mUaE+J3MczRyFnsK8uztTfxNy9c2GjlLjjhz+o6cfWC8W+BsmeKsLhXPtmjFYyaKMJsX8tvY2BWfJU9phGEOtAA5vHseBgLHWfhtWqJxfqwt3yXc+bia1kwARp6JQxLwUQdYWKdBmwKScQE6+hZnMz1e4MqNwK2FopTGTMIt/t7EeOiEPx5MI2xkJVp2Ot4buTrAtwzck4ETGsRLycsHfWTI6+g8V9OaSeAYwptAEShWOp9TSf/Ck+Jz1kHvvkcfmr590MoRZuVsnsaqOFNKv5c/CFmcbWRhdS9+URqcAuxi4T6kxszx77KxNnC1AxelZUB51ewldUDfDlucoZGzWJOG1Swcn6A1bgtHxVkyxFmLeADN7WVT+8h6tMBZeQ23vHvRf3sCJR64MCNkcTbAwJbV1p01gXHgSOBmxLspCAYB5xq4LeNBEf+3YSPCbeixwJx833ODldoWK0fi0YGiFrCwqVVxlpy8rpWi/+4EWAGYlfNugStbnFl1RVZKJ2xxhoUdC1XUWY2FwS40W7iW4O99B9gVuCMNBzbCgCqE8taEW6DdbmWklxJTmqSx5TDEoDUpYnRTo+IsOeLMSFqzu9TlIuBTDy9oAUmjlvzWjIozpfT7K3RxBuxgKhRnadiwDn4JXEB4g8INsJGBO4ALMhVGv4x4voUqzoyKs1jjwm6EOBosJNZwYLiu9cmhJ3G20EtxRgXiDDEXVJQ+6YyGONuyko7NRhF1NyHFzVEw0hxo4SLg1xn4ejk/OE7sb7YgXBucZUXvOyWGNIqlxIH40B0dcYwrz5aKs4TQU1pzkfVQnNnyxRnAsLEed5EpsX1gFxiYE/Lb6OeUMWezEVIZONzCvUgkwInWJWUf4LeNsGemxIhgnXTOjQj5vbejkbM4sznwo4R+9i11rU+KFJfIWXfizI/IWbku7gPq1etMKe0+tlY6NsNm11L+URpWduEcpL5sI6I5qswBNrfwe+DnGanz6esQtgYhDjtfLs5cFWexZDzUWTiV+JvOqjhLujgrLmLd+QHNy3sbiagkctbfK3sCJfZYJLUZNqNP6UNopaWu6xIjxrIr18C1HYK811+ke0mrFA0yNyH80WvtjoqzWNIJ2wCHJvgSqDhLygfNix/Qgq6azYipp2cY6fosd8ROfzRyppQuzt6PwPtYe5Ue0nrjwWRgRyPGssdTW4Oa+wNHGrg/LfU+3S2adYQ7T3M5bdnwU9yKDxg4n/AaZqLAxmckvGMzaSMSPuDLNhcF6/FGZyWlWa5jd3/UiFYpXZxFIXI2EDFg/RKNMKAT9gXuIXz3/GrWxa0M/CYjprVdndnrgTERuA8+0cchfmTkudmdaJYABLa+DE6Qt5uKMxFihRX+t2s93uispDTLFWcDSfiNqJSGKzVnkRRnjeJkfr6BO5H6slpnGDDBwK/TsNPy/2jkIPX1kN+bBT7UJyJeNMhzdZQe1ql3YAMVZ8kVZwXHe3FWSeQsBaw9IdwBykoN0CKb8swIvJU6YNsmWLV42t/Iin/ZeOJVxGyAA4tTBRrGwxAr6c4omILO1CciXhS98/ZHB3/XG1gvyRcgaWLgPb6c1nRdj9OaddJBVckoqDU7ZVObq0uU0scCvhAxTw67JmVzC1/PyJSLq40U8cZ1UxkBTCzAfgbWseG/H2s1chYrMlLeciyaRVkuzhLt/5kodd4Jb/LlMU3t/T1e4Jolcra4EnFGctumlfJYhrf2L5WynoVfAI8acTGP+3rSD9jZRiNlq2nN+B26tiRBA877Emc24ZGzRImzBfAxXy6inXWRRwPPu6yaCynfxX0NFWdKGeIsCs7wDiLK+utXErw4M5rWjA15SFmYiEwFUKTUZ60fJ7gpIlHi7FoRTK+s8J/e9ukENJfyjWjX1AdTKUOcfaqXIdniTNOa8WEhHEKJxs4JYuUNpSlHxVlCeGmF//8dn15jLuUb0a5kYNUJyW6fVkrZlaMTOVPCY5ER70alxslI1uRkEixEehJnpjbMq1WcecS/l/8/xj9xNofyI2cAW7gJN95TSnpoNXKmfEj5pRNKxGiQprz9iYapceTEGSrOkoML/6FYZ+b6GzmrRJxtY1WcKX2QlaisRs6SzUwVZ7WPFW/As4ABejW+Ks6spjUT9YHnAy8DpMRawy9x1lHBg7qNVa8zpTTmAG16GRKLRs5qnIngpOBUA1/Tq9EtwzStmayTShvwArDU9WkunVN5WnNLq51vSunibIleBhVnSm3SDtsDp+uV6JH+wGrphBryJvFDtyF1Z+/zZc8zzyhULs6GAhvrM6mUwFwq89NTYiLOtHOodhknkyaagOF6NXplPSeh2aTEibO8TAj4r4GnTWUCqpTXWEKFnVQGvqHPo9IXViNnSf/+P3Q1claTnC3pzIOB3dAxTX2xvgv1Ks6Ss7C9aeEe/K3ZmUFli6eKM6UUEa/iLME48HFexVlNMkgGep+Gmo6XwnpGxVlyyMMnn8K0rFgS+MV7FYqzHfV5VEp4cFWcJZcFVlPaNUkaHAunADvo1SiJ9VFxlixu+PIA9CiJs/XTYkqoKD3SLAeLuWj0JIl87ldJhuIvBnY2EjVTSrteGjlTIiPOBhrYVi+fUgIf4f8hQ4mgOEPFWc3RIJ5dzcBKejVKw0qTXCLtNFSc+YRbuTjrj4ozpTRmqjhLJLOtirOa4kJwHDgBSWdqo215Am1TFWeKZxj4gAqMaFWcKWUsWirOkivOlullqB3aYWuk1myQXo2y99LNVJwpXt5Q7VQ2gcABNmiEVfQqKn0wEyjoZUgcn2vkrHZIw2AD5wGb69Wo6BCqkTPF63uKNyr82XUsrK2XUOnj4dXIWTKZXa/irJYO6ocAx+iVqBiNnCmREWfrFf8oSo+kVJwlEReYM1m/95ogA9sA4+VxVSpEI2eKp6clF3izwh8fCmzZqEPQlV6YBAvxaT5sxMXJx8BVwJ7A5cCiBH3+pabC6SNK4MJsMNAAbOTTc7CseO/PK64DC4mntc7q4+RaJgrd/H0iCzYtY6IqZQdgQMI2HqV83vNp8Y8ii4HHgKk5eB5gHLSm4BXZCxOR/lhiVZzVgjBLAfsD++FN1GxZ8VDyMWKl8inwLvCuhRkOzLcwBrgYaSqLEylHMklvJukeUnHmIwZmI0ahlQy33dHCQBVnSgniLCmfM+vAvc2wYPl/nCK1V79Jw+sGLgT2jvl1WIqKs8jjwDoupBFvs0pwgdeBlyy8YuC/wIfARy581iL3wZdohBE2npEzBxVnipdYSUF8UKE4G+HCusBneiWVBIuzTuBZ4OcOvNIs//sr5OHZjPhINQAnEl/LgqUaOYs2jVBXgAvLNBPvKArvfwIPGHjKhU8NLHWhbUoJtkxWsi1B7OlLgGssvGlkms0uwE5Ipqcf3vu4OSaBNdgqzvy/id8Hvl7hcWFX4EW9jEpPGHgvxvOb5gC31sOFE1eIlvVEDmadBxf0h3eAs4lnuncJKs6ifig/0sBRJf7zhcBbwEMO3NUsEbKyaRBRFJQ4e9hANvfFfZjLwDpI1Ho/4BvIcHevatpTqDhTPN44FwNvV/ErvgdcoVdS6YV3Y/q5XgGywO8nlmHmfKmkOa/MwEvARcVTfZxYOkDFWWRJizBpRKJIvTEbeMzA48AzWem8rmYj37yYafGbZcAzDszvcjD6CLjpTLhlCGwP/BA4EPiaB6/pIAPQE4V2a/pIDtqKm2elbe87NsBqeiWVXk7pH8TvI3GPgQNd+G2usikbAM9YOA64jXh5gi26UKJnSvSE2SoGxtKz2awLzDFStL+HgdOzcEe1wqz4i7cC1gzgY84Enp3cQ23b1VDIwT8sTLawr4XzkSaGagL8DsEITxVnCWMmJaRkemClFOyml1DphaXEpy5xDjABODELb7dU4eWVA5uH95fBSQZyxUhFrbPcRkSJGOOlLupw4Ai+WnPVUTyk/8KRqFI6By9lK98XuorCemA7Km8+KOfg9KYrUe1eyUNHHmYYuMLAzsDdVN7cZoDhmb6jkSrOlLIjG3Mr/PF6K15OitITnUhKodZ5ycCp/aAl52GH8qWwzMAkAycDr8ZAnM3SWz56FESATOwizFzg36JV2D8HZzXDe1mPR64ZWBUYHcDHbAcebumhKaeHQ1IhC++68FPgXCqsqUMafBI10lDFmf/ibCaV14ikgO3G65xNpeeFucPUtjizwL0GjsrCvReVsfCXSrO8xgMGjgT+SO3aDbhWxVnkyEjKbSqw+gr/+VXgNODQ+TAxB//xcQ1YF9gxgI+6yMIDlfxgCyxdG25w4Wjg6Qp+xWAVZ4qntMhi+nkVv2LdTm+KKpV40mlrV5zNBVpcOCXrc1QrC25W/KIOB35BNz5RtSDOjIqzSDFBUm3nAN9GaoxfB84owGgDN+Tg7V/6OGorA46FvQgm5fdAAT6p9IfPBFsQ8+hjgd9SXi3oICqzpFJxpvQaGniVyiMCaxrY9hzvvWOUGFAQcVaLG/ZrwNnrQmNL5Wn/SkTaPAMXIIXKtdZM4Zp4pLBjQRqcThFGRyCiownYNQe/nAJzvU5f9vD81yOD1f2m3cCNU6uMOl8MNifP3c8s3FqGQBuEpG9VnCme8nwV4qwe2HEgDNHLqHSlrvbSmi7wEHBsDm49PYQUYxaWFeC64gn++drS4ho5iwoG+luxzmgwcHgOLs3JWKXASInR7TYBvNQ0KwcqT8jB3BScJ3qtJIGmaU3Fe6y4PndU8StGWrXUULqhWcTOZ/iYOvGQxcCVDpxg4F9hvpEpUOgPzwAHATfjQ62bH8K2Q8VZlGgDLgPu9MIOo0KOwn+/UmvgvjqPRwk2wwIDU4Cri9eyN/qjkTPFawZIh0o1dWebOrB1k6Y2le6Zj0dt+T7yjoUz7oHzmmF2toyI2XhxP++VieCU22p/oaRYZlo4S/Ra5O025kxVj7PIULRrWZgL6WA0XsTK9wPYx9+y8OwkH9K0WVhYkJm4t5VwQFq9sYS1QMWZUjIXycP7bFVHFzjY6veldM8Cujh2RwgL/MnCURZuebsMUfYLMBnYv1NsMHqlXVI7UxorGJWWhwWOTBM4Aynojioz9VZXllOA3ZGxSX7iAv/w87mYAosdqQO9vY9/uoaVCJqKM8U7DPy1yl+xb0HrzpSexVkUI2edBq4uwNF5eLalDGGWgeEfQTNwvSmh4NmKlcApFu5rhKPLPWE3Q6cD9yJpoj8TzTTxB3qrKwBpub93w3/j2UUGHsj5PGWjGeYbGA88rOJMxVnQPFvlzw93pDNIUboK/6ilNS3wIXCqhbFTymi/bwKnUUbR3Cp7EGsgnVp9sTLiCzjCwm9cuKoB1kuXUQrQDG5OTEN/XDzFL4rY96yRM2X5vbABYnzrd6nLjH7wWBCfqVi31wS8SPcHudWNijPFh93qA+C9Kn5FCjHRVJQv4UYvrdkKHFsPN+ZkUHJJjIX+Lhxq4X5kcPLyjae+hOdrxU2qzsDJjngp7T2uzHUuB58OkLFPE4oiMypriIozhQbxNtuWYPwvr70wQE/AHLxcFGjd1X9q5Ezx5aSzFMndV/Er+EYxqqAo/yMvEZ4oiLMC8EvguBw8NbGMNOYFMKROxt9cA2zRzcGkL9q6eV6+Y+CmFEy4CAaW80EmQLsLV1s4HnF3j8JUAU1rKqSgn4HDSnwuquG/HsHxAAAgAElEQVQ9C/cF/fk6JFKX4asNCGto5EzxS5xV66m0upUiUEXpyseEZwdhkdTleQYacmVEiNPgNMBmdRLlOo/uvYxMCc9XTxG6tYCGdri3EbYsJ4qWl+v5Jwv7GfgTPtfdlHCRNXKmYGBD4IAAXupmA3OC/nwXi9ny3cANXQ5FA0yCvM5UnAVEsyz0r1FdHcsgYEwGhuoVVbrwUYji7HkDJ+XgymwZ9/cFkq7c34EHjdRT1vUi/vqirZd/1x/4oYXfOXBIOc0CebFLeM/AwcAVhBehdG3ABqdKNHHhVMqMBFdy2LPwSK46f86KycJC4HK+Wn+2oYozxY8TzwzkTzXslKQbVCn53vqI4BfSDuBmC8dme++y+goXwcB6GG/EqX/rvvej3rGl1bZtbeBaF1oyZZo6N8PCot3GmYQzkeGzVMiROyV8GmTIeRBRsz8Db4b5WXPy+rkVAxpWxZni08WeAbxf5a/Z0MLODf7XGyi1xSyCjZzNAyY7cJaBt0r9oYx4l23QDnch3kZrlPBjnSU8W6U2Hgw34md2Txq2aShjDWyGpRbusrCPlfrRIO02PrG1McVA8XcPORhY0+9n28DD+Qh0K7vSHHTT8mfNqDhT/GCydNW9Xu0mauCYlP9hbaWGKASX1rRIev6EHExuhgW5Eovlz5b1Zhekvmx/Snf0L8WZvK2Mz1AP7G7gAQf2S5cxWSAPnXl4yYr32t1lvm41fIqKs0STFruYffB/7X/bwuNR+MwtUHBgEvBccfHZSMWZ4tfONp3qR7DsVBy4qygApIIRZ50Gfl8c8nx/OT/YBP0HScTqFsQwthx/plI+VyUiaTPgFgPjG8qc29cinZNnIB2mQdShaeQs4TiwPfLHT1zg1lyErHk6Ya4sIXyMpHVVnCm+3PmtVB8urqOEkTZKcigW0M7z8SWWARe7cHJWrCVKJgOrF6S4txkxzyzrPGNLqKUr1pxVYncxDDjPgTszsHlDGaIxJ5vG5QaOoIzUboV8anyYbajUBhkYZKXWbDWfX+pdZM5lZGgBW5B983oSNCVHxVnATIHPDfzTg1/1vcYEhXiVvjHVmRz3dpJ+28CPDUzIl9FaP0nc/rcFbjdwSqULaymixFSXXuwPfA94zMAemTK6OXOwrA6esHA48DQ+RbcsfOZq5CzJrEsAJuQWrrQRnNM7BToKcFUAhyAVZwnnYQ9+x8rFDUFRli+sfoizx4AjsvD7bJnioB32tFJf9n2qGzPjV1qzi75jEwN3AqeMLaOuZ6LYbbxoZS7ndVRfttDdm/vMauQsyZyE/1Gz14GH8tGcK8sU+Bw4X8WZ4id/pIyxNj0wANg7IyabigLeirN2JA15Ug5eqOQXuLAvUtdVLYUSXmuZR597dSCbgvPTZXZE5+EjCw0GzqWMeaKlfH4Dc6dEdNNU/CUtGZJjfH4ZF7inLhybmJIpjndScab4FuH4nOpGOS3nWwa+nfZ/+K1SG7zrze3JDAM/BbI5seioFK/uy44SXqjSmrPuWAkxxS17fczDIgPXG9lM38AbQbWYiA1hV4LDSNRsVZ9f5h0LD08OyXRWUXEWFZYh6aJqGWrhAKO2GoooEy/E2TTg6CzcngvOJqIvgkhrdt0QnUqVZTO4WXiyWMD9INVH9RaqOEsmxbri/RD7F78oAE/n4V96xVWcJZocdBYtNRZ68OsOIkHtxUrPuGJyXOnJtw24wsJPctIZFaXIQZ9pzYL3QrK3cVAlkYe3XIl6XIxEvyplkYqz5NEEjpXSgBE+v9QCpNheUXGmIJMCXvHg96xi4ISLNLWZeFKwFPECKgeLGJyOBZry3tatFfAg1VjKaCZHomteFswv9eKXtMBsK7V7JyJ1aJVcj0WuirMkHrbWRppMBvj8UjcCr+oVV3GmAHVSy/Mvjzav4zs1epZ4DLimvPFgLvCCgSNzcHWuuuhOd+/Hi65Fa0uYKVk8mXgZPfPsd+XFbuMeR9Kcz1UgIhc7Ks4SRSMYI3WP3/X5pWZY+EVOm01UnClCsfDy70hIuVpWdeFnelWTjYWCldRmKSwDbjZweBae8unkv9SLw4cpvWZrmYdvfyHeNRgwCWwzPGckEnIL5W2GmtZM3kFrVSvRbD9xLfzKVtf0o6g4iyXTkc7NaqkD9s2oKW3ScSlNnC0EmgycnS2ziaAJVmmExsYSmlAcj8QZpUWxLN5GznqtB70A6jNwaCOMyJSxjmalK+5c5E+pgmth1uOophJtCjIBZjOfX+YVAw+0lBCZVlScJYqcbKQvebSBbQnsldHas4Sv6b2mNV0Lrxs4GLgsW0ZDShpSGdjehbss/NyW0D1mJa3pxb1dakTMM3FmYEFvD9IAec72svAn4KAmsd8oiTzMt3CNFbuNN/u4RgVgtt7aySENGxn4CWX67FXwTP0+J3YvioozpZtN4A68yfcPBA7FfxdpJaK0ifj6oJdN/nfAIVl4spwak3EwxMhJfrnbf6rEe7tm05oWFtje37tT/LMBcKuFi5tg0zIEWkceHij6oT3Whzj7TO/uZDAWUsV7YgOfX+otA7/WK67iTOl5E/gTMNOjX7cLMEajZ8nkMrBGZl8u7ka0TLBwWh5eK+d3NsCGKbgWsYPYuCiWjCnt3vai49HaECJn9FEL6soztlykDrRwkgv3ZWDvcl4kC88Xhe/UHsRlp5FuWiUBpMQ24whk3quP2w7N2fI7uxUVZ4kSZ4uL8we9oM7C+RYG6ZVNLIv4YjO3wIfFFMml+TLqGzPQPwO7p4qzNYHB5b4RDyNnbSX8G2u8bQiY31vkzMramfryvso3gLsyML4JhjeWeEjKwocpuBA4i69GPjutirNEkIZ+xajZ1n6+joGHDPxBr7iKM6UX8pK2uB+PNhYDOyDGtEoyWbCCOHsOOL4d7smVcX9lYE1kwPD9Frbquk5YMKUoLq+6NUuJnFn542lDgOn9OTM9rJ8rAxe6cK0L25X6YpOhLSdD048G/rrCddO0ZnLYBjjN59eY7cKVHd7Y3CgqzuKNgXfwZtYmSM3CGWlYRa9sIu+lBcCbBq4ycFwOnry4DIGUEXF/KzABGNrzy5S0uHjVEFBqN5mnDQF1fa+dPdXepYDDDNzaCMfkyyjszsG0YqPA5Uh6umBUnMWeLNQZmFQU937hAr8HnpvqoU2MouIsznyOt15TW6PRs6QyDzgTaMjCW6X+UBMMaBSvvIeA7wH9etcufeNVzVmJaU08TmsumNTLBtZL5GxFtrVw9SLINZbRqJMXe5MMcISFR+t7bvJQYsIiaeYa4/PLzASuz2vUrCao00sQPjnozMg8w1nIyI5qWcnAjzPwaA4+0iucqBO4pUxj4zSMcOE84DhKGxVTauRssevBCd0tMa2Jd+LM7WsqQSc4TmkRsWFFM9FtMzC+Df59WQmdssU09CPFP0qMaYQ1rcxgHerjy7jAzTl4Xq94baCRs4jQKfVBr+NduHkU8P2Mv145So2TgR8ZSWP+DI9n+Lkeuew7pYkuL01oF9PHiKUSI2cr8gPgngFwfNrfTjyltoRZnRXfQb/HND1fgCv1iqs4U8pkqnTZPYiMdfKCeuCCThimV1fpSgMMzUhd2XXAd8r88ZIiZ8Vh3YFEzop4FTlbLOclzxfOTZFasisaYXiTWt4osB7SfOPncPOlwIR+MFcvt4ozpQIs3Iv4VHnF1inxUFIUADLgpPn/9s47TK6zPtv3e2ZVLFsy7jY2GGMb0wmmBMhHgikJxXQIIcGEFttgbBMXSTsrS7alnVnJcgUXigsmNoT20SEQeigfcTDVCSVYxXKRrLZarbbMnPf74x1Zu6OZ3VPec6Y993XttdLu7Dkzpz7n+TVOCVzvshXAkQkWE0lUzHMiJ3WD5Sg5Z56rNXfbWZyz8JE0t9gsNHCWha9YeKac7d7lEphr4TJq/QOzu61wh4WfrlQRgMSZSEbZNQX8nM9lGnhv0TU2FD3OMvd0/lbjKrbemuL8jyRKLnMCJ+1MyEj9yzwXBIyYWZyzONuhyd+9oPYw9vZLIozCEt1HCK/HFQJkyXrgI+WYeahC4kzs/5hzC/5CmwCPBs67UMUfvS7MDg1hLXA96ZtcxnGNUt8UwgitNKybJLDH0+babbMJa9ZzInBVFa7ph4U6SnuHfjjBuiKcLMOZE7j7yV3a4hJnIv1d73+Bb3pcZB/w2vnw/AHluPQcRegbgGdZ1+n/bHLOQTQexFkLWmnMWhBA8rBmPY8C/snAnf3weOWhdT9L3CSAdwCnku3+vrsKV5cUzpQ4E+mxrsLtM0RvvBmFx1h4d6ixTj3FMufGnGnhSxaei7/8JhPjePYhznIvCJgtrGljbodZmAOcbuATYfa9rkSL6XPn4plkm2+4zcJFq11RjpA4E2kpQ2jgP4DfeF703xpd+HuGATg+dEn/a3ChbZ/EESU+wpp5Dz4fYfacM1/O2VReANw8AG/REdyd9MOiEErA0dk+43NDwd/UGSFxJgAGXWjzu/jNPTsAWLVYuS1dTxFOq4Ux30KCgeWexdmutDcaE60Jrc8+ZyPB7H3OsuJEC6uL8GIdyV13XhoDK0z2Pc1+ZuG2VX6jL0LiTNS4E/99aZ7WB+eXlNfStSxx5/SbcAPLswqb5OqcRRFntQuZt7BmNd+wZj3HA+9RkUDX8Urg7WRbnLULuL7sHvCFxJnwTQl+DvzA82LnAO8cgWdpC3cnfU6QZV2Zm6c4s5PRHQBfTsFIMIs4M9mENadyNBJnXUPRNZtdTIwZqwn5dAX+VVtc4kxkewe8mmj9luJwAnDmgC78Xcl8F46rtMv78VAQMNEXoZGt72rNwVnCmjmUv43gd5C7aBEDblzX2biRellyj4EVaxTOlDgTmd/Y7sb/4GMD/IOFF6hsv/u4xAmZrCu08nTOIgmUCrEKB2YiBEYjnJtZO2c7Q39920RreSlwQcb3210WilV4QJtb4kxkzxjw0Sg3i5gsAFZOwmHaxN2HcbmKk9muIvILcxFnQ2ADP+JskuiiKEtxtmNS4qzjKcLTLVyFK8jKigpwh4FvD3kYlyYkzsQslNwN5y78554BPKsAA9rK3Yd181mzDG3k7ZzZiJ/bhzibiPEwlJU4qwLbrlLz0I6mH44ALgVOynhV/2vhypJ6mkmcifxYBZuBL5B+RmGjff93RfgbbeXuwmQvzuK8l1TizMJ4DIXi4zNHdc6ydM0mga06kjuX2hSAdwKvzvg+u9vA8jL8UVtd4kzkf4P7AvCHDBZ9NPCBfjhSW7l7aDPnbFfKFY3HWFnVw2ebsK13zsYlzjr+xnqa02iZV05/bBt8Vltc4ky0gEF4yMJtnm4+9bwU+Pt+DUbvJrbRJjlnYb7OmSV9peqkie6cZSXOJiTOOpd+OMXANcChGa/qexauvFF5ZhJnonVU4Vbgdxksus+43LNTtJW7A+Nu7Jm2YQgjCpNae4tqis8yZqLnXoUeRGmksGbGF84JI3HWkSyDw2stkJ6Q8aruN7AmhPu01SXORAuZA7sMDJGNe3Z4ANcugUdpS3c+Yy5PMVNxVojuGoWky5eM8zmsB3EWKawZPqIdsxFnFh7WkdxZDMCC0IUyX5rxvbUC3HYyfGO1ikYkzkRrGXQn4TdxQ9G9Y+GFBTh3RXYjf0ROXJlDzlKMJ4S0fdfGYxzDuTlnZBvWHLewRUdy57DCHQtn4JrNzsl4dd+2sPYdEmYSZ6I9mHSOyB3473sGMBc4awJeeK6a03YD68nw4h3m5JzFKQgI/IizCRPh/Mr4BNlVVluEjmICTrMwCByU8ao2GLiw7H/uspA4E0lZA9a6iQG/zOjGe6yBxQtdfx7R2azLUpzNiZ5zlkqcWRiz0V/rpSAgjCbOsnLOLMoj6ij64akGbiD7pt4jwPIwm9xjIXEm0lB24zluJbtqvFcYOEdbuuPJ2jmLdO2oCaY0LtCEjd6E1ktYc9RN5oioPTMRZxt1+HYGRfdAewXZFwBUgE8Any230excIXEmpnOngZ9mtXAL5xbh9drMnYvNWJyZ6O8jdVgziP5aHwUBY9dFu/ll6Zxt0BHc/gzAgcAa4GVknwryiwAuL/lvRi4kzoQvaifoMqI/4cflEGBFMfunQZERBbiXbJ2zOC8dSbGesZjrSiPOLOnHTaUWZ1birO3phwNCKAFvIfsiqodDeN8qeFBbXuJMtDkWfg7cmeEqng4s7YeF2tqdh4H7ybCdRl/Ea0eQUpzFnBCQ1jkLgZ2tPrUDhTXbmiLMN3ChgbNyEGajwDLjrvdC4ky0O+PupL2N7C7kBnircfM3Vb3ZYVSdSNmUrf6LpJZS9zmz+TWhtW0gzgjknLUttUkqbwUuBOZlfxrzSQt3lrPpbykkzoRvrgQ7B34CfJXsEkTn46z7U7XFOw6Lq9jMhKgHXAihTVetGcf964aw5kio6QBtyTIIAtdg9kryadj9C+DScsr5tELiTOTMZVAJ4UNk65AcBtxQhONa8RkHoO8SOXdJhcb6DJcfaZ8EEJoUYc0AxoJ4nzmVODOwI+qKMuI+q1mJbcelYCz8dW3G8SE5rPJ+C+eV1FZF4kx0JkPwW+DajG/CzwSKrcg/C+GkKrxyQMdq3J2WqXNGvD5nicVZzMHnqZ2zsPXO2QbU+b2tWAZmwgmzG4CjcljlKFAsw4+19SXORGdzG/C9DJc/B3gn8Maiy7nIU2TsAC4MobwcDtCujqNrsnPO+iKKs2r+szXThPjDIGLOmYkhUCXOOpd+MCE8B7geOCGHVVaBDwOf1daXOBMdziTssFAm22Tm+QbWBPDsPD9byZWP32Pg3ArcWIRHa4/PzmDG4qwaUZgMpcw5q4mzOAUBE2kErY14Dtlp37wq6o1W4qxtMPAs66riT8zpgeq7Bq5UPzMhcdYFXOFyZX5ce9rKsqrniBA+tDSfJ8ipV6x/qV24zgBuHICTtNcjsY1oQ7wT3rcivzCOwKrf9+PV6K8NSeecWdNi58y42YkSZ21AEZ4P3GryEWYAf7Bw8WC2OcRC4kzkSQlGDHyQ7E/sPwtgVREOzfEgvcvAXbXj9dUWPjWQs4PXoU/948DmNngr4yR0tAyM90V/beqCANviVhoGNpYkzlrKUjBFF8q8CXhKTqvdaeC8sqvQFELirJsYdAPRP0a2s9cKwJuAdxez7/Oz93NVgJunmBanWrijCC/uz74JZCczBjzUBteOCZI3xI38d6bzCwIqVm00WsoyCAw8F/gUrhF3HpXiewwsC+C72gNC4qx7uQb4j4zXMRcYAE7P8XN9i33NOQ1utNTNBt78drXaaEjohE0m4izmhSOxc2ZhPOqTRtXDhICgtc7ZFjKc6iBm5jIIQniZccLs8XkJcuATFm5fmS5fUkiciXam5BoWLiP7cNbBwNoBl5eROdZVbX6p7sePA649Fi5Yq2O5mSjK5DgI4gniNM7Z2OqIYb5CeudsbH7EebUZxR03S5y1hn4ojMMrcaHMx+W1Xgs/DmFFqfUtXITEmchhp94FfITsR34cb2HtMjg+68806m6a/+7+OY0jDVyyDZb0wwLt/X1k6ZzFuXYYJ86SugITMT5vWudsx/LW5ns9LHGWP7X2QK8AbslTmAF/AN4zpIHmQuKsN1jlLvC34ERaljcbAzwvhEuLGXfNvsZV0v0K13S3noOB5QYWL3P/FsBqJ1S2ZLHsOKq/NoJpPOEBFllsBSmdMxtxOsCUY983m63EWd7C7ADgnQbuAI7IcdX3G3hvH/xRe0FInPUQJbgXGCK7VgpTj6G3GVh8ZsbH07DreP+fTbTBfGAghDUD+cy96xS2sr/bmCspnLOQeKOMUjWhNbA9zooyEGibA4mzPIXZAuAiYC2wKMdVDwOXVeEHK1WZKyTOeo+qG4p+aw6r6rNw7mHwvixX8kF3IfsKzQcB9wHvsHBFMZ/5d50izrJoaBn52mGTFwRMxmnIWk3fhHZ7i/fVwxUlhefCYlhoXPFUMWdhNgncCNw6lC4ELyTORKeyGiYDWGXgv3JY3YEGLumH05dmeFzNh+8AD8zwkrm4UVOXF+HwXj8GTEbiLIzXhDZpQcCkieGcVdM3od3Rwl1VBbau1tDzzOmHx86B2y28211SciO08JkxuLQkYSYkznp+B2+2cCkZ5R7VcaSBcgDPyGoFy90g7G/M8rICcA5Q7s+xWW47Yt2UAO9hTRNDnKV0zsIY7yl1QUALd9UorXfuup4iPNvAbRZe04L737cKcPFVESuChcSZ6GIud09r3wRuJ5+QyVNxMzCPzfCg/UK0ezXvMHD10t7OQcvEObMxxFk1uXM2EWeU0Zr0BQHbYgjBLMTZNkRmDMDrcT3MXtSCe99vgCVmZtdfCImzXqIME6ErDvh1Tqt8LvDRrEY8WTfiZGOEl/YBbw1geX+PVnH+3rkxI628cKQoCJgkfphvMsVnamUD2lEr5ywrUXbQAFxsXf7tieTftHoTcE4JfqkCACFxJqYxBA8buADXSylrDPAy68KKWYiiCdyg9yjMAc41sKSYb35JW/BZdzN4EM+5TDbGtWNR8rBmJcH7rqT4TK0UR3LOshFmx1lYY+FyWvOAthk4rwQ/0N4QEmeimaXwI6fTckk67jNwhoHz+v3P4KzEEGfgHLR/Boo9OklgYwb7PLL7UHQCMUmezQTxnYZKis/aylYayjnzTD88x8IngLNozYPZMLAi3H+yiRASZ2Ifa6Bq3MXqy+Rjrx8ADARwxoDHAeUlNyD6tzE/w3zgvK1wzoVOrPWaOKu2+D3sJlmIMolzlkicha0VRyNlOWdeGIADivBWA58G/qpF97kx4CN9rmVGRXtFSJyJGRl01ZtXAffltMp5Fq608PrFHo83425kcceeHGygOA9OL/bWsPQNeHbOEmy8JOJsIqE4qyb8TK2q1gzJfhZuT1CEx1pYwb5RTKZF+/OTBpZfrqbCQuJMRKXs8h9Wk5+bsgi4qg9esczTMWdcI9okcyOPxonTP++hXZ5FWDMuIyRzzvIKa06aGDdSz3f8kGgFLqIJ54EZcC7ZrcASWptfegdw8WD201mExJnoNizcauHmHFf5GOBaC8/s93BvC9Pl6JwAfHip+971VDIIa5r4+zCRc2bzc86GY/6dT30W4ir6RAKKsGAhvMfCncBprb2s8jVgWcm1sBFC4kzEowyjBlYCP81xtSda+DjwJA/L2kO6MNRTA7hqab7DjlvCv7sbxS6fywzji5NEzpnJL+dsl2mduxja/NIMuoalUBiAJ1m4ycJNwKNpbbrCXQYuLrk0AiEkzkQydrqn9eXk2xjxKQY+OpBSoBl3Ex5Peey/KoAPZFBN2lb83D3Rr2vx20hUEGBzFGdh68RZ1UicxWIZzDfOLfu8gTPa4F72WwPvG4R7tHeExJlIxfVg57hZlavJd6TI8yysLbpQZ+IbGunn080Bzjfw2h7Y3X9q5YXDJHPOJoJkOWeJwppBjPfnuZVGGEqcRaYfTg5dwv0VwBPb4dyycPYg3KW9IyTOhBcug+ooXI8LN4Y5HnevBEpJh5NX/d0cDwSu7YdTu3xXr/O5sDD+6xM5Z2GOzpltXbuR8eH4lcc9RxEOLsLfGfg33GzMhW3wtu6zcEFfvL6LQkicidm5BioBLMPN4MyTtwGlATgswYFbwDlfPjjKwNoBOKaLd/O9rbxwBM45i+uCxc45MynEGa0La266Qb2wmrIcgiL8JXBD7SHyhDa5d20BlpbhiytbXw0tJM5El7LVPZzym5zX+w4LK/vjDyefg2ty6wMD/IWF9/Z36Ygn41mcxS0IsMmb0NqY60ka1owlzjxnna/T5acxS+Coiptq8gng74G5bfLWdho4rwKf1F4SEmciM1aBLcHdwAD5NsScA7wngIsGYoQpAlhAfEE3E3OB84H/06UNajd4vnDEFU25tNKwyZ2zYds690PibApF17NswQCcXoBv40avPbaN3uIwsDiEz6+RYyYkzkQelNwcuEtxYajcBJqFfgvnFSO6YaF73SGe38ci46YZHNtt+9W6vnAPe1xeW7bSSBPWLLToRmtgva48jhXuYe0FFm6w8HngKbTXuLURoGThtrKbYCGExJnIhwn4GK6CcyLnY3EZsHhphNYWxjlnh2TwPp5m4LJlXTZ/s+Yo3e9XU0RnbsJqzRz7nA1XY4RDrd99I3EGDMDTJuE64FPAP+Ivp9QXkxZWTcK1EmZC4kzkzlrnWHwIuJ18E5XnAxcGcHZxdoG2kISVnhFEx+tCeGOXneiTeOxCH9c225m8z1lb5pwl3AzN6Flx1g+FIhxThDXWddf/J+C4Nnyr404/8sEr8m07JCTOhNjHIOwwrangXAissvC2gSZPzv3uuD2e7JL3DwXev8yto1uo4LHZcNyCgGucYIp7U5sM4oc1J0nmnI2UWxPWnCTZjNiOZpmrwHyMgbNwbSguromyQhu+3VHgCgs3lN2/hZA4Ey0VaA9ZOAeXlJsnBxm42sLZlzS+WPcBT8/4PfyFhfcMdEl4M3TizKdzliSyF3eEVJKCgGoCcVYl/pBqX67ZgzZ9M+WOYgCOs/B+4DM4h/5xbfx2q8A1IQyVnfsrhMSZaD1lV0l2Pvl3v14IXFaFcy7e30Hrs9mLM2PhvBD+okvE2SR+x3QlESc7Y75+MowpAmvh27hhzXFijgLzWM77gOmBHmcXQ7AUjhuAQQv/ZqEM/DntXRkd4uYPl4ckzITEmWg3SvBb4ALgv/GbCz0bhwAr++CMJVP6GwWw0MDzclj/IgNXLnVhzo5mtbvRbMZTF3yTkzhblMwFi/s3Y6Sb05pKnNHFztkAzO+Hk/pgeQA/s7AUeDKuoKedGQPWWriqlG/luhASZyKWQPsh8AE8NzONKJCuCeDdi2sOmoXT8NvjbCaeFsAFXVK9OVz7So1NJtLjrnuiP1lBQFxxNk7MfDiPTygP0IXO2RKYX4QXWbjcwHcMrMBN4OiEe84E8EELpTf6ij4AACAASURBVHL8ULwQEmcid4H2TVwC78acV73QQKkPFl/qigDeluO65wLvqMLzu2AX7vQlzkjmnMVdd2zREiYLa8Z2znzF4iw8EHaROOuHhUX4xwJ8DvgXXKL/YzroI1SBy4HLy/GdXiG80adNIGLe/L5r4P0GbgQeneOqHwUMTLiBx0/N+WMfa+DCIvy2BNs6ePcN4+mGY7MPa4ZJxJlJFtYcNwmcM+NBoxl4wHawOOsHY9wD01HA3wHvqomxeXTepI09wCBwTUk5ZqLFyDkTsRiC6mPhy8bN4dyS8+oPAJ5La/JVXotrjNnJ+HTOkgiROOuumgS5WEGyVhrjYWtyzirA1qEOHQHUD8cY+BtgLfAzXJL/yTix1mnCbDewxsDVEmaiHZBzJmLzXrAXwSfmOgPhQ8SYidnh9PfDL8vwnU588xaGTQtDNaFbf+SXJ3GUAqhUE4Q1TWvCmt5yAPPiDWCeBM+18Grg/wB/Bhzc4ef1GLCiCjesjt9SRQiJM9E+rIWwCJ+yLqxxHbCoBz724QYuK8L/lPyOQsqFMuwuwo5WrT9ww8WjUiWBczYOlb5k1Zqt6Pre9uJsGZjQzb59FPAqA++2cErtfJ/bBef0MHAR8InV6vwv2giFNUViSjBRgE8al0DbC1VNBtfC49yl2U0nyJqH8JDjFCQwj2wOOWeTyas1WxHWHLZtKs6WwIEDcJKF04EbDPzWwC24vn+Hd4kw2wIUq3BbScJMtBlyzkQqVsFEEa6vHUuXEWFoeRecM2ca+BXwyU578xY21Zqe9qVcTlKXIirVJGHN3VA5IFkT2iQFAanFGW0kzs6G4FB4Gq4y+XkWngU8ifYcqZSWzcCFD8GdN3dozp+QOBNiRkowthSuC9zNdKgHjqtDDVw1AA8Ndlj+WQD318YF5e782Zg5Z0kKAj4CtpggrPm7FjlnrRJnRTcBwxSgYOEk4A0WXombb3k47d8kNg33AWdb+IaEmZA4E13NEOwpwk243JQLcZWV3czRFq7vhzeV3QSFjiCE+02Lwpoh7IxhwVRJ/j7j/J0F9nwu38kXe9lZzrH7/BIo9MGi0CXwnwycFrpqy6fU7gWFLj9nLfBH4PwC/NtKCTMhcSZ6gZJLOF+Nc2U+0APH1ykGrizCe0ruabztmeKcpRV5sTEuLzFqRDAk+fuciLmeVuRLVnGhtUwpugbOJ1l4AnCyhWcaeDbwWEPP8UsLF5Xh27paC4kz0WsCbWQAVlp381nS5R/XAC8FrrwE/mllB7RFmAP3T/hxzpJsrAlcblcUVzWNcxYnRNkqceZ7ED0Ay5wz9nQLpxo4FTjRwtG4r4N6+NL0QwvnleEXukoLiTPRkwzCcNE1pJwHvL/Lj7MC8MYQ7GI4c02bC7RLYbQIW0k53SFMENY0zs3aFVGctbVzVpsOkMZ8qkQVZ8shmIQ+A30WCsadT30hHBDACQaeYl2/sWeGcAIwv/aaOagivwp838D7gN/r6iwkzkRPU4Kd/TBo4BDcLMxuzmcpWHhDH+xaCkuG2n/E0zpcVV6uWJfkvws4MspN1eTnnLVCUDcUZx8AcyAca904pIOBg6twhHFi+qgpX48J4FggsLrczHDI8VUL55fcMS+ExJkQZXi4CEtrN5nXdfnHnQOcEcBYEZaUYLSN3+u9aRdgkv3NXucskmhKOnPSwISNnuBfta0Ja1ZsA3G2APprVZPH4IprDrZTHmyMLitxhNnNASxflUH4WIisURNakSkleLDqBqX/rAc+7jxcD7Q1F7Zxtar14CIkHPodR5xVk4oz68KaUdnr5uXNZL04u9wdP2/FNXp9PHAo3V9BmQXjuMrxpRJmQuJMiCYc4EYdXYDrTt/tzLVw1jz44FI4oh3foGldiMcSvXVENUieczZOdOesVQUBe4Zc7t8jjMFj6e2kfR+MATcX4OJS3fYVQuJMiClcCrbiqqR6pYS9D3h7ANcuc1Vy7UbqsGbCBlGxwpph8pyzWM5Zi8KaGxr87Gg6dyxYO7AHuMLARSthtzaHkDgTYvYDbS7d35h2KnOAN1fh9iUuf6iduA8Pvc4yFmdpnLO91ZqR1mNaUxCwvv4HxiX6z9PVIhG7gMsLsHrQiTQhJM6EmIkL3XH2IuAlPfbR+wy8pACfHYCnLG6f820ceDDlMtK00ohCYufMxqzWDFvgnNkG4sw6ES/nLD47LAzNh7VyzITEmRARmQsvNG7m5qIePcdeYOHOPnh5O7wh66KSG9IsI0y23ljOGQmdsyCecxYWWiDOggbiDDlnSdhmYPlJUF7uobmyEBJnoicowssNfBg3PqaXeTrw0SIMXN7iG3DghM/GFqzXmugFAWGQ8GYbxsw5292CsGZYV5RRdHmKh+maHIsdwICFm97dmtmoQmSG+pyJTOh3XcpfA1yJa5YpXCPRZWNwahEuKcDvV7bgaT907SNSzQJNMvjcgrXRhVC1mrzPWZxqzd3XJDACjVtB0rZjNqxzzgwssK51hojGTuOaXH9slRwz0YXoKU1kIcyONq51xkeB41DvzKnMB94AfDWE9wy0oFjAODGSyjmzyf4mTiuNsC9dQUBUtrfgGNht4OG6ny1A4iwqw8CaTXClhJnoVuScCW8sA2NdflUR+BvUQHMmHmfhWuCNRbipAF9amVMFZdVVQm5IqZgTFQTEaFuR2DmzMGGi68dWiLNNtdDyPiUKC2qjzsQswha4tAofuk2hTNHFyDkTqVkCwQAssrDYwudwie8SZrMzF1fBemsInyrCs4owt5ix07ja3dS2knM7jcGYztmCdAUBUQVjInGWIqSJgY2mLpRqnHMmcTYz48ANBj68ujWtYISQOBOdwTJ4VAFebuFrFsq4ijMdV7Hu1Sy0LtT5feA6Ay8owoEZr3Q3rRnQPkmda9SE6j3pWmlEclXCFjhn1uX71ee5Kaw562bjCxZWDbb33FohvKCwZhuw2LlMB62BnR0kyg6uwstDeBPw1/RmmwzfHAicZeH1wFf64eMW/mMocUP+GRmtibOjWiDOxphdfFY/mTBsVQtrRn06TSTOUhYE3BfuL1APxA06F435WgAXrGpNw2AhJM56dCfMAy4ccCGubwNfqcKvDEwGEA62OLfiEjBV54YFwNOA14XwCgMn6YaSCUcC7zTwSuB7/fBBAz8zUPV1LBjYbVPMHjTJhUlUcZY4bBXAuI24naxrx5BEAE75FptNU8OayyAI8xfJncR/AhetcjN6hZA4E/lQgtEi3GLhOcBSYGkA/2vh68D3i/B7YMTCngDGKjCedc5FrRXGIguLQldx+RLgtcApteNGoctsMbiq17fgnLTvWbi+CHdZ2FyOFhpsSugqBlsR1qzUxNls2mc8xToiN6E1CcVZSudsUzhFnFUhMGo304yHgJUl+B9tCiFxJloh0Nb1w5nG9QV7M/BEA0+08M84K/9PBh6w8EABHiy6cMwwLsF6l4HRWq7NWE3EjeOq4yYCN6KmGjhBZabcAecA8ywcYGGegYNxjTAPA04Gnmzgydb15xKtE2nzcNWvLwV+bOCLRfgm8JtS8tDfbpPCObPpnLMosw8nkr63EMZN9M+Rd87ZOLBtaPp+C5A4aybkbyzAV7UphMSZaBll2DgA51pn378PJ57A5XP9We2r/kY3jgvjTNQuZhUDE9Y5KxaohO67Dfe/oRZqx8Ac474fgAs3LUDOWDtSAF4IPB84C7i7CJ+x8NVyzGHPQzBe3L/XVh7sDWvOoplyc84SuYcpYsvbTF1Cu3Hn2nE6vPfjiwauXplNzqUQEmciOoPw0ABcYp3QOhNYOMPL59S+DtKW67nz9mTgRODVBtYV4Q4Ln8c5qyMRm3NuqQmZuXHfQArlnrk4C9zDSVR25Lzvttn9qw0LyDmrF82/C+HikgoARI8id6Q9Bdqug2CphctREqyY+fw9AHgSsMrA3QY+HcIHivDi/lncGOPyecZyfs9Rcs4wKcKaxHDOWtBKY7uVczYbI9aNZtqgTSF6+QlctCFFqCyHqypwD1ACnqGtImZhHvCy2tcWA38YgHss/NDCN8vwYJ0w2WwSOlQp4kyRnDObwjkzLswfhWqQ0JlJURCwDddjbipzgKN1+D5yaH3dwpfSFr0I0elP3qJNudwNqP6Ggb8HfoC6YovoHIEbpfUu4HoDd/XDtf2u2GMvm0mX25VE1EQRZ5gU72syunM2YpM3uoVkqWfbCnXOWehap8zVIQs4N7dU7qCej0JInPUgg67P2T1z4DXAjbRmFqDo7HP8IOBYAy8xU/pp1cKaiUSQSZgTbyK20kjjnM2LHhLdSfLPMeVbPHG2qu7zB/AYHaYAVA2sLcEvtCmELtyiI7gMdlbgYuBcXN8zIeKyoPblFJBzzhLlnKWoVsy8lUYl+vimnTbfBs+TxhVh1G9LFQM4vhXCR7UZhJA46yjWwEQInzLORfs0KjEX8cXZI535y04oPZxEayVtcjaRQ7Xm3BjOmcn3HBqrCeJ65JzBdgNrA9e3UQiJM22CzmLIjfD5HfBO4HxcRZPVlhFRxJmZ4pzVWJ9kQUkdp7GI1ZppxNmlTnBFyc/ckfO5M9FInBlVaoa4KuOfDupaJoTEWSdTgtESfAh4G66/lYoFxKzizNaJMwvr8hQo17l1zRbWtKRrpUFEAThM8gkLJPjb8SZhzV4XZxstfLi8fxWrEBJnomNF2g+t6xb/TjR/TsxMgTpxFjjnLG+3Yg+zt0lIVUUasU/azpw/+zgKa9ZTtfCxMtyt01MIibOuogxbLXzSwqsM3En+4RrRIRg4aMWU8z5sjTgbnUWcpXbOIlZ7pq3WjC3O6p2zi1yPs0N7+JD8dQDX6cwUYjpqQts9Ai0E/gT8wwC8xsJ7gb/CdZAXYq9oWTThHLSw9v91pg3FmU3ffy1KWHMnCQsCEm6w4cG6hPd5cJTt3evwGLDCwi6dmUJMR85ZFzIIXzJwBk6g/VJbREwVZ3bKeW/gARK000gp6GYTZwTpw5qRnLMcW2lYYGODHx7Zww/JX7Tw/ZJcfiEkznpIoD0cwL8ALwf+GRe+qmjL9DYGFhWmn/eTFjbFXU6YXpzNdCzaMKU4sxHCohZ2pPwccf7W2saVsUf1qDh7ALhFkwCEkDjrOVZBtQQPluCaAP7SuOrOP6KZdb3MotCFNfdeAGyQsJ1GSnFWnUVEps05izIiKnG1ZgLn0NJgkHfNOSv02DEYAt8CvqPTUQiJs14XahsGnYP2txZWAn/QVulJFpop5711js66NhNn1qYUZyZaqHb36vxaaVjTIKxpejOsucXC6pKcfCEkzoSjBHdbKBv4a2Ax7sYsJ613WMT0nDNLGzpnhfQFAbOJuzHy7Q3YLKx5RA+Ks2tH4L91KgohcSamMAQTg06UXRnCc3DzOu9C+R+9wEI7JYwWNhcNmV047Ox9znxUa87296MmfaPbOIRzGoQ1gcPorbDmL4FbPqgiACEkzkRjShAOwcMluNHAy4BzgNvJ30kR+bFoaliznNA5S1OtaSI4Z+Qgzmy+4mznnrqHnze7dmkLST6qtNMYBa6xbp6rEGIG1OdMADDoGtfeMQBfDOEEA6cB7wKeSu8lLHe1OKt/KDOwHRfmmx9DYKW9Sc9YrUn6as3xWd7jHvINa26YUydoT6gbRN/lWNw0ky+XlUYhxKzIORP1Im2kDL+2cH0ALwTeAHwOV/o+qi3UFeKsXmyPAQ/FWUiY4g0UojlnWRcEjKYRZ3H7oxnYUO829jlx1itNoncA15dhq05BIWZHzploSO3pdhfwJeBLy+D4EE4HXgw8GThJx09HclB9R/qay7QZOD6G2Egc1qy4fK8Zc84q2RcE+Mg5szFeuN+YLAMH2t5xzr56D3xFp58Q0ZBzJiKxCtaXnJt2BvC3wDuA20jQwFS0/KQ/qO7/zQZyZyX89zB7G4Ws+5ztsSmcswRh3Y314sw612xBDxxymyxc/gUVAQgRGTkfIq5IGwV+vRR+W4Av4BKan27hlbivY4C5uIHORlus/QhdaHPq/8dNzLCmh7vsnpkWvyulcxbA+CzvcU/O1ZrrGmy2BT0iztYauFdnnhASZyJjhlza0e7a14PAN5fBkhCeDfwl8Oe4MNlR9GYvp7bFwMF1F4Gxao7OWe09DNfythoJ+OoNKRuUhhEKAsJ0OWexnjwMbBrcX5xZut9N+pGBzw+q4awQEmeiNaxybsePal/0w2MNnAycAJwCPAmXr3aCtlbrsHXO2UqYLOYszqzLZ2xG2nyzKIPP8+xzNmLdqKj6bXCvcTmdL6udH3O67FDbBdw82Li/mxBC4ky0grK7KG8AWAbzQpfrdJCFRwVOpD3DwjNw7ToOx+VAmrrvwjOmTpzV2IoLNUaqHgxSOj4Whk3z3415+Ixjs7zB0fnpc86iboMtjQRnGbYPwKUWrrJwLHCugdfTHaFOC/y/CnxKZ5wQEmeiTam5auM1EbB+AH4F/CtgAgiqcEgBHm/hRAsnGvf9BOCQmmCYh+vDtff7HG3VxDQSZ9twIepcWjtMGTpuGvwutXMWJay5PL9Q2+Zmn2nQbYdh4L73wl2HwDfdjzmuw4+xYQMr1sycWyiEkDgT7cTg9HybKi6sthn46dTXLYGDAjjaOGdt79dhU74OAQ6d8nUwDRqtilnF2daaODs8r5v3DL8b87D88Zm1G7vTLDxmztnmMILgvNGdB7cXndN2E/DYDj7GPhbWnctCCIkz0SWshhHgj7WvaSyFeQXn9BxQa0sw3zpXbb6BR1k40sDRwBEWjjJwJK5A4ShmnmnY1VWmtrlzFrnJcJg+kX2YJssw2eecVXDHVVp9FpUtcT7TJHxrDnwQWIVzijuN3wAfLqfrVSyExJkQncjQvlDpjvrfDYCpgilAYPfPYzPGCbPDbO0rgEMtHG7hMFP7sk7AHUpNANbEnGH68hr9e6prV+/gzfR/M+Wr2etn0CORRKUxdX3Oan+81cZwkzyUGO6aYdlexNkM77FKSucsZs7Z5jif6Qqo9MPXDLwHVyjQSewBbqzCn3SFEkLiTIhpTAmbzvT0PkyM/ktXQLDV9XCbZ2Cuhfl97vtcnGs3x8C8mosX1Na/oE40Tf2/sXCA2ff/oLacvf8vBM45mVV0Wfe6qOfzbxoope0HxRAsHqzF4RnEjY+CgJnEmQ/nLA5byjGLDwrw+9C1qOkkcWaBHwOfXq35mUJInAmRBxc7oTeGn5yotuI6qNbaaYREcOtMSvOs1uesGV4KAphZnOWVczaGCxnHYhVUiq4xcKT90SbsBgZL8LCuFkKkQ0nTQoi9bCSnPKFw5j5nYx6Wn3XOWRzBsi3JH1r3HjupSe1NFn6g00gIiTMhRAeKswB2NhMeNvuCgKrNL+ds1CYUZyZ6HmE78PMQriwrnCmExJkQwh/WibNIN9cwfVhz1wy/85JzNsOvK0FKcRaD0SChOMMVbnSCONsGlPpynjIhRDejnDMhxF5Bk5tzZmYoCLDZ9zmrhinDmhZsRNU0CmyPu/xznSg7vAPEWQX4fAhfK6l1hhDekHMmhIgtztJeOPY45yyzPme1z9Hss1SCHHPOjGvwG4uFro3Lwg44bP4rhBVDmgQghMSZEMI/Iy4sNZrHuua68GmzdflwzizN21dUbD5hTQtsX5VgwLqFI2jQj67N+IOFc4bgfp09QkicCSEy4FonmDbktDqLKwpo9ItxT8tvJoqq8/MpCAiBTQkvzEfS3s7ZNguLq3C3zhwhJM6EENlybx4rqZUhDjf5XdbibGJ5zKawjRYegRC4L+EqHoebTtGO7AJWA19dozwzITJBBQFCiKmsi6g6UlVr2n03+Ua/8xXWnGjy8x05bcuqTSDOlkCfhZNwkybajUng+gpcsyalwBVCNEfOmRDiEUxEcRakF2fWNglrenLO9gqJRuQlzkJckUUsCi6c+eQ2PUSuKcCqNQny6IQQ0ZFzJoSYSqSwpk3Z4qH2x7ua/K7tnbOoOWdBspyzRcAT2+y4qAA3WxhamV+POCF6FjlnQoipomN9xNdl5pyFHpwzO3O1pg/nLMrnr/QlEGcWjgGe0GbC7ONVKJaTN9QVQkicCSGSUHXCZdiHMplF3M1UEOBjQkAeztlsbL0sZj+1IgQGXkL7RDVC4Drg4tUSZkJInAkh8sc4l2TWvlXWg3NG84KATKs1TYKO/QlZl2D7F4BXtcnhMAGsMbCylN82E0JInAkh6pgkv6aiO5v83Mfgc2uaiDPbfL2xlB+zC9T1Cd73ccAz2+A42AlcUYBVg/kVUAghaqggQAgxVXRUTA7irBYWHG7yxOilIMA2zjmz1lNYM4J1uC7uckPnms1p8WHwILBqD3zkarXLEELiTAjRWqKGNT1Y7raZOPPR5yycwTkL8nOC1if4m9fR2ojGn4AP9MHXr3bHghBC4kwI0UpCmAyiOWepcs6qToEMN0ms9xLWpHlBgI+wpp1tGwQxxdkAnGrhFFK2KUm+6/mVhfcX4MeXp6/5EEKkQDlnQohHGHK66aGs17N6BucszLbPGeSU3G5jNqC18CLg8Bbs9nHg08CbyvCjVRJmQrQcOWdCiHp24iopF86kfDww2uiHxkP3eevCmg1zzioenLMIbLVNPl8j+uEQ4C+A+Tnv62EDaw18aJUqMoWQOBNCtCcWdhonYDIVZwFUavllUwVJaDwM054hrDkexBBNMyx/tm3wgImRs2XgeOA5Oe7mELjfwvkBfHmVEv+FkDgTQrQvteawszWiTa3PrAuhjtaJswlPy27onBnYYfIJ291vI4qzAShYeCHwmJx28QTw78DSMvxaR7wQEmdCiDan5pzNKM48JatWcXMaD53ys3Ef4qyZc2Y9VWpG6HP2gI3unB0AvCun3bsVuAK4pQRbdLQLIXEmhOgAasIsj7ysCvuHGL04Z8b1M2sU1txBPs7ZAyZiqDCE0ww8LeP3Exq4O4TzArhr0ENenxBC4kwIkRO7YfjAfHqBVRuJM+tBPM3Q58zL54qQc/ZglJyzCyAI4GzrxjZlJhSBO6uwekhumRAdgVppCCGmca1znbbUxFNDrJ+k/YbizHjKOWsyIcCX6JztPW4enGH77WW+6232vIx2ZQX4IvCu4+FiCTMhOgc5Z0KIRk9tm2o5U4Umwio1IVRNRs5ZoUlYszZX04f4m4kRIoSFz3eb8e3AIs+7zwL3GVhl4f8qt0wIiTMhRBdg3ZSASWBeo99XPQicWiuNzJwzGjhngadeXmbfOhoRpdqVA+GpwEs8XodDYBvwWQNl4L6SB4dTCCFxJoRoDx5g5pwpn600puKtWtM2r9bM2jnbaWdxzpbCHAsvNfAkT/trO/A14KMV+MEadfkXQuJMCNF13D+LOEvtyARQDTNyzmpkmXM2E7uC2VuRPArXPiNthHg38AXgVgM/G3STHYQQEmdCiG6jCpsKGXeNtxlWa06CLTih10iceXHOZlBVw+EsIsnCa40LayYVnbssfN3C1Qb+uwB7NBNTCIkzIUQXsxp2FJ3AOKbR742fdhcV45yfaeLMh3ia72ZoTjR43zt9FDMEzJxzVpnBOVsKBxv4QILV7gHuMfBtCx8vwz06UoWQOBNC9BYbgCc0+Z2XnDOTURParWAXwWQj5yxjhykEHr5ihpBwAP8AnBxjmduBrwNftfCTEtyrQ1OI7kZ9zoQQzcTTvTM81aUWOENOyOxXEOAjrHl949ma1dqgdU+bpyEV4MFmfzQAh+PE2ZxZBN448EsDFxl4roH3TsAnyxJmQvQEcs6EEA0xMwiBij/3aawmRvY+KPosCKhvAjtC9HmXMxLSNOesgium2I/LwEzAy3Gjmhr9+S5gE/Bz4PYQvl+A8UHlkgkhcSaEEDXWNftF4E8w7GF6PzUvYc0pQqnKvka6u4nQtT8KM+ScNXXOxuFg4HRg4ZQfTwK/An5i4KfATwbhTzr0hJA4E0KI/TBwbzOVZP06Z9PEmfXrnIV14qyS8WabNK5HXCOOsfCSWp7dz4FvGPhBCBsCeGjQX8hVCCFxJoToRkJYb6aHHB+h4ElAWRirGxDuO6xZYV9+14jJJ6z5QJNf3N8Hr7LwBwOjBioBhApbCiEkzoQQkTAuR+th4MgG4iT0tI69ztlexo1/52wvIzZ752xivElYc42bGvAzHVlCiNlQtaYQohkhsLHZLzyxp06cTXhc/F7nbC/ecs5qrlkjEfnQ2oyb9wohJM6EED2KhdA2EWcF/zlnj4iz0K9zVq0TZxV/m6fhD9fryBFCSJwJITLBuCaxDcWZ51Ya03LOPOazNRJn1Sy3WSBxJoSQOBNCZEjTsCb+W2nsFYTecs7M/uJsJPTknM1QxSpxJoSQOBNCZEM1h7CmrQtrWpiYzC6sOVLIuCDAqoO/EELiTAiRFashNK7y0DZQPb7crf1yzgr+m9A+Is58OWfNCgIKcs6EEBJnQogssS5Pa3sDcZJVWHNiboYFAWVPlaBN3uAkTUY3CSGExJkQwtcFYjewtf7nvioqJ+sKAiyMr8hGnFVwnyVLHgzdwHIhhJA4E0JkRkNx5osrnJiZnK7X/GCm9zmbxLl0vpZt2V9E3ofXFnBCiF5FEwKEEE2xbg7ktgbixKcI2VMTOvVNY9MydULABNk7Z/eRcasOIURvIOdMCDGTOGvonFm/8yB31cRZBY/OWV2fswk8Ome2uTiTcyaEkDgTQmRH2Tln+4mzQkbizOfsy7qw5kTNBcwSiTMhhMSZECJ7LGyhztGq+hVnwzVxNmk8irM652zSZC/ONhqJMyGExJkQImsMPERdFaLnC8cjzlmG4mzCegxr7lvFI4TAlkGJMyGExJkQImssbK4TZ9ZjnzPM9LCm72rNR8RZ4NE5a/D5twEjOlqEEBJnQog8LhIP4fqRZSX+9oqzSTIMa1q/4qy2imnibFRHixBC4kwIkTl2/7Cm9byKLAsCMnHO2L/P2TabfasOIYTEmRBCQF/G3BIbfAAAA6VJREFU4sxMb6XhU5xNna05EXoUZw02wLZAzpkQQuJMCJEHl7uQ5rasxJmdXhAw6XHR05yzkt98tvrtsLUq50wIIXEmhMiR9VPESFbizGvO2RRxZnHtOny+5/3Cmjv8V4MKISTOhBCiKetyEGdew5rBdHG2I4Ntsnc7VIAtN/nPxRNCSJwJIURTMnPOCvua0Hod3zS+b0JA6Fuc1W2AMVxenhBCSJwJIXJjHRk5Q5WMmtAunO6c7fT5ns30sOa4cb3ghBBC4kwI0RJx5lWkbXFVjpO4XmTexNkl08XZ9gy3zXgocSaEkDgTQuTJJGwCJrIQZ7eAtS606btak5o4C22D4e1psHLOhBASZ0KIVjLHCbP7sxBnAMaFHSuh32rNmq4kBB7O4ML5iDgrSJwJISTOhBA5Y3Ghzb3/9i3QhoHJgn/nbBKoGs/OWVgnLFdqrqYQQuJMCJEnxg07nyrOfLMTmDhoX+jUpzjz7pxNFagWNugIEUL4pE+bQAgxG6ETIutNRuLMwg4DfUunm1I+mACq1rM4M9NF2nodIUIIn8g5E0JEEU9Tw5reMa4PWRbjjyaA0QWel233fZM4E0JInAkh8mfIhTXXT9cmXslKnE0Cmy/xP6x9rzCzRmFNIYRnFNYUQkRlGzBu/YceMa4PWSEjcZZl9345Z0II78g5E0JEZQx4yID1feGwsD3MzjnzLs6mOGfVADbq0BBCSJwJIVrBeE3ohL7jmjXnrGPE2RQeHlcbDSGExJkQooXibDPZ5JxtN9kVBHhvEDulWnNDX0YzR4UQvYtyzoQQUQXJmK05Z74FWphRQYCFyWDfZANvVF0hAMC9SJwJITwj50wIEVWcZeacmYycM+PmXv4xg+Xu5U9W4kwIIXEmhGgFq2ptKfA//5KqE2dZ5IZtsBlUU04RZHLOhBDeUVhTCBGHrWSQAF+AUQv/43u54/A9/I+EekSjWfhTVeJMCCFxJoRoFQa22QzEWcnlse30vdwrXSjWvypzOWcjBraskTgTQkicCSFahYWtFnZpSwBwv3G934QQQuJMCNEytgYSZ3t5wEqcCSEyQAUBQojIhM45G0GhPItr0SFxJoSQOBNCtFScbQeGe12ZFVzOmcKaQgiJMyFEa1njRjdtymL4eYeJ1DCEjTajggMhRG+jnDMhRNwnunuBai9vg3muPcdDl2bQ800IISTOhBCxCJ0462nn7FL3+UMdDUIIiTMhRMupjUOqaksIIUQ2/H/tJZQAgDYzMAAAAABJRU5ErkJggg==;" vertex="1" parent="1">
          <mxGeometry y="20" width="195" height="195" as="geometry" />
        </mxCell>
        <mxCell id="826YfGAfoeWJMJrcTG79-2" value="" style="shape=image;verticalLabelPosition=bottom;labelBackgroundColor=default;verticalAlign=top;aspect=fixed;imageAspect=0;image=data:image/png,iVBORw0KGgoAAAANSUhEUgAAAmcAAAJnCAYAAADSsvQRAAAcnHpUWHRSYXcgcHJvZmlsZSB0eXBlIGV4aWYAAHjapZtplhy3coX/YxVeAuYAloPxHO/Ay/d3UUU+kZLeYLOlrmZ1ViYyhjsEku78z39f91/8qT14l4u12mv1/Mk99zj4ofnPn/G+B5/f9/enmo/fd3953/38ReStxGv6/KLVz2v48f73Az9ew+Cn8ocTtfX9xfz1Fz1/XmP77UTfCyWtSEvY3xP174lS/PwifE8wxvdWerM/3sI8n9fv5z9h4H+nb/b9sLfvy29/z0b0duE6KcaTQvJ8T+m7gKT/k0uDH/L7XjiQg/g5pPZ557sSAvJXcfr5p7Oiq6Xmvzzol6z8/Cn89fvu92zl+D0k/Rbk+vP1L993ofx1Vl7o/3Dl3L4/xV/fJ9n9s6Lfoq//793tvnvmLkauhLp+b+rHrbyfOG5yCV26OZZWyU6lhhqv+up8Nap6UQrbLy46+bmHSCZuyGGHEW4473WFxRJzPC4aP8S4YnpvtmSxx5WUv6yvcKOlnjZ5jGm9tOcUf64lvMt2v9y7WuPKO3BoDJws8JH/+Mv9px+4V60Qgm8/Y8W6YlSwWYYyp+8cRkbC/Qa1vAD/+Pr9j/KayGBRlNUincDOzylmCf9AgvQSnTiw8Pppm2D7ewJCxKULiwmJDJC1kEqowVuMFgKBbCRosPSYcpxkIJQSN4uMOaVKblrUpfmIhXdoLJG3He8DZmSipJqM3PQ0SFbOhfqx3KihUVLJpZRarLTSy6ip5lpqrVYFisOSZWfFqpk16zZaarmVVpu11nobPfYEaJZeu/XWex+Daw7OPPj04IAxZpxp5lncrNNmm32ORfmsvMqqy1ZbfY0dd9rgx67bdtt9jxMOpXTyKaceO+30My6ldpO7+ZZbr912+x0/s/ZN65++/oOshW/W4suUDrSfWeNdsx+nCIKTopyRsOhyIOOmFFDQUTnzLeQclTnlzHfgD8xjkUU520EZI4P5hFhu+JE7Fz8ZVeb+X3lzln/JW/y/Zs4pdf9h5v6ct7/K2hYNrZexTxcqqD7Rffz+tBHbENn96dX9fGPsPQuLSHet3TPnj4n1cFtEZ/dRIpHiLk5pcU6YPfTUSMAAq451l1hsyHZnKaP7PcA02ysf2/nGShwOwYzp9nwrgS2xVw69e4GoN8+2s63Dyd2dxmlL3dRNWLlO7pH8lVDaJNI2ZwJSrWX68Z7QhpqYfIaS/R2emHM75NmFmGf13BkFc6Nv6/hFjV7Ouknn5gYDi26rjl6EuT2sm1bZyAwyGkG6Mtoebp/AfXHRfhdZvLrHeblpf9dp93C2e/vJ8/ZdxhDkLEtrJr9YAmVze0irD1cBdH9WLJ5PF7JK6ConOM0f8l7ymmP0dRclvWxywW4ltTLP9bVw8bFJQbgupV4trHlmXbcTxX0f0K52kCG1jV0REL1sKz1osXNvVk7UGiB4tiduRi+6Ui8RSbXt0js1hrgYpxs3qwiwsDZesUzqO/59GUX3d7/oGUg9AtwzaXziSQsniB/2O36XRn0ABadBo0ZROTqxjXwilb52DMQzB4tkpfXEvSruA4zZN1NULV6+tbZmsHJ0PoovphZzd/ku7pY7Zw309M5jWKlTt5XrOZUTnBlXDTufTEGVnOr0vcWN8uqL66tq6bW9x4XKy8ybHg2pE0nP4lj4GbmwrJ4B5covEp2+IwhhM7dxUrdwkwBgjgr3j2I9NFq6sxo6a9VONXMyEoaSK9n20G3No5yubhBTnGPuyQX68dSUhTjdWffEtra6lmM3YgSdWe81sKNa20owkb+6conqOAPlqMxICVug/3bIhWADg/ohFynaf/s1jglA+U2xpQJAbjeGwjGTZM7sFE/aFfJUK4xjfBKkG8QIiJ7j0P5cf6xRCgtEx5CDkqiS5tZONOy5fJzYcC7aE8zhvzJxFguAXAeWmEKOtLxadICFtnei+0+cIFIGRjahQ/0HIN2S4IaPb2C3kCdfiSYsk0fdoImtUv0peaLbGuxDN3E8a2txHVdIk+DFBMyXG0+CBgBxpWkDngJLGjk4OCAqu+RNzVEsN0a4ZthKEO1K5qbAkVUSvfzRtMhJyKaXGMuaE+FyLlcq1B+CJOfer9WxWAvVQUeCD6kGsjZzuZBMyrsaSD3XCnYGsNl6LEd4m4PEqU0CAiRSFIF7AjI4xaGkCPXdx1URRwwCL7Ct79imWgYoWbPQP2dCLiz3jDMnWHTrer/tBVWLF1u4ITqb9APmEFoXZFgO4tGJ9q2joH9pNBqL66ZLTVQRC+dsfFif9W0sOosqDdfcDoBdXySbrB7f0Qg9NgoNfJoQEIEmsmE3QGCUe26Y6iaAz6iVnA44B4JON2gF4j6bBd6rU1aD8iPnMEoekSsCn62IaqudjDjIqA6vb2jqWLgNJEVwCyIDn3cJMMcCiEnj8mVM2sza5O6o7AEIg2Xc5kUhnFjpL+5o4oKBkiSKcmFXVnprEr0WAA19sNajXjq50Jxr1rcMCi1WLaEWKNe4IRjjsS6qqjibCC5xcj1N2JGg10buFikqrAXC5Qp7xWuqKe75lzYvUiUcUl1IF7zk4jRAhEhLMa4NO+Z8WCViiyyXcRT9ki6AXOGRotL3cWE2Y01A43ZJfdm4l7VQKxaxR1vrgE8yn91GAKQgUoegZkHtkBkSlqCaw3HUdym0riOj3KIIwIMqk9MA17lL3amyvEeqieJ4r+xDAyadjzYBeD33Dsogd6ijCo+i2caVU6PcOspJykT8uj0STOZqoaoq0upsbtTg08u7EFQHJyhGwCFopJHDgRr2pEPHo7bwiSpN/NurPJyVuLwdYKYdenKgkPak11AEyIhz5kPpSkaRyyZupP7AfhTr7g3hwCr92QZMLo0BUKIbHgqQ2anpZjVtgGTOQBzPRlAsGPi+sZpoXz/Udw21M+hQDGL0lFwR0kkCL/CUuImAYNpzekaiwGrwhdHs5bIQmGMkKscAmINwVasATxQ3sogWq0bPQmwFNUKJTmdNjpteCuBtvl9zwKVHOyBAFR4XmhHy6ZTDTWSLDPZFClki7QFFA7tO2FIuqBAJxZyhilNh506rEPkjuVQmcLT+UmqgAufkSttBrcWnTHHGRAL3TVi6hf6f0C/CC16nJ2Y4i1V7aLYF6DShSXgxBJFRyUhXB7wfAQ8xSPVWbArVQCEdm4mL+A0ikCZOSNeQ+RO50KlI8AzshU0FV3W7GyInCLBP9B6CKyWQY3asFnlHBQGXpfQjQA8dPpGWrId6pQ7QK0AtnUnnOlrReuS6oR9uLdpYwCFl8NVZXopHv7gIqmhcBY0HR46FVCLPIFLpmAuHJZziODCMrgW7ucdyiRpZSAHPoMVzIbvjrXNohSPjP9FbBFQtQtUOYXbmJF2wneCGg8agiR/ibNU3ct7S65G0oxr66hSsjHcoxtynVWQpGnK2ziLPRoRBQFSkAitBGtqddCergMNICOWJbJsIWr9gQPTr3Bnss6ETAQIsjUDDJkAaEQoHjKqqcAlxZRQIRHYQfPkTJDpAcLnMVr65RbCYFgkUgRSdRCH9tCIk3JGsUa6uHygto706AYQNxuTU0jToHu6b0sej0IQgiSN6NMONsDI9UI8qndsbnMqvrrJTcpccH2A/I7RGTEMmGEs+mexlaCE50MBkFW85aBB8Ub/g0fgoBewiMJsxZnt3WIhyv9gHbm1QvHQg3b9aXtU3xxobWou+IRiEBxDe+0df/YEtYEsMmACgsIaCfAPZ68sJSqJi/PAhAQVlMm0tgcnU0ITRTB07pNO4d4LA+gBb6zXQpHjv46uAEE1bC0Dt1ilUNWm5eZw8ADaJXpQuhRdQMREJg+HFEaENASlqFl0DiFLdOcvpeN5azYEfSKYi/qJgseQJikQCkJ3NnaBOIFoSot68/gz4xKPHl+nOOqcGkwqKzqFtPRoesYFowbkvFBRMksT4uwHszbDgnrgcGRRwF2naKYkKYNGSNEFFxBRH7Js0jRqmJrzX5WoTBI20PrWH9UOk0kQRvGXdWS6ItvWI+CDoBYuBh+EWwmHsJX0KahQN3CnWTf2HpUtT6Cg+ILJT0FAOUuciZ3BRsZVIDCofxOyQ/pMaOkA23GeTLRvy6nw1AE1VkPekROkj4GeoiUlBH8A4yNmNv6V9hqNTMD3ozFjACpoJlOAjgyKGd3FtsjV0X20hoivf0KBEub7QqHM7hhOjp52BNaAL1TRlHzyLMFBACfRUM8qPgq1ryJFOOuXQwWJ2yg5WM6gGkkOpunr2JPBg2MItgv9kdYe6V0XVIBRZbo/IuIYwpJSAZVaNCkFIrDMA1IyohlJdgBeoPkq5Gl70rompoDwaV62JTq295VZ7qpQBVXblsfnk6uAKoLYFXv2Y69B9g/yu3FrBJw18AoUH/AKTqrYW0oIvJOrVl4Y/goU4XRLTRJw/8qk4JNRMd2l8DXI9aUeLiF1/0yPEQEiKC6WqgetjXIp6rMAOEOhEEJqcBNhPfY7rtyWTQeSBF9RAXzQVogDMAMKJuC48vOTIXiioC6i06/CmhpfGYlCVuIUOSscZPDpQVh1dTOdcPmPAMXLVYx6znD0wqAkkkh5jno7j5PNA7kHQvpB+1BwumDVFithTL5FOrNAlfEWRNfi2zo9wWnQRwgnnN6IzUyviGqQSUI1QAJ6L25HwAlpA84ScxkzQ0VDrxbkVyB89BaRvVFQKksIu03Rh05dQyKLJuQeoGyimpoO1cOtUdCWETot4n6wdL6Rb8coC5I1UBXZdjTfS/xSJhoIT/YPf4h6BZvgBG4hTQGM2Sg9tn/EbiNVQVoWY4kj9+ULAyWHms+bVEjFwJMaxktgEm0fMnmBPikujEJ1Y4ynWd5LGVcBtBVsJAcznTpThrmYrCtQwE6nRhfhAo4IQk2cvMVeMERGwQW3+fp88Q/s0GrUB7nM7dGbT9gZditTWfAl9yaJBLDoQtMWF8VHKf0rxew1CsYYWvLqdyoPHQA3vlM2NF9YQC2g1pCipontJl8zngSrWVDzgPTty47Q1AiBURD/5odnBCu8+u3zNc9fcpEVqhZsUXtGxM7yBL+jfcwUQl7ZcdsJZgR1ZzUsjEFqS7HafHIk+bXy4IRxo5wY+oUlJWE97SRmEHOZFmsf1XC6FJ2tCf+LQ3+ePi0hbsDJTJxVJcFY8rVmV6JB7oiFoPdqJPsCP78Rp+Q7MTZwPmVyYPVCuEaMumSU8px/oytUiEkscQLAmCgEK5DPA6gG05Q5CPHwW6ZeVCU3HEMFvVkv1SOf3ImGpBI6bPUwPq40/+Zvb5t2oyTuJpdzyjcgLc0CCcrr8H39fLqCCO62blqeAClauIlo5FXq/gCOIXBjyCiZ67/UmxxINzr04RBXXmzKAGHzXEBq04KeTSMlFy18ovKIdMIvjlyNHc3ax7XgvArbiQ5n1TNuU7/76Nx8FJLEC3hrYsOrn02DP8cajyN/tNHSgHwWcO3ttHQTxQ9fGAVVxpS3aYyW5r6yRCPR1cvaY94T5I0OwKjAC3MHRATqlOfKs+GmbtE8EpauoB1NQUZ0aqEllCrOEDmFptPjm8jFvuF9DeRI3PTmoIgGwMeHY8B8Q6QSOQ4LPZdELwQWNh11114sRNidh6KQhEVzddPZBTz4dmGTO57wKEGAQPD4FS39o0zTjrZrpd82b7znKFO6zV4feAaYQr2gwBK9Uz6KgixirztPQ20vXvrwnkUQKokzXibT0CBgoPA4d6lDkWC7a50ejDL+WgGTRaOfKBnPHkhxStJAexKWdMKDix4CDThRCChclBWjASNsgpTbSGFzn0j1poAiRNmMlmbZP9bM3cnE96JUg6Pa0O+mndP2bJ1N++JrWKDdin6rEFVcOT07j8BEfrUcNLj7lNXPqP30pqlYzDWkDQgX8QykhRCKKGIsAo+ZnEjSd7GA1qrb7b/T1TA02aFC9yYK8Q3enJuWLxpEIjK8A/tARADXsgxp7uzBd4zvQbSoBtHV9RUA6nDaIikazEnh1qWk9ld+0xqn9Bbwd2rxPLpM/tzQ8a/rdc7utC3Q0BmsAXFColI4kFx6awHx2Qy6encWyuqYhJJflcFo0XBQKhAnXufQhlQ40TiEuWoAGhiah3Vr16EXQiEK7Z4VoHUiXytNoB2GwOucHFZFbLuPaNyjOqTj6bKJJwVE0OBrKWRj5HrfAGuPFT1hYQ6oqhHGPJqHaYmoswV1pdMuyvfASNkODzI3xhuawudyJTU10gJFJICdxpQ8+kdF8xb67JQr2pEGRndQvJYi8xVOgODS0hHooWmT/mdZDFlaWJwgeZhoy0iJSAPwH2A5mhVPRjbD6p+o56/YKPNobD/DBQrTkRf5DjoH21rBds8TP1MljaqrSAOKtqynllBGe41u69MX4AZI/XpNEE7oLkwLFo3YLEoXKd/kNW8NORfqOi5gGTuR6zjYpPnQFYaK4oaB0NDFNctHopqtnKMocrzRhEe1YKXBD+we/X74QI7oF/LWpaRaiUmSAA4Ol6eomFyCTU52MHsRWkbnDGzC14BSjjq9mwhj8szACH0yCyNHUdCf+ep7tabRzhdq+q7I7VI2NWPKhmTbXY00NuAUxhp752VeXRIkNlZnIAOJeFJRA5tn7BAdTRxjLhIgiZIGy7pdSz0RiXrALLcDhlybHd1aPEe+q+xsXAQQu8NgTe7orBKmtZFINoIenw3BWGs/jd5OFSFQllrgRiVxSICuD3VvQp6wSGhY25Cj3A6VgC/9zjKb9iiaeBV2jorcWJvdq+IX7124M3JctDADrEbUvrgMQkK3pOsIZRBC6M8J8jTJLUCXtvYYMytJmfiE+J+XaQUhY+pHRCD2680gnyOfiajrJAnYyFYDGwm/4x6tw3AGADVVfCdExJBylTWvX67EDuEYHh4Tle4za00vP0rQlRyNVrpFI02ZpTJ7Ik9U3F+2ShqgwdLG29RP+X5WdNEqFcGNQULXr9iKFokl/2geFQmmHrOG5RosQm7aTGgjitOtMLHoZGr7decBW7bVsIYBmOMmeOloSzJKrWVtPTaOxA5blRmui8uA1MiRj4bVB8/oGriIMF0FJjMN3G00PtMg3U+bJa+dCE1YqoK71QXKHJm0/V07zp6TxCHUEV0KA0Cmc3OFdgI2mBwcDVf8GmRQp2g3MaggFRw+jTZomNYsO2Np7R6Aj4Xa49JJmjAOhge0v8Ivmd8CfhmH7UdIWhmFQHXywJ6ymDV2FXEU7v00aQV8KGzew2yS0NQi7Xv/vhQjBR0/0nh7AiE53C1lgnwaAYNoCgITu41aUYgcVqTK0PMgEFrahLT7qt8b1IXTt/uLDnXGGNB6CcknUbMK6Fo6kg1epmq4iwJEsS2MBVpEp0i2Qhfe+o7OqZyLq+9mKimTRy3lGWcMeNdCJiMESxohwUsQVYQZvh/ypUsobfux+SEi16R2ymdLzUvSDGqaUw83aacIMt6I9ByMnyv7b4gWqwVuS2sFYwCBCHZwI6feSpUEiAKBY9ZoQxpVY0iYTK/F20+K/3PPXXjaclReKc2qQIhOtHdWukTU/4DMWVgh9hUYOOLtMUDGAcAmC9aLIqkcMeGdrqYMwV56uOHORZC9BAZ0AoRVXp6mw6WEabnp7uh/+8wTzntA7wgdrfbaLVKqMEsIVd8TiKmmBGGnOS3nzziQuRZpRk2UZRPSrB++2pogc3BJmS73W30ME+q1pIPOe6JD3vmh66ocb5OwXG9PF5cADxpv2zMSZ2080bM+nACN6IglpRIURBCieAtHEpizp518wA4gqKyM1E8ZyabRPtJBtxkccB8pWPSH39mQl2L80QLdcVLOaa0vM4ctQRoAraeZvCavPZ1g5IaNpabb0noC5CF5CuN5pATjURkOWaWKgh3c1SudXywBVcMs+1WjvouG4+RzZbG/AU//Cn2UUcUBN0qL6HdY54rhoFlX9VK5oelw2mJq073Cg2yQqeZXZtHF3g4FM5QZ/pdMkeJI24iLGgIjoiRnNCNRWpdK0K4YIJ+mRAhywEBPtp7rvuOSrrSoOB7PIcZoGjaLaJFOHJqvqF6F0dvkaypL8ypLcYnaW/wcbxa1ip51QhenOWY5G1IA2wE3LU48UzJUFcZr/aYM5CMT4FY3bAPz+UWl5axPuqxgbNfO78Pn56v74xjzvMTcsTBvIxKytna6HtJA7FeKkLxFWLYIL8BAAnEAG7BKk0J02dbTB+jIC9z2ZsrUNTG5hQRsZTwJNw/z73S5wAvOWwF9WIKFBU4rhoOBuFLJ915/pVC9Li6prrUnQZJo1lSYLp+35ogf3snF1ZFO2lCGrA2UX6JHwTT1TgtlNYtgbsMultQKNCVUVuq2RgR6v5ZQZGcb1gSo9iYFb8dUFuXVAnevXor358nY/HyEWDQmx0IEMIHn1HIrp8ZlC1qmExMHU+kLf5e2gn4kY1Bb5IyCQa2sPW3Njwk67ku6o4TLNjs0GOluF4umSWPKHmalyes2iwR//slG2iVQWoSfIXg++hF+8nfuMO+ZtVfijd9HbejziTK8nwPBQMWtoZRR2J4gwQn63hWljnZ4PZ7jCcUG4fWdWoof6uqdXAuBW0bR66HDGQffTGZSA9tfBHm3/+qopa5bqhy+OFYcJQ0YiLCTP5GXMpm0YiM6hs+YmWhDcHVcD/U9HQO/p7dW/R39QBzhZd2CfmzwGCF12+/yhTTO64589bvbL68AdKQQysyOcBB8hemQEUkYj4iXXKV6ayHAG6015Sqxe4d9oW6AXXwHYg8OuaxaUdwQ7wWaipoc6utrhNg0m2iGJ7Q1iLY3AYlVgJLhoYAAIaAMLReAWlpkL6WES4otKO4vPToQdCr1O/HKHb0raJ7x+tF1ecSAN7k7hQa/+LumXuCE9Dwrg5MlFQO/2YDUmIRpMQVewmPVRRlDTqOlDF6aHGMfCbrpFzEEyzjPMsKTH5re79QST9lL3K4YRvEaYSyb8XSRwMaS+RpTQ4HWIqXd2owM8FTSPBstX5N/fwEmPiOvBiViOauBtuSInn9jhRNo9bH1Ht/0MS8ZnCSTfc0d/5BvtGpAjcntH/HQjl7QPBRGDo2db9dSZ47CkkUNZ6ENA4j0NiXvSMw32nmLQjjvriEuOBDA9WaM900R4WZe6AoupbJr0bQ9R+CheVHhOTV2+ySc3z+eBQM3mvMZziDZxFAKlzUuWPSGtPdfg1vNgeqIjvsxNdED3ny0bPXCz/u4Zkt9enf83D9SmTztdo1aCgUR4Y/2tfXrKw4AROO0R8vX8ipLHM7FuDEkM9It4CeJNqEuNzj/VQwUK14HETyHE9OZHYLjdRDKUtHBfRjwc0w2rpoKHVb2Gj0QFMYNDE2shMrQ5ceVwsRfZFXoza+R2b0Qy6sGBq381QqXg1JvqTY9MbAQBsmR/HIG2/0nIhBX0TFaZeiLq4Dm2Hu3FJgD/FfBEY2kRmp02/aOMavXto5NWbCn03br+HU/yeoRQz6OMizuSzn7P/hSNqmMv0mh6vCBqXCnc44wgA0rmaN8nnVJEk/cNLfvLLojnNNKL6FSOfhvjC/1hHztQ9C95/o7r/yn3/9NXCNxnOgn+PEf7AdpZ0MO2ZQEeybULUFTuMogO0EUw5JSb3Z+BghhDjzJn1EPX/DECb9yOV9wxOu/BqhLMYYWR1n7p32PUhpLUY9acM0GHQePJN/1Yi0Ye9CgJATNgIT2eia3XDECDjeuAGAMjNXzF2+GU/QILPYwOT0QAG67SJirI2uh8UXeeCz8NUaHnu56P5Q4pSGrg85iydkX+7dj+GDDde3d3/wvobYm3dSmpOwAAAYRpQ0NQSUNDIHByb2ZpbGUAAHicfZE9SMNAHMVfv6hItYMdRBwyVCcLokUcpYpFsFDaCq06mFz6BU0akhQXR8G14ODHYtXBxVlXB1dBEPwAcXVxUnSREv+XFFrEeHDcj3f3HnfvAG+rxhTDPwkoqqlnkgkhX1gVgq/wI4BBhBEXmaGlsos5uI6ve3j4ehfjWe7n/hwDctFggEcgnmOabhJvEM9smhrnfeIIq4gy8TnxhE4XJH7kuuTwG+eyzV6eGdFzmXniCLFQ7mGph1lFV4jjxFFZUSnfm3dY5rzFWak1WOee/IWhorqS5TrNUSSxhBTSECChgSpqMBGjVSXFQIb2Ey7+EdufJpdErioYORZQhwLR9oP/we9ujdL0lJMUSgCBF8v6GAOCu0C7aVnfx5bVPgF8z8CV2vXXW8DsJ+nNrhY9AsLbwMV1V5P2gMsdYPhJE3XRlnw0vaUS8H5G31QAhm6B/jWnt84+Th+AHHW1fAMcHALjZcped3l3X29v/57p9PcDcktyp0QbGKEAAA0YaVRYdFhNTDpjb20uYWRvYmUueG1wAAAAAAA8P3hwYWNrZXQgYmVnaW49Iu+7vyIgaWQ9Ilc1TTBNcENlaGlIenJlU3pOVGN6a2M5ZCI/Pgo8eDp4bXBtZXRhIHhtbG5zOng9ImFkb2JlOm5zOm1ldGEvIiB4OnhtcHRrPSJYTVAgQ29yZSA0LjQuMC1FeGl2MiI+CiA8cmRmOlJERiB4bWxuczpyZGY9Imh0dHA6Ly93d3cudzMub3JnLzE5OTkvMDIvMjItcmRmLXN5bnRheC1ucyMiPgogIDxyZGY6RGVzY3JpcHRpb24gcmRmOmFib3V0PSIiCiAgICB4bWxuczp4bXBNTT0iaHR0cDovL25zLmFkb2JlLmNvbS94YXAvMS4wL21tLyIKICAgIHhtbG5zOnN0RXZ0PSJodHRwOi8vbnMuYWRvYmUuY29tL3hhcC8xLjAvc1R5cGUvUmVzb3VyY2VFdmVudCMiCiAgICB4bWxuczpkYz0iaHR0cDovL3B1cmwub3JnL2RjL2VsZW1lbnRzLzEuMS8iCiAgICB4bWxuczpHSU1QPSJodHRwOi8vd3d3LmdpbXAub3JnL3htcC8iCiAgICB4bWxuczp0aWZmPSJodHRwOi8vbnMuYWRvYmUuY29tL3RpZmYvMS4wLyIKICAgIHhtbG5zOnhtcD0iaHR0cDovL25zLmFkb2JlLmNvbS94YXAvMS4wLyIKICAgeG1wTU06RG9jdW1lbnRJRD0iZ2ltcDpkb2NpZDpnaW1wOjFiN2FhYmZjLTZmYmUtNDE3Yi1hMWNiLTNlZjAyNjEyYzhjYyIKICAgeG1wTU06SW5zdGFuY2VJRD0ieG1wLmlpZDphMmE5YWQ1Yy0xNDY5LTQwMmYtOTJiZi04OWRhMzRhN2ViZDYiCiAgIHhtcE1NOk9yaWdpbmFsRG9jdW1lbnRJRD0ieG1wLmRpZDpkMWEyYTgxMS0wM2JhLTRiYmUtODFhMS1kODQ4MTYyZTVlMGMiCiAgIGRjOkZvcm1hdD0iaW1hZ2UvcG5nIgogICBHSU1QOkFQST0iMi4wIgogICBHSU1QOlBsYXRmb3JtPSJXaW5kb3dzIgogICBHSU1QOlRpbWVTdGFtcD0iMTY4MDcwNDI4NzA5Nzg1NyIKICAgR0lNUDpWZXJzaW9uPSIyLjEwLjMwIgogICB0aWZmOk9yaWVudGF0aW9uPSIxIgogICB4bXA6Q3JlYXRvclRvb2w9IkdJTVAgMi4xMCI+CiAgIDx4bXBNTTpIaXN0b3J5PgogICAgPHJkZjpTZXE+CiAgICAgPHJkZjpsaQogICAgICBzdEV2dDphY3Rpb249InNhdmVkIgogICAgICBzdEV2dDpjaGFuZ2VkPSIvIgogICAgICBzdEV2dDppbnN0YW5jZUlEPSJ4bXAuaWlkOmZkMmFkZjFlLThhMDctNGQ1OS1iOTczLWZiMTA2ZmZjODg2NyIKICAgICAgc3RFdnQ6c29mdHdhcmVBZ2VudD0iR2ltcCAyLjEwIChXaW5kb3dzKSIKICAgICAgc3RFdnQ6d2hlbj0iMjAyMy0wNC0wNVQxMDoxODowNyIvPgogICAgPC9yZGY6U2VxPgogICA8L3htcE1NOkhpc3Rvcnk+CiAgPC9yZGY6RGVzY3JpcHRpb24+CiA8L3JkZjpSREY+CjwveDp4bXBtZXRhPgogICAgICAgICAgICAgICAgICAgICAgICAgICAgICAgICAgICAgICAgICAgICAgICAgICAgICAgICAgICAgICAgICAgICAgICAgICAgICAgICAgICAgICAgICAgICAgICAgICAgCiAgICAgICAgICAgICAgICAgICAgICAgICAgICAgICAgICAgICAgICAgICAgICAgICAgICAgICAgICAgICAgICAgICAgICAgICAgICAgICAgICAgICAgICAgICAgICAgICAgICAKICAgICAgICAgICAgICAgICAgICAgICAgICAgICAgICAgICAgICAgICAgICAgICAgICAgICAgICAgICAgICAgICAgICAgICAgICAgICAgICAgICAgICAgICAgICAgICAgICAgIAogICAgICAgICAgICAgICAgICAgICAgICAgICAgICAgICAgICAgICAgICAgICAgICAgICAgICAgICAgICAgICAgICAgICAgICAgICAgICAgICAgICAgICAgICAgICAgICAgICAgCiAgICAgICAgICAgICAgICAgICAgICAgICAgICAgICAgICAgICAgICAgICAgICAgICAgICAgICAgICAgICAgICAgICAgICAgICAgICAgICAgICAgICAgICAgICAgICAgICAgICAKICAgICAgICAgICAgICAgICAgICAgICAgICAgICAgICAgICAgICAgICAgICAgICAgICAgICAgICAgICAgICAgICAgICAgICAgICAgICAgICAgICAgICAgICAgICAgICAgICAgIAogICAgICAgICAgICAgICAgICAgICAgICAgICAgICAgICAgICAgICAgICAgICAgICAgICAgICAgICAgICAgICAgICAgICAgICAgICAgICAgICAgICAgICAgICAgICAgICAgICAgCiAgICAgICAgICAgICAgICAgICAgICAgICAgICAgICAgICAgICAgICAgICAgICAgICAgICAgICAgICAgICAgICAgICAgICAgICAgICAgICAgICAgICAgICAgICAgICAgICAgICAKICAgICAgICAgICAgICAgICAgICAgICAgICAgICAgICAgICAgICAgICAgICAgICAgICAgICAgICAgICAgICAgICAgICAgICAgICAgICAgICAgICAgICAgICAgICAgICAgICAgIAogICAgICAgICAgICAgICAgICAgICAgICAgICAgICAgICAgICAgICAgICAgICAgICAgICAgICAgICAgICAgICAgICAgICAgICAgICAgICAgICAgICAgICAgICAgICAgICAgICAgCiAgICAgICAgICAgICAgICAgICAgICAgICAgICAgICAgICAgICAgICAgICAgICAgICAgICAgICAgICAgICAgICAgICAgICAgICAgICAgICAgICAgICAgICAgICAgICAgICAgICAKICAgICAgICAgICAgICAgICAgICAgICAgICAgICAgICAgICAgICAgICAgICAgICAgICAgICAgICAgICAgICAgICAgICAgICAgICAgICAgICAgICAgICAgICAgICAgICAgICAgIAogICAgICAgICAgICAgICAgICAgICAgICAgICAgICAgICAgICAgICAgICAgICAgICAgICAgICAgICAgICAgICAgICAgICAgICAgICAgICAgICAgICAgICAgICAgICAgICAgICAgCiAgICAgICAgICAgICAgICAgICAgICAgICAgICAgICAgICAgICAgICAgICAgICAgICAgICAgICAgICAgICAgICAgICAgICAgICAgICAgICAgICAgICAgICAgICAgICAgICAgICAKICAgICAgICAgICAgICAgICAgICAgICAgICAgICAgICAgICAgICAgICAgICAgICAgICAgICAgICAgICAgICAgICAgICAgICAgICAgICAgICAgICAgICAgICAgICAgICAgICAgIAogICAgICAgICAgICAgICAgICAgICAgICAgICAgICAgICAgICAgICAgICAgICAgICAgICAgICAgICAgICAgICAgICAgICAgICAgICAgICAgICAgICAgICAgICAgICAgICAgICAgCiAgICAgICAgICAgICAgICAgICAgICAgICAgICAgICAgICAgICAgICAgICAgICAgICAgICAgICAgICAgICAgICAgICAgICAgICAgICAgICAgICAgICAgICAgICAgICAgICAgICAKICAgICAgICAgICAgICAgICAgICAgICAgICAgICAgICAgICAgICAgICAgICAgICAgICAgICAgICAgICAgICAgICAgICAgICAgICAgICAgICAgICAgICAgICAgICAgICAgICAgIAogICAgICAgICAgICAgICAgICAgICAgICAgICAgICAgICAgICAgICAgICAgICAgICAgICAgICAgICAgICAgICAgICAgICAgICAgICAgICAgICAgICAgICAgICAgICAgICAgICAgCiAgICAgICAgICAgICAgICAgICAgICAgICAgICAgICAgICAgICAgICAgICAgICAgICAgICAgICAgICAgICAgICAgICAgICAgICAgICAgICAgICAgICAgICAgICAgICAgICAgICAKICAgICAgICAgICAgICAgICAgICAgICAgICAgCjw/eHBhY2tldCBlbmQ9InciPz67wUqhAAAABmJLR0QAAAAAAAD5Q7t/AAAACXBIWXMAAAZ5AAAGeQFf6MGaAAAAB3RJTUUH5wQFDhIGnsIvhAAAIABJREFUeNrs3XecnWWZ//H3fWbSCB2UJlYQEewFkCQUxbXv2n666rprW7uujTCTgAKZMwFU7FjXtaxdFAu4igokVAWpgvQivQYSUufcvz+uExlCElJmkjMz1+f1el4zmZZz7ud57ud7X/d1fa8iSZJkI/JhuiYxHuNajCt0Y1yle/nn7WOLwjYttipsjsntY3NMwmbYpLBZZVJh0xq/PwkFKhNL/F/L2RSNQf8ewP3xo/9gIZa0v764srARH+9vf+1u3Nc+5lXmNZjX4k7cVViMpVjW/ri0sqTBknEs+UR8PUmS5B+UHIIkSYabg9m8iy0LW2BL8fmWNf69NbZpf9yiLbI2a4uu5R83GcFvfyHm4d72cQ/uwp2Fu2qIuMFfv6PFnS3uPDqEXZIkKc6SJEnWSYCN62aHyuMKj/XAsbOIUE1axZHzUIiwhSISt2DQcWfl+sI1lSu7uLJyTV/8bJIkKc6SJBmLTKc0YltxfHtLcHxhm8oe4tgVu+AxbbHV1T4agz4m60ZFS2y3Lj+WFK6rXFr4K84f4K+FBSW2W5dUlsyOn02SJMVZkiQjncPoHmC7FtsVtsV2IgK2y6DjkTlSHUWrcnXhcvwNVxSurdxSuWkctx8RIi9JkhRnSZJ0OocyYRm7F/Yo7FkjErZDW4BtK3LEkpHHfbgFN+Mm/K1wYeXcJtfl8CRJirMkSTYiPbG12F0Y14hqxmfiuZW9xNbkJpjQPsbliI06qqgUXYRFlRsKc3Bq4ZxWFCws7WLprAdXqiZJkuIsSZKhYjoTunhE4ZGVx2Of9vEMTMwRStosrPylcArOEsLtlsJts3IrNElSnCVJsn7M4FE1xNdTPDhHbIccnWQNuRGX4kL8qXJ2P9fksCRJirMkSVbDoZQWjbZJ6+NavBAvwm7CK2xzuT2ZrB8tkbd2F64pnFQ5AddioJlRtSRJcZYkY5123tiWhW1KRMMOwgsrTxTfa+Q9nQwTyy09luIc/ASnVm7u5q4j07YjSVKcJckYE2WPaPD0yrOwt/j4qByZZCNzj8hRO72GYPtTf7SySpIkxVmSjD4OZeIA++LVeE5bjD1SGromnUfFbcKe43R8Bxc2M5qWJCnOkmQkM4OJNfLEnorX4qWi1+R44bKfJCOBZcKu4yx8u/IH3NWf7aaSJMVZkowgUbZT5emYIhL6n56jkowirsdPC78tnDcrImxJkqQ4S5LOYiaTBti/8DJhe/FkUWGZJKOVu3E+Tm7xg9lcnUOSJCnOkmRjirFSw3l/58obxbblozBZblkmY4vFbaH288IXK1eNY9Hh2ZUgSVKcJcmG4GM0xvPoylMLr628XEbIkmQ58/Hrwv8McN7s3PJMkhRnSTJczKbcy76Vlxb2F9YXaQibJCvnfswp/KLFD/u5M4ckSXGWJMl60zaI3VQIsndgd2wrHPyTJHl4FuAqHFf5QeHe7EKQpDhLkmStmcm4Fjvin/Ae7Cmd+pNkfWjhYhyNP7S4dXaKtCTFWZIkD8cHaGzKXngxXtkWZUmSDC1z8b3C8X3cmsORpDhLkuQhzGB8ZRre5QHn/nTtT5LhYyEurhxX+EEzDW2TFGdJkkyndLFp5RmFHuwnrDFSlCXJhmMRzsYncF6Te3NIkhRnSTIG6WHzEmLs9XiNaKeUJBtSkCwR/mCL2/9ePOhYKlomDQz6uLT9u90rLCC62l8bL6qHx2FS+9ik/XGyzi9iWYKf4qs4sxnjkCQpzpJktHMoE1q8vPIW7C36XCbJUDEfd+GO9nHnoM/vah8L2wJsyXKBVljcYklhSWVJg2UtlnUx0GLZMlqFpW1F1t0aJM666GrQVdvCrIYIm9gWZRMHCbUtCttVtscO4uNOeHRbxHUKN+PEyrH9XJKXVJLiLElGIT1xP0xssFflUJFTtmneJ8ka0BKRq+XRqwFhDXEtrq5cU7gGVxduqOHtNVAZKPGzLe3PCwPjaH18I7nmT6eMo6sV4m15tK27ML7FDoVdK7sVnihajz1GCL7uQceGumcGcHvhC5WvDHDXUVnZmaQ4S5LRwXQmdPHMyjsLb5CmscmqWYZ5uKf98W5cX7i8xeWFaws3bM4d08dAW6LD2GwghNqTKruJYwcRbV5+TBjml1Hx58rRDf7Yl0a2SYqzJBnZzOCpNYxjXyU8y5JkMItwBS7FZbget5T2MZ9bPxOCLWnTw6YNdqpxPKrwWOwy6HjEMJ6rEytfnMQph2UULUlxliQjSpAVbFN5N96KnWUT8rHO8u3FhZVLSnhsnd0WZfOwoLCg74GE+2QNmU53F5tUNilxbIOntHhuifSBJ4pChcagY12puKPy48rhhdv7s7F6kuIsSTqbXrYqvKCdV7Zn3gdjmvtwV+UmnN7g5AHOLtxXqIXalw/2YVsgtSgDNLrYohH34jPwjMqTsAU2x2aiinRt79OKy3EYfpPWG0mKsyTpQA6nsZjniTZLr5V9L8cqd+FPuLAdIfvLAJcelRGxjuFNlMewY+UJYhv0CWJr9DHtY6e1eH4two8qn+3nvBzdJMVZknQIPREtmx7zvh3z2h9TVGFJcSaOxxmFv1fuyMbaI+oe3qywJbaobFMiuvb0wlOxR40o26qeaxVXFL6Ar/WFYEuSFGdJspEm9E3aJrKzRdl/RsvGBi2xjXVVW5D9FNdVlvZHblkywumNHNGuErYfE7Br4dmVZxeehu3E15cf44Uo+2ZhVl/4pCVJirMk2ZC0qzD/E/8u/MqSsSHKLsMcnNDgj7MySjJWxdu2eJzYEn1c+9hOFCOchNnNFOpJirMk2TB8nAlLY/vyg3hKjsiY4Xx8vXDKEi49JrcskxXoiUXa5iKSdm1WcSYpzpJkmJlJYxnbNTgcb9RZrWaS4WEprit8YYDvFub1p+dYkiQpzpJk49MbuWUvqPSJkvz1YZlor3O/6G+4pP21pe2j5QEfpobIfZngwU2kN8uzMuxcgR8WPt/HbTkcSZKkOEuSDmEmj2zRi/8Q3khrSgs34jrRA/Hv4iF/T2VeI4xH762Rs7SksLiyqNLqClFWanwc1zbX3KxdMba5qAjdVbSy2VN2HhhK7sf/4mvNsMRIkiRJcZYkncChlGU8pXCccBlfWT/M6sGNqP8iLBX+XLmywfwWCxssarF4Pks+PwR5KL1xb00q4Yq+eQ0n9DdifxFZa+QZXGsqbqxhiXJCf5zPJEmSFGdJ0gn0MKnBKytHe6hv2VJhNHqnaL1zWuHsJVw0LvyuKmpzAyYD91AKjRLRtA9VXihbRq0NSzGn8K6lXHl0JnInSZLiLEk6h0PYusEheKcHjCeX4q+4ABcVLqhc0OzQXKSeMM/8Vw+Y4iarZjG+UTiij1tzOJIkSXGWJJ0lanYqfAkval+/5+I3OLVwPW7rY/5IeC8zGF95Fg7GS4RJZvJglmFW4dN90QczSZIkxVmSdAqHRHPko4Sp5IkNfl25ocXSBgMjsUH1DMoSJozj7fFP2+V9+Q8WVw4rfKYZFbNJkiQpzpKkw8TZZGw2m1tG4/vr4XmFIzFNtplahM9XDs/E/yRJUpwlSbLR6I38s+l4zxgWaC38qvCWvijsSJIkGVNkpViSdBBzuG8qp4ok+OeNUYF2beGNfdyUV0SSJCnOkiTpBIG2bBpnF27H3sZWG6ollfc1mZtXQpIkY5U0wkySDqSPJV1hH3GosZVz9esWJ+YVkCRJirMkSTqOI6JC8RuVjwoft9HOgsp3l40QK5QkSZLhIrc1k6SDmcPANC4SjdX3HuULqj83+OxR3JtnPkmSsUxGzpKkw2mG39exOElUMo5GBnBRXzSfT5IkSXGWJEln0x9tqA7HjaP0LS4WTemTJElSnOUQJMnIoBmtqr4oWhqNNpZUrsuznCRJkuIsSUYUy/gyLh2Fb61VMtcsSZIkxVmSjDS6ubdG9Gy0UTAxz3CSJEmKsyQZUTSphT8afe754/GYPMNJkiQpzpJkxFG4U+SfjSYm4Ol5dpMkSVKcJcmIoytysy4ZZW+rG8+dwc55hpMkSXGWJMmI4ojoFnCj0ed59nQc8PE0x06SJMVZkiQjjcI9WDTK3tbEyn8t5bF5hpMkSXGWJMmIokb0bGAUvrVnoP8QtsyznCRJirMkSUYS443e7b9XNvhMD9vkaU6SJMVZkiQjhc1FheNopBtvKnyulyccnPNUkiRjjEy8TZIRRm9EzV6JqaN84fgUTGuwcBp3zOG+PPtJkqQ4S5Kk45jKVngndh0Db3d7/BOmTmW7/bj7NG7PqyBJktFMySFIkpFFb0SU5mCLMfS2K5bgflzTfv9n4JIWtzaiGfyAsBdZ/rGF2k3riPj9JEmSFGdJkgwtM2m06MfBORr/4F5ch9tEVO0O0UXhPswvzK/x+ZL2sbSypMHiGv9eXFiIhZWFzdFnUZIkSYqzJEmGi172xq+xdY7GWrMMi4X4Wn4sFsJsfvu4X4i5ewp3FW6t3Fa5pXJbN7fMip9PkiRJcZYkY51D2W6An+J5ee8OO622mFsiPOUGH3cXrqpcWbgSVwzE53cXWoWBFq3+0dfBIUmSFGdJkiynh20Ln8QbhdVEsnGpK3y+FNfj4sIllYtxbWUe7i3c04yoXJIkSYqzJBnp9LIDZuHNKcxGFEvxd5EPdxWubX+8vIurj+TuHKIkSVKcJcnIE2Z7i4jZXinMRjxVFC/cIyJqV1bmFuYu5sKJUahQm1lZmiQpznIIkqSz+CiNcWxfeD2m4xF5r45asTbQPu7E6TilLdhuq9zXz4IcpiRJcZYkyUakh53w4sJ/YN8ckTHJMlyIc3AeLiv8rS+sQpIkSXGWJMmGoJdHiWT/V+GpmJijkoio2s24ERdXTm7w+77skpAkKc6SMS8cSol8p2V9mQ8zJMyguzK5sGvl7XiF8C6bkKOTrEaoLca8winCVuV0YbC7qC++nyRJirNkLNDDjoUphZP6svn0+oqyrStPxHPwL9hP9rhN1p3b8AecjItwTTOjakmS4iwZ3RzCpAZfxG2T6Dk0I2drzUdojOdZhRdhHzwNO+bIJEPMjfgr/ozf4cxsRZUkKc6SUcbHaSzhU4V/xXubsY2SPAwzKJVxlUcW/lmM3xNFo/LxOULJMLNUWHb8vfCrFj8qXI5lzSg2SJIkxVkyEumJHLO3Fo7GrTigyU05Mquml0nYGXsIUfYSbJv3WbIRqUKQXYDjK79rcMMSbj8m20slSYqzZORwSBQA7F/4HzwaP2ryuhyZlTOdLbo4AC8WOWS75agkHco9wqLj7MrZDc7qC4+1JEk6iHQcTx5CF4+pfK4tzJbh5zkqDzCD0qJReXyDt+Cf8Bhsk6OTdDhb4oV4QeHOyt97+UOD71UurAxkh4Ik2fhk5Cx5EDPZusWPcGD7+ri7i12PzNW13ljMbFt4RuWtIlI2UVZbJiObAZGndj6+jT8Ubl3IvZ/Orc8k2Shk5Cz5BzPYtHIEpi0X7oXftGIrZMzyMbrG8RS8AK+u0ecyFzbJaKGrfezdPm6vnDKRP/ZwzgAXHh3iLUmSDUQ+YJLlwqy7RsugY7HpoG+9pnD8WDWfncG+Ld5SIpfs8Wjk1ZKMEZbhOvyt8LsWP+/n2hyWJElxlmwgetmn8Isa1YXLuR7Pb3LlWBmHQ+hqhOXFPvgInoXJcusyGbtULBEG1L+vfKdwVov5s6NjQZIkKc6SYRAkuzT4GfZc4Vs/xTua3D1GBOrOItfu7ZiSV0aSrJIrKj8t0Z3g0iZ/zyFJkhRnydAJkm3xVdFKaMXrYUaLo2aP8p59vdGe6o2VV+LZGJdXRpKsEfeKtlFnFE68ldO+nkUESZLiLFkvUTIR0+PThzjX34m3NvnFKH3v3ZXtGryj8mZsL0xkkyRZe5Z3JbgU32zxiwb3tlg6O605kiTFWbJmvJ3yyIgU/Q82W8mP/K3w6j4uGU3veybdLR6H1+BdwsstSZKh5Rb8GCfgbxO56bCMqCVJirNk9czgWZWf4LGr+JEzBnjhUSwYRe/5CZU34vXYPa+CtWaZuB7mt48ForH2IhE5WSISxJe1jxXtF2r7aAyaf8Z7oNiiW0Qvxw/6uMmgj5u2jyzOGDkswp9wmmgddeasuE6SJElxlgymJxpy/1j4ma2MFn7QDCEzoumldLHNAO/Gm9piNJuPP1QwLT/uwRXCQuHvuLFyI24qIciWi67lAmygMlDimmmJz2ul1VhJpKRFbTww75QWjfLAvxuVrhpf617+7xJf6yqRCziuLdy2Xn4Utq3sgB0qO5T4fJv2/FYGzXMl57yNRgu34a/4buV43Nef0bQkWSlpQjvGOIRJhUOEVcSqGChcM5Lf50waLbbDCwfi/e4qIy4t3D/ouA0Xlmjb8zdx3IpWpZY4WpXa32F5Q+0WWqUMEl2FUtufL2NiI4TaTiXakT2+weNqiPNtMaF9TGwfE1K4DSsNkde5HaYWPoFv9cQi8YbCvGwblSQPkJPRGKI3JsjX4Tjh5bUqFuODTb4yEt9nT0RTXiFaLE0d46d9vhDaV+MqXFq4osEVR3LTWByQ6UzoDqGwfWXnws6VR7XFwyPbx3btjzlHDi/z8Fv8pjK3n8tzSJIkJ54xxQz2rPzSqvPMlrMIb27GqnakCbOXFv5LRAYnj8HT3GqLsDmFM9oRsdtx21jxq1tXDmOTZWwuji2wdWWXwpPFsXtbtCVDz8L2dXsWvruEMz6ZLaOSFGfJaOdQthoIYbbvmkyUlf/Xz69GiOgc34qH6Ey8TCSNj4Vre1n7oTZfbE/+doDfN7imsKTB0iNHuUfdcNPuGDEO3SXsV3bA04Qf3j6i8neS2BYdXNyQrBsD7Wv6fOG/+Bux5ZlFBKOcj9E4JnMQx5Y462X7ZpR2j9UHzIQGTbzPmiXDL8TrmiHmOv3c7iZsMd6DHcfIw+vvYqvyApzaYu7siI4lG/7e2qoRnTWegqeKqPQO7Wtx2xyh9eZKfA8nFy7si23QZJTRE5ZGO/Rzdo7GGBJnPby3cN0CTvzsGFPmB9Po4iWFb67Fw2JR4T/7+E6nvq+ZbN7ibfg3PGMMnMor8Hux7XNZ4Yo+7soprOOuy8nt/LWda0TVnt4+nmZsbrMPFTfjnMqJXRw/iztySEbN8/lZhT58vsmvc0TGkDibwZTK9yozCz9sjqFmvb2xiv+laOC9piwpzOjjkx14LsdhL8yu8Z4mjsLT1hL5NnfhJPygxrbl/Ab3z8qqthHB9FgYTSxMGmDTRkTWno+DRKRgvLZlSI7WGlFFlfGt+GGL/25wfYOleU+MyGdTo7BPje3rm/HyZuzaJMbOtua2+DZegMNbfGn2GEiOnhm5WJ/Ge9fyVwfwzSbv6JT3cljYIzyxRLuldwtT0tHGfFyP8yu/6OK3szKJf9RxGI1lPBH7tY/dPFAlmh58a848/Bz/i0vGcfPhKdJGysKlq8ELG3ytRpHNqwq/6svzN7bEWfvB/jZ8tj35fbdyWD83jOb3PYM3V75s3XpGnrKUFx7TARVTM9iq3f/yrSL6MNq4RmxZnlo5vX+Ee8wla319b1vZvfKUwjNFscEe0odyTVksGq//rnJiM3Ixkw6lN67rN2G2EGYnF97Ql3mzY0+ctSfAHds2Es8UVW6nVt7ez7Wj9P0+tcaKcs91/BOX4VXNaGS8sUR19wBTaxhWPtvoiZa1RPXZKe1V/5mVW/sjcpaMbaG2aY3OBztj/8JLasxZ4+X258OxRDs3rXBcF2csZUl/RmM66fqeUGORPUtc5/fjg91844g8T2NTnLUvjEMqR4i8pYqL8R/LOP/oUVQo0MOmhU/hP9fjz9yDtzf56UYQZY2l4ez+frGFOXmUXKvzRRukEytfK1xZWdbM8vFk5RGGrgZdrSgw+Bf8Mx7ffqhtkiO0SqqI+J+JL+H0FrfNTt+0jX09T24/k/qF9Qz8ufLK/qhAT8aqOOthu8IZ7QluOVdUPlw5afYo8ITqjRY2rygRkVnf6rBjWhw6ewMWUPTGQ+eV+LCIGIwGbhGmsL/FiX1j1Jk/GZI57Kmi/dFeokp5t/ZiM1k15+NnOLnBn2alSNsYz6WtcDA+6oHt+qWVQ/s5KkdojIuz9kXyURyzwpdvLvTi230jPIpxCNs1+INwNB+KSe3lzQ20qullt8LhlRdZfXupkcJlwo7ktw2umJUeTckQMZ1NumLrcze8VETVsnvBqqkix/i89j15YjM6oSTD/0zaqhHRsv/wQMQMri7s1Ze2KCnO2gJgR5yGJ6zwrQWVoxsc3TdCb9p278zPia3AIclPqby0HVWsw/SaS4vNGhEtmyXOz0jNrVneWPxqfKXFjxvc08yVejJ893wpkcczufL8Evk8zxAtqCbmCK1UpC0SraKOKxzf4q7+7EAwXIuIbbv4PF5rhe4ZlQ/185kcpRRnoIfxJcKrR6zk/S/CcZVm/whU873Ruuh/sM0Q/tnfFf6lL0THkHIs5Xb2xoeEOBvJ1Wk3CYPYHzY4YdYY8tJLOm4eeHLhZZX9hfntjjkqq+Qq4YF5ciM6ENyTQzI0zODxNYIFL13Jty9vsd/sMdy5J8XZyievZ+BH2GUl316K4xt8cFaYHY6U97QjviW83IaSpZU39/ODIRbJ25XwX3ujB+cAjjSux3dKbF2ed2RWXCYdwkw2H+BpJUTaq9pCLfspr5xbROugn1eO7+feHJL1eh7tji8KH7+V7YRMLxzbl7sKKc4G82G6JvIFYbK6skbFAzirxVsaXNns8BLfmdGQ+X01KjSHY0vw3C5eeuQQiNVeJhT2q5GDsKeRabq5DHeU2Bb5duXmvoyUJZ07P4yvbF55TuVtJToUbCJ91FakYoHIsf164fu4oy+3PNeYwyhLI3L7vfb8vrLn0aV4fZMLc8RSnK1MJDxH+J5tt5ob9Tx8AGd1st1Bu/n3H0WrpuFgKb7YRe+R69he45CwBdgN78S7RqgoW4y/4dc1VoU3pYdSMpL4OI0BdmvxdhFlf4Ls+bkqbhWG5T/s4m+zMpq2WnpoNKId0zex62oWtl/ekg8enBZCKc5WI2q+KSpIVsdl6GlGm5CO48OMmxirlNcM8391j6h0/e+1jST2sGWDt9d4IOw2Ai+VlvBM+mHh132R8J8kI5oZPK5yAF6Cf8KmOSor5TacjF+3OHF25qU9hEND9L9Q5Jjt+jBjeVBGzVKcPZxo2L1EnsFmD/OjN1cO35Svzegwtd/DGwrHieqs4eZO9N7N149bg3E4hPFdvKhyiMh3GWnGmS1ciaMqv1nELcfmai8ZRRwS1Z5b4gklWty9XtjYZG7aQ5knWqt9B9/FHWkgzYyouH95+zn0cMUnX23G7kmS4mzV9IbnyqesWWPwewpH1Li4FnTITfGoGnkRUzbgf3s/voovVP7ev0Ku1Qcom7JlYdcakbaXi3EeSdfaEuHB881lfKWb+/pyEk5GOdPpLuzS4IPCa3BH2Yh9ZQyI6uxvVn5QuKE5RguBesP94LU1cri3fJgfv7fw3L5IDUlSnD2swNmnxpblI9fgxxfi2MpRG7uapzdcwd8n3JU3hkP4pfgVzq/cUmKrc1M8FtPwYiMzl+UvlZ82+N++Udp3NUnWYH55skiVeLnoa5usnNtxQuVEnNrPXWPljfdEcdfbhS3V1mvwK58vfDQLLFKcrREzmdyK5O5/X8NfWYIfVT7SH/vnG+t179KKTgA7b+QhXCCEahURsi2tvAJ2JEyyn8OP5nHFFzPRPxnjfIzGOB6DA0Vh1FNzVFbJXfhriTZR3+qLFJBRy/vp2pSDC9OtWTeXW/CqyllZRJXibG1WiS8R5q2PWMNfWYZf1ej/eO2Gvtim093F19dCUCYrp4X7ajR3bza4ri/ObZIkD8yPXZVtCm8W3Ud2lN0HVsbyhus34iuV7ze4rW+UtYn6GJPG8/Ea299reh18u/DevvSBTHG2NrQrHk8QeRZrMyantCNo523I13sIL2zECm2TPHvrzDwRefxS5Q/9mVOWJGuyMNy+i7fgdcLHqitHZZXcjO8Xftk2qB7xVhztBuaHtkX6mgqzO/HvTX6dl0SKs7WmhwMLv7H2+VsX4KPNKLXeEK9zqxJu/Qfl+Vvn1e3/CQPZ07JdS5KsHYdTloQ/2isr77fxUys6nVu0rXi6+MW6ekVubA5ji2Ucizd4cAPzh5tvf9fiFbPTqDvF2TqKngmFH+Kf1+Fhfy0+WDhpOLfF3kLZnjeVyJHbLM/aWjEgCheOwvcKd83K3IckWWdmMr7FTiK9403SguPhnhPzhRXHV7v4fot7R0oaRbuB+ddFn8y16SyxBP/S5KS8BFKcras4K+0edCdat3yKOyv/Vfhxc5hWCL3RAeD7ol9ZsnYr15MKzb7wLUuSZIj4II3J7CP8DKd4eEuFFGoxD30VJ1Wu7O/QqNIRlMVhVvwZkZu9VtvYhZMX85JPZg/NtSbzBdrMjVllXomGrbuvw5/YpEQ7lIH9+ctpQ3wxHhpC+g3Cky1F9ZoxgOMxcwmfO2qUV1AlycbgbOocbtiHX3SF6NhKVHnmPLVKzWIb4aj/gsLjprJgU27otJXjPtHR5TiRj722fZuX4IPdXD4nz3mKs/XhuSzujhvnIOsWPZsgfNM2m8o5c4awSmcfdih8K1ela7wyvbqEkP1sk0vOyC3MJBlWTmfpNC4Ruw9XVfYqUbSUIm3VbCN85F66A/tP5e79uW4a9bSN/MJ62UN0QnjeOp7D/6t8sRnG5UmKs3XnTEyLMugD8Oh1vCDHYW88agpnzB2CbgLHUhZypCwCWBPuxE/wtgFOnz1Ck2+TZCQyJ477p/IX/LyEufejrXkC+VikIQy8d8VramwN3zaVe6eycENHnXppTGMvEQx42jo+c+7HMf2ckac3xdlQTS6LpsanL1mP8Sl4auGJU7lgDnesz2t6Ns8R4mzzPEOrpIVTcdgAR83mrtNzTJJkY82jdS53TYko2nWFbcVWZ7KZxw0NAAAgAElEQVT650a3qIR9vTD93WQqt8/ZgDYc0ziwxlbmnusRDDivwazT0tdsvS6GZAV6mFw4xfq3LWnhrMq7KxfNXoettRlMqtH/853Wfs9/rHBH4egW3+uPyGeSJB1Eb7R1+zf8lzVr9ZMEC0UvyuMr3+iPnp7DeZ5eKyraH7cef2ZJ5eB+PpunL8XZcAi015WojFzfMaq4svJvlT/PjiT1NX0NBc9ttwTZIc/KQycBnIP/anD+rLUY2yRJNrhA6y48p4ZX1tPlVufasBS3iojWt0t0HhiyHpWH0N2IXqrHYvv1/HNXtnjW7FFgursxyW3NVTAtVihTRL7E+grgbUpsk16zL1eevoZu9NPCe+3jmJpn5CH8XTTS/UCTa07LhP8k6Wjm0JrD3w/kJ+0J8AkyVWNtntWb4/l4BSZP5a79uXN9577D6K7RCvCYIRBmCj2Za5bibNh4HksLrcKLh2icNivs3+CeqVw4Zw0E2hSmFvowPs/IgzihxUcafK8vK4GSZERxKov247TKuSXy0B6bo7JWbC08OZ9f2Xlfrp+7jjZBTboWhT/dJ0Re4PpyfuGwOZlrluJsuDidOo27sS8eNUR/djIOxNKp/GnOarbhjqSxjG/giXk2EKvD22v0dTtyNn+bk/0wk2REchqtaVyHX1YWFZ7RXoRmqs2aUdpi6rmFV09lq6lcOpX756xhJG06kwdClH3Y0EQwK/pxWs7NKc6GlTnMm8ojxLZi9xD92XHC4X/zaSHQVmr1sDdbtKN2u8pCgGU4s/CeJj+Ym/YYSTIa5ldzWLhvfPqXwi7YMQXaWj/DN28/Uw7CDXO4/OF+qYetu5hZo0BjkyF6LRfiqCa352lJcTbsTOGqwqsNbYVRF56FnffjzJWVG89l0b78oYTb9tPHsEC7B59rcHAfF+UVmSSji9PDduPKKZxSYp572hAuhscS2+OKOeE0sEpmhPfcUXh3O1gwFCzBt7v58al5HlKcbQjmMn9aVBUNtQFsF/aoPHsaf1yZj81cFkzj9BqtocbahFWFy/i7C//dF1vMSZKM3rn27inMKdEC6tkiIpRRtDWfLz/XoP+01fTp7GFnfFlUZg7l8+RWvH9WztMpzjYkz+Nv7TLjofbnaeCxhQOmcs5UblsxX2AOC6fwxxIO0k81NooD7seJhTc2OXtObGsmSTL6BdqSOVw4ldPwZGEhlM+p1bME3ygc1hc7DStlRqTIfA4vG4YxPa7Jj/NUpDjboOwfHjNVNH8dakp7AnoerprK1XMeOmENPJc/dodIebZ16/s5UrgFzWX0zs7chSQZk8zh5in8sh02200UUyUPpeJrhd7V7S708hR8STRbH+po5M1495zVCMMkxdlwTRStqXHh7Yfthum/2S50oJvmcPGK3zyT1hT+XKJkeh9Dl8TZSVyIt7f4yVFD2DQ+SZKRx1zufx5zG/xV9HrcKkflwcKs8kkc3lyNMOthWgnz2ucN0+s4tvLruVmhmeJsY/AC7hmISqLnGb7k/M3x/Gksmsb5K1ptzGXg6Zw3IQxYp4yi1eQSsUr+t8JF/en0nyQJTmdgCldUflUi+vOofG4hFq+fK8zqX0XE6hC6poUw+6r165O5Oq7Fx4e7rVSKs2SVnEKdGkmPLx3mFdyk5SucqZw3Z4UWHedQ53DR1CiXfq6R36fuNnyq0NMXOXdJkiSDF6V1LndP41ft+fHJxnbrp/txbOHIJvet7Ae+TLk3csu+KjoxDIcwa+F7le/PzbzgFGcbkzncPjXaOe1leKuIJoityx32Y85pK9nim8oVwlriucKLbSRyKd7Xzf/MSu+yJElWP/8unBqeaNdjb1EkNRaFWW83x85aRXeUD9G1gP8ofEpUZw4Xt4qo2dV5daY42+jsz1/bfciGO+drnKjOfNK+zJ3K/LkPnqjqflxXOUvkwm1j5JSdD+BUvHUpZ+Y2ZpIkayjQlk7lkgan1PCK3M7Ysdu4q/KRwjdnrSInt5eJ43hbYbbwMxsuKn4zh09fn5dlirNOYEoYxk5uC6INcX6eVOL4yxzuGPzN02KL86a21cZzsNMIGMKF+L5w+7/6jGxYniTJ2gm01mkx7/22RB7wE8fAs+xGzNicb34i3AMewkw2rbwLR2OzYX498wvv+m68riTFWUdMDHValA4Pd+7Zckp78nnGVC6fEyH9BzGX26dxevvnHtfBK8m70NfgE33xeZIkyToxl3umRReVJWJxOlo9IK/GB5t8//erWMz2sEXoMzNtmHy8HxWOm5OL6xRnncSUWDU8QjRF31BCaGdMmcpVT+Kq81b45l7c2cWplT1LZwq06/DeyneaaZORJMnQLJYX7sc5latEIdVoy0O7FP+5mN+duWphtnWJhuPv2kDC7D68rxmuAUmKs45asQ1MjQv0BTas9842OHAyNxzAFacOytU6IyaqeQfw6xpO0Lt2yPmtwrftLU1+Nzfzy5IkGUJOY9mBXNzifNGH+JFGRx7ahSL947TVCLPtS2xjvt2Ga+/3o8J35qymTVSS4myjsQc3T2IP0fNyQzYl3wzPr8w/gPNPXUHsnMai/Tm5sq3wttmY/Thb+L/CO5r8Ja+aJEmGg1NjcXr1NObiMSLFY4RrTu9pRsHXSunliYXP4vUb8HXdif5mCMckxVnn8efwPbsGb7Lh2ylNwr4DTJ7KOXNX8EI7jYX7Mrfdj/NZG+k8L8UPRa5EllonSTLszOG2dl/OTUS1+0h8xp0ktg0vWo0wexK+InZvNlRwoOL0rmiuvjSvthRnHcs0bi+RC/acjfDfTyjsXdhmGn+aw4LB35zLor2iH2d3+/WN24Cv7X58o4sP9sVKK0mSZEMJtHsP4A+t2FV4hpHTi3gZftvi3f2RQ/cQeij7s2flf4Xf5obctVmIQ/u4IK+yFGedPgmYFtGz19k4vS672sLrUe12Tw/qr3YGA/tGmH9x2XAN0++u9BcO68uchCRJNgKnsmwOp04N+6Gni2rGTmYAP668e/Yq7CmOoDHA/pVvG752TKvj7GXMOD3zhlOcjQTalZvbGL6msmvCU/C0KVw0N2w+/sHc6E13brth+n6Gt5pnHmYUjmuusNWaJEmyoZkaUZ6/4pk6t5PK/fhMYWaT21f2A9PpGuAVhS+KYq8NTcV7ZnNZXlUpzkYEc1k2hQWFgzby6uwxJaw2zp3KzYP9Z+aybBoXVK4qkaMwHBG0e/DewrdTmCVJ0gm0fSmvKbGDsLfOquQcEGJsJo5dVZ/MHsYVXlf4sjDd3Rj8Fp+Zs4INUg+NqfGMSVKcdR7P57ZWRK+eshFv/NKeeF6My/fh6tOjWnL5JNWaGivIv5WI8g2lkLy+8K7CT/oG/Z9JkiSdINDmcOu0SLR/kvCBbGzEl7QU1+JEUZH5qzmraBzeE0Vd7yl8BptvpNe7EEfg3MGL/h66CwcUtprGLXPyUktx1mmcGluHdxVeZeMnn26O5xfu3ZeLBucHzKU+jysaEZp+nqHxaLuq8N4uTpqVwixJks4VafOm8YfKliUW0hv6+XcjfonjhNj6anOFNJTBTGezBocWpts4Oc3LOavyyf4VInvTQuR+Dy8rXDCHG/IqS3HWcezFDd1RGbRHB7ycyYX9GhEt+/PgVdnp1H1DUJ2J/T3Qg61Y+6jf9ZU3dXHqkSnMkiTpfIE2/3mc2ogI0D7D+AwcaB83Vo5vO/g3Kz+ezJmHr5B6shJhtnlX5Je9TVgnbSwW4vP9nDz4izNi3D6KfxbN56dM4dy52TVgyCg5BENHD88sUcS5SYe8pFbhC5UjmitYWhwS536rRuRhTBEfd8KWYstzdYUDFX/Dvw1w7lHZXy1JkpE1V3fjHYUjRUHXUHCv6Bn898qphd8McF6DRYXaXIN58jBKi0e3Qpi92MbdfoW/Ndh31grPj5k8rsWfsfWgL1+ItzU4d1Y+E1KcdRIzGF/5Unu10ykM4KeY0eTKh5mwdm7w5Mru2A1PwC4ifD2YCwrvGsfZn8ibMEmSEUhvCLRX4xjhV7ku/F20p7tYFF39pcVlR62j3URveJcd014wd8Lz+f1NvrCSZ8XnC+9ZiXg8vfK2/li8JynOOmY1VkrcVMeL9kmdJNDOqbyjn0vW5BcOY8Iytqps3WDnGpPG87Bp5f0TOf/jKcySJBnBHExXd1gMfX0li9AVqe259BL8vkTXqKtx21LuPHrdBVkZh2W8qnJUe1HcCVyMA1e09+iNzgs/X814nYZ/bXJTXmEpzjpJoG1WIuHzDR02vhXXVd5SmNtcRXXQyjiUMhA5Bt0oS1l0TAqzJElGyaK6iye1txKfJVI6WqGXLBKJ8Bfhdy1+1+CGwrIulh2xDvNg2xpjssgN3qOGDdNBoh/opA4amvcUvto3SHQeGka4H4+3scquMwM4qfC2Pm7LKyzFWSfd7C8rfMuD9+M7hZswCyc1o5w7SZJkzNMbgukgPKmyuMGtuGIJlxwTRrHrzHQ26+Lx4tgTz20fj+zQ4Tgfr2mu0Eaql8fiRx6+ZeEyfBMHN8MDM0lxtvFpbwn+DC/q0DG+X3ienV85uTAnQ9BJkiRDx6HsNMC+oip0T5HXtrPOKRhbFUtEdemRzUFRsxk0Kq8X7aO61vDvfOk+Pvb5tdipSVKcDfcq7AX4leFtl7S+DIhS6UW4uHJSg9/UMJVdvIwlR2UftSRJklXSQ1dhQmFija3Jf6ocVKKoamL76B5Bb+lqvKzJpYO/OIPJlRPw/LX4W4sKn1zAJz6Tz5IUZx0izrpFleQrRthLr7gcZ1TOLFxWublwS5P5eWaTJBnrHMrkFjvUaKe0J6aKgqlHj/C31ip8ro8PrfiNmezZiu3OtfWGu0/0XP5KX7b2S3G2sTkkKjf3L+EIPXkEv5V57ZXUlWIldX7lL/2Zr5YkyRhiJju2wmj8mcJsfFdhNbT5KHqbt1X27uealQQcHiO64Dy1/b4fb817fd5Wovfy8dlJJsXZRqc32iN9Ba8dJW9pqYiezcf1wnD3jy3+1MWCFgOV1uys5EySZITSQ6PQNcD4LvYsHFg5cJAQ2xTjR+nbbxYO61vFFmRv+JpNLmxSY7t2y/b27e6VJxSeUEO0bdnWFw0PdJ+5ufLafs7KqyzFWScItFcLD50tR+Hbq+1jXuGcVrhinyWMGe9Zxj1Hh6BLkiTpWA5hk8LWJaonnyHE2DRsv4LAGM3ciOc319JAdialRmcDjfbnNXw+H10e2Pp9ZIMtWtyymE9/OgsEUpx1gDjbAj8WBQJjZbyvFdWglxQuqfytcHlftDZJkiTpBEG2Y4nI2B54Ep4mGqJvMkaH5NjKjP4oEktSnI1+ZvC6yv+IMPBYY4Hoy3ZH5bLC6Q3m3stfN2OgL7dAkyQZRnoo7dDX+AGe1mD/Ggn8j8UjRG/N7jE+TDcU3tgXqSpJirOxwQcZN5k/Cs+bsUxL5DIsFSH0uYXf4k+VewsLlrLw6BRsSZKsIx+gTGZSYZNWbFXu0+CgGm2algux7nz+PWhe/vFk3jgj7S5SnI01enmpMKYdl6PxEBbhApyLv+CqwrWbc930rOxJkuRheDONndip8NjKboWni9yx5e2YklVzH17c5PQcis6hO4dggy1N5jY4GS/O0XgIE0Vj9b1E1OzWyk3zuGZGCLYzx/HnT6TPWpIkbWay6QDPLuHA/yzhMbZjiQT0DDysOb+elBWUHUdewEPIDMbVsM24psmZK0wkpRXf+6axm3C6tlRhWrgY8yvnFn7f4o+NsPJYXFnSn6H4JBm1HEyjO6wrJrTYvu0feRD2xmYiMjY+n2frxMIGU2ZxXg5FirNRS280Oj8bZxTe1xfh4sHibfvK/+KAHPv15kohgM8UlaE3F27p494cmiQZ2UxnQlfYWOxY2aUdHdtXVFZ25QgNGd/Ge7P7S4qz0S7O/kXklS3Aa/B/zRWS23t5Jz4to2dDyXxchasLl1bOL5zXF19LkmRkzJ9bFZ5eY4vyKcL0dRfhPZYMPXfi35bwm09mEVaKs9HMDE6oD/TSPKdwQB/3D/6ZQyNPYo5IWE2GnmUe6GJwe40o5sktTu9iXmVggNZRORklyUbhUBotuiqNyo4NXlB5kWgLtIXYqpyYIzWsVPyq8KbcbUhxNtqF2RMqZwxa5Q1UPtLPZ1fys2+sfEuG5zfUJFSxoHB25bTK6YUbK3c1uLsv3aqTZFjpZRK2rmzd4Mk1Ujv2F61+uowNB/5O4j68o8kPcyg6k6zWHDoF8NL2im85XYV3z+CXfdE4/B8M8ItGVMfsmyO3QRYgBZvV6NLwgvYT4Np294K/zuDyyiVdXHYkd+eQJcn60xNCbI/Kk7Xd9wt71tHZym6kcUGLX+QwdPaDKxmaVeF38coVxnQJ+jfhyJmDKgpnRlj/1fheBwnku3Apnm3sVT7dL/Iv7sSFmNuOsF3VYKCBWbkNmiSrmv9KwSK6J7FHi/0q0wpPED0WtzF2tylrBz5rK/65yS/z6k1xNtonp6eJ8PBuK/n2Jfh/zagoHLyq3KlEpcyBHfI27qi8rMQ18b7269qmLdTGEsu7GCwrXFujmfvvK+djnij2WNhMsZaMUQ6lDDCxsmmJHLFni7yxAws7iG3Kse7AvxA343ciUvi6Dnptf2iLs6zQTHE2qoVZA28Q/mXdqxjkw9C/Ym5TL+/BMTqjcrOFXzV46yzu7GV3/D+RqPscmR93n4iqnYcLCldVru7m70dkF4NkDNATBq+PL+xSo6Dp2eLj5Bydf7AIf8IJLb7fiFSXX2LXDnl9iytvwvH9OW+lOBvNzGBy5fN4y2p+7LbCvn3hzTX4d7etsbLqlMrNxTi2cnh/TDJ6eRym4O0iRy6LGCKydpvoD3pd4bxW+K2d25+VT8ko4dAwfX1qi30LzxXJ+zt5IDqWPEDF7/GNwpw+bmz7Wn4FLxOL+E7gj5U39kdUL0lxNnrpjVYhfxIfV8fXm7xjJb//LiHuOiX3bAk+2OJrs9t5cj00GrE63rtyiGizNKmDJpyNPSn/o4tBu8jglMpvC1cWlgyweHZ2MUg6lEPi/h5Xw2l/qxL394Ht45EecODP+/2h9/5CkbrSj98X5vfR6o3dkJk4uIOE7P2Y3uQLeepSnI16ZvDayo/W4EfvKry0b4UeZtOZ3BUNZ5/WQW/r3sp/bMLPD10ht+q/GDeJFxf+XbRP2TGvgpXSwjU4s0ZU7VLc1ODm9BVKNjaH0b2U7dp9KB8vImP7iih+Ngp/eO7EnwrfXMYvjmrvNAwSu2/Bl3RWzu6FLV40O6NmKc7GAr2c4AHj2dUxgG8X3tM36EZu99x8vWjr1Enn42q8tcmpK/vmdCZ1hTh7qUh2fVReDavlvrZYuwpX4KIGf57FZTk0yYbgI0yYGNYWe+GZeKKoqNwpR2eNWSDMxn9Q+OPKkup7I6frM6KgqmMWi4WP9UV3miTF2eimh51LVPFtvYa/cmPh9X3MXeFm3gHfx34d9PYqzq28oT/ExKrGYGLl0Q3eLLZtt5H5KGsi1Be0BdtNOK3w+wHObsTXB7oZOCIrQpN14BBKI+7BrsKOrQcahT9DVA5uJrbdcv5f8/t1Hn5Y+TKubXBf3wr3Z7uK9SUiYvboDnsPVxae08c9eTpTnI0FcfaeEiuRtdkG+AIObkauAvgYZVz03DxW5/kBnYo3N7n+Ycaige1LVKD+S3tFni1Y1lwI17ZgO7st1k6v7S4GlbtnZxeDZDXMYHyLbUq48O9amCZc+HfHOOnAvy4sEfPe/+EL3Vy+usrs3ohIfsvKLZU29gTzXnw5KzRTnI16Ph45G8eLSpy1Gce7C8/v4y8r3Ng74eeiPL3TOLHw7r6HEWiDhNrjSozLK0Wl57i8YtaJa4U/3l9xOS5ucensXP0mIcg2a7vv7yFyVvdsf75djs56L5b+VPlZ5YTZkS+6WnqjUfv/iO3iTuPCysv713D+TlKcjWjaN+NPrZt/zQ8avGFF1/kZfKgyW+cZvw7gx/hgMywkHpZ3U7Zmu3Z+y3tF5Vcjr7l15n7RxWF5F4M5rTDIvbrQalCzi8Gonm+K2Kp8vOhJub+Iim0j0irSa2z9WYI5lS8Wzh3gxqPWoMq6N54B39SZ7fgGcGgXxxyZ0fcUZ2Nk1fqWyheFpcTaMr9duXna4C9+nM2Wcg6e1KFv+7hC79rkLfREa5cJlecWPoJ92g+ULMtfd5Z3MRgQXmunFE5ucW5hXmX+fBZ+PsXaSBZjE0Ru2OaV3do5Ywe054au9pH30NCIl7vxZ3ymFXPyotlreO/0Rm7Z53WWl9lgLiu8to+L81SnOBv1zGRyi0+JPLF1fbj+bBlvOnpQ5eYg0fffHfz2P1X5RP86tP54H12bx4r/de2V/655NQ0p83GB6GJwcY3m7lcu5rpPpc/aSFjwbdPi8Q0eXyN5/9lim2yrHJ1h4Sr8tvLD/lVUpT/M+dq+8lnRSaUTWYYvNPlQnuoUZ2NlVftonCjyO9aVW0Wi/W9XEH6PbPELsR3YiSzCpweYddSgooa14TDGDbB7u5fn22ps1SRDS8UdIrJ2bYkcmjPx52ZUiSYbmR66G3Ef7Nu+33cVldvb64yWbqOVi4WT/ykD/HV2bGeuFYewTSPc/1/Vwc/R2wv79IUITVKcjW4Oi3LpA2q06lhfvt7iw7MHPSx7Y7viLThO53QNWJGFOAKfa0Yu1LqK3PElSvtfXXk/HisqPPO6HHqhtlR0MVjQfjj9ocH/Va6rIbgXNzMnZVg4nLIkHPjHN9ii8uwWBzbYr8Y1P15sY+Y25fBd/wsL11Q+3+CnlXv61vF6741I5rGip3LHFjsVjhnH9E9kekOKs7FAWzx9Gh8Ygj93N17UjDyzwf/HY/EDnRs9gyWFQ7o47ogVtmbXUfRutYzXiC3P3MrZcBPADZUzcFbhkhY3Nrgp/ZDWj49SJkTv3B1KbFM+Tbjw75PX9gbldtFe70dd/PjI9VhMwowQ10eIIqdO9nO8tcGUWSv0c05SnI1aDmWTgeil9tgh+pPfxX80V8gJ6o2ebIfrbK+w+zGrxafWZWtgZRzClo3waHqtsOLIKrQNxwJcJ7pDXCzsXv7cjH8nD8Msxi9gzxK5Ys8Q2/WPa88VaSezYbkJP6r8psHZQ7HYOIIJizga7x4B5/MofLwZ0fIkxdnoZwYHVX49hDfnArywGdGLwSLwEQPxtV06fEjuxScqX+ofoongI5TxbFbCyPZ9bZG2uew8sCFZ1r425wsz3NMa/KFGFOK+0q4W7RuDWyaHUZaG+36XqDyeWjmoPFCJvKmo4s5tyg1HbV+zN+MrDX40wI3965gXu5JF44Qu+msIs043174Ob1jxmZKkOBvV9EZrjncO4cRbccI4Xnv4CjkQvXxQ5DZ0+nlagA81+NasIYqgLedFlGdG4cW78UJRjDE+r8SN8vBbLsb/JKrbzsJNhTu7uOuIyGsblUyn0R3bkY/AY2uYKx8gImQTcz7dqMwTRrHfG+C7De7pH8JFQ28UZ3wYPTq/UKOF7wzwn0cN8VycpDjrWA5my27mCCfuoeSOwhv7Vqjc7I1V+CnD8P8Nl0Cb2eALs4YpsXwGu1X+WXgKTcnrtyO4UWyBXrr84wCXHRWGuSOankjg3x1Pazvx7y7Mpx+Xp70juAMnlThOnhX5ZUPKh+meGCkmPSIi2uncU/iXvnWwBklSnI1YenkRvt1ePQ91VOLbDd43a5B/WE9snbwFXxshQ3Q3DsVXhqvy72C6usNuYB9RlLGXqGrNa7kzBPrduLNwQY0HxJwFXL0ptVKbHboN2kujQans0G4Uvj+eLhZI2whD2GTjUys3lnDkP77FVbOHyRrmo3SP50iRWrHpCBmfn+J1zfQ1THE2xsTZke0V1HDkPt2OVzY4Y3Abnt5Ypf9AVHqNBO7Bhwrf7xvGZNQZNArja2wtvb/yHLHtlHlpncHyLgZLRY/QP+CPLS5oxNbo/OYQ5QOtCz2Ma0Rvys1EbuMLCs+vEaUeJx34O4372tfRt1qxdXnncFq/tLcyP9Y+RkpR0sLKfv2RdpCkOBszwuyR+JaIng0X3yi8p29QrsAHKJOZXviE8EIaCczHzHF8+fANUC10cOQDTREVnvsbGdvAY5V7cX77uEi7i0FfPHiHlXZnj8dWnlh4Kp4lbFt2ytPSsdwtWir9rHJC/waweGkLs4Px0REkzBT+F2/rywrNFGdjTJw9U3QF2G4Y/5sFOKC5wsqnh50Lv8NuI2mlW/nkAMccvYEiJIdG54FdSlTPvU1YGmT0o3NpiYjxTbihRNup0wc4e6i2qg7hkQ32rUwr4TW2PXbEFjn8Hc3tYsfgJ4WL+kKkDTszmFzDLuOtOr8qczD34NWFP/al6WyKs7HCTLpq9LzcELlfP8OrV8zN6aVXmB+OpG27+zGr8Pm+dejFuZ7na3Irqjs/UKKibpMUah3N8i4GS8S1ciZOrtHU/WYRDVi8qlyantiKnFCZ1E7iP6h97NJ+yE7QuR03kjj/i8S5/lrle4XbmkNgcL0WwmzbyjH4VyNnl2I5P2nwn7M2kIhNUpx1BDOYVPm+qBTcECug1zRXaA/VnjjONvL6UC7DrAbHzootrQ3KdMZ38Xy8WRQPZKXdyHtoXyZsO87G5aJC9KYSInwnPEpsU+7TPnbIYRtR3Cmipj/D95sboTtFe3fiSPzbCFzEzcM7m/xwxW/MptwX98gdfRtQ6CYpzjYIh/CoRnQF2HwD/Hct/OD/s3feYXKVZR++3zO7qSQh9N5DFVERUFKoCoKAdJAmCEiVnuzMbgJJdmY2oYMiSJHeRKlSRBGyUUFQKVL9aCEQWnrb7O6c9/vjmUhYtkw5bc557uvK9X2S7M7MmXPe9/c+5fek4KQVR42kwRg4BfFZqzU6gF9ZuCgf0snuXKgfIKnp71k40og1glJ7zEPq095DImEbF//ooPDaYxbSXfgHV1LZoawNadjWSKCwUawAACAASURBVCpz7xq8htbCdBf2mdJNdiIjB5ergT8B1+Q05aniLE40wkkWfh3gS34CHJmDv3R50DYsni6/WYOXsR14EDg7JzVGoZCRDs9VDOyODFv/FpIS02dBUXwWEkgk/VMLNyJdlx9mq5x3WSnng1MP3zXwC6QesRbXgA7g6Bzc282+VQecbsXIfB7wQ50aUDuo7UAJjIYswY5RWglYNgaeal3BdX0kLDbyd7vW4HeXQpz+txoFL0yXVEbgtEJhOixqhVdGwV1GjFNXRiIvK6lIUxRfmIOkLi924FQLT+RhdmtIUyXGQn0/MbO+Htiyhp/7f7RB+u/d1GKOhA0N3IBkfAYAI0bCA9M1vaniLA40wXoWJhC8CeEI4NFWCf0DMB3c0dLF9H28N8IN7HMZ2Gk0vNkKM8J8I9OhoxVe+x7c3QkvFE+XqwOr6J2vKJ7wAXC3gStSkMvC9GmwbHqIbygjTSOnAZdQ2/WJBeCcfvDqtG7+cox8vl2K/9MAaxhY8B34x9+kfEZRcVa7jIL9gIMIfp5jf2Boq9Rk/I9WmDNa7AB2ruHvbx1glzHw3zHwbmvIdRB/AbcV3tsFnrHwMPB/wEaIM7xG0hSlPCzwNtBi5GB7bw5enhaBiE0jrAbkkFmZtW6n8jRwRbb7WrMxyLSWFX3a6oFNHfjLdCmdUSKMWgv0gZGbfFBIrz28O3HgwK+o7YfLAJtauNPC4ZmI+Ak1Q1sO/ovUoOyMeB09i6Rk9KSpKL0LsjlIR+2JRiZ2XJaF13Mh1ZStSBZMBjazMvbpNGrIXLYH2oB7F8GnXf9ivBzsTyoeLruyCXBaAwzUWzbaaOSsFzLSgnwaUogfNEuBU1u7cU6fBotGy3f3/Rq/xAOQDikzCv4zPcRxPivSCrYV2lrhpd3gNgsvI6fTQdRuOllR/GIm8KCBFgfGZ+H54vMTic7ANKQ6Za28ARhNPKLhLwOTLxEbjS8xSj7jBfTgLmBgGwN/bYV39NaNLho5651NCbYRYEUesFIHRQ8P2N3A6zG4xoOBtIFrx0dwjM4kaM/CHwpwFjIe6kxk9JBG0pSk8yoy5ugAA6dm4cHmiBWbN0I/Iw0INwLbxuS6txv4bU7q+bp+3sEGjqL3WroBwOR0MNZQSoWoY3YPTIBUAb5m/R3X1BNzgduWyTinbnHhEyOdRpfG4CTYHziwAFukZezSv/I9OMGHxRRxqH8tA285Ek3bzYWfGRiJRNQ0Cq3EHRdZk/7PwlUGHrEwPx9Sx2VvjAfTBsOKzVynUXuO/73xcaqHaTVWpmMcVcLv+Lojqc9L9baOJlrs3AMZGIKEwQ8LYQF80IXjW7oJWXc5JW1pxd9m2xhd+g+ATCf8dmrEB/g2QZ2FMRaORpzpR6hIU2LKu8hIrbsXw2NXil9ZJGkA48B2FrIGfhC3fc7COXm4out/vwDq6+E+YP8Sf9XLwGE5eFNv7+ihac2eFdJKfNGGHCSLgFv6EmYAbfJQPYQYvMaF9YGr6mDiBcHbl5RFM3Rm4akCnGjhcOAcYDrqwq3EhxeBNHB4HRyfg4ejLMyKEYfDgDsM7BPDAMTrBn7b3V/US/3unmX8rq8BR6bjFVWMDRo564FGOMDCAyG89J+XwN5XlLgANsEGrgiC9WP2FSxDBl+fkYL3m2tA8KShzsAwA1934QwjRcg6cF2psXMp7Yg581XAkwZmZyOYuuzKBBjcKULyNKTTPY6MtXBF11RyAwx24PfA98rZ1y185sDorEbPIoemYHpgNDQA3whakFg47RLx2SqJaTB/tKRgd4vZV1CHGNbuDLz1XZj514gLtOnil7a0Fd4bJf50Txr5HAORKKDWeCpRFmUzkRmMY4HGHLzYKtM0It/8koYtrKT6TqT2bTJ64nWgJb+CMTnAODApOAD4GWVaZBi5VoNGi+G5NjlFbANUutAEK7nlhYe94glHomCU+YBdb+FYpLs0ThhgRwu31cElDXB9S0TsNvqiRRoa/gH8owlGuFL7sh+SKq/Xp0yJkCj7N1Lc/8cOeO6SiDXj9EUxy5EGdorx99QBPFGA17r+RUqihD+m8mjhocAdwFP6OEQHjZx1w2iJQh0f8Ca6FBjrwJvTyvzBMfKzFhEAcWQYMNrARmPEQ2lhLb35aTBnJDxv4AngcSTNuTEydUJLC5SgsYBroNVAxsLF9fBoFt7/Ww3VSzbBoFHi5zUZmY8ZZ+YAZ7d0MR8fL+vHLkhXaqX7eT9gjVHw4PR41S+rOIuhODsd6b4LslbocQvX5nqxz+iJVrCjYK6Rh3TNmH4t/ZA0806j4KVd4bNpNRSGny7GtotHwfud8HAKHjLy/lcrHgL66ZOn+EwH8DHwhIFTgakGXs7B/GdqLKWVgQ0t5IGzqf0xTH1i4NacTDfoejAfZGWiyWbV/XpWM/DmLvDaNH1OIoGmNb/60A9BwuNBXpuFwO/yMtS8UuXydocUhG4Z443eAKOMWI1c1AR3NUdgNEw55CUy0YkUXJ/ZAFlHWt/3QTzTVtOnUPFBlL0A/MnAw1l4vlY/yPmQqoc9kEjRyIR8f7Ndac74ClayJV64CgwHjnfhz8BsfWTCR7vIvso2BO9U/5qF+6v5BROhYOFO4MMEfEfrAZe7cPG4GhczLfBxDn6NmO8eKPqNmfoYKh7QhkwaOQI4IgUX1rIwy8CgfnCOkQjSyAR9j7cYGST/lUCCFfser/bxPS3skdZSi8hEIpQv3/AnAL8kuGHcHcDJObjZo/efBcaRjJR1AXjBwskWXm2psULmHr6/fgUYkoJ9LZxs4OtIR5UepJRS15N5RrourwZe7oClU2u4E69B9qk1DbQYKXxPUkPNx8D+uW5EdUaawK7Cw7SuhZcdGJWtsbreOKJpzS/f7AMQt/0BAb7sm664OnuCA1e7cAzx8z3rjhSwk4GHgcZx8LspNdLN2RM5KcidDdyakekPeyKmmjugEwiUnmkDXgKesnB7rpuuvhoVZnVGmoFagB0T9p26wB9MN99lI6xmZV3wtN7OwDZWAhRX6iMV/uamFBktKbKzgA2DXH+MdCB6wkhYUgyH7pWgr26YgT0cWHU0PNcaseHLldIKna3w1l7wUCc8DbyBmNpuiEa9FWEB8DsrUaXLc/D76VXUrkaJCdDfwrlGUv1bJfC7/RyYnJPn/n+MB8dK3d35eB9FdID1R8Ej00uYUqP4hy7wK5CRBeBZYGhAL/ki8KMcvO/x59gEGeu0TcK+wnYrlhWnu/BKS8xMFYsTCIYaMdw8AykGHoJGwJNGB7DAwL0WrrPwznxYdE1MxoYVa57WNRK9+QFlGqvGBAs8vhD2u7pLuUYjDLbS/PV9n157GTDxE2i5UUfRhYYu6kWawFjY3gYnzArFE+9HXv9iBz5wpTlgYsK+435GCoUfNJAeBw/UeppzRfLS5TkHGUD99ybYopjC3gcxIB6qT3KsmQ/8F0nj32Thw1zMNs8mqCtIGnMK8O0EBxDaLFxydfd1tLshY5r8oj9w6JpSbvNffezCQSNnRTKS4v0NstkFwdvAITmJnnlOI2xV7ADdIqFf6QIL1xu4JCdFtXG+d9cAdi+KtO8TX6+7pPI58KiFxx14JuvDgS4KpGElIx6Tp5OMmtneeKgODpnUZYZmcX7ok4gPp69YON/ClS0RH3QfV7QD7IsL0Q/J4wdBAfhLPyng9YWszGF7gOQ+WEMN/By4KwPbj4/xQSQHn+bgbgNnFsVZI/Bu8T7TtERtsnzW5WQLu1s4Iw93xViYbWrgVuBCFWa0AZe1d7N2d8qopW2DeBMGzq6Tg58SAho5+2JxGGngLwTTpj3PwJ5Z+KefL9IE67nwHLBOwr/eGcB5LjzaUmOmtRXey6kUDHRllufxwHbAqmgDUNSxwDykBvUuK/Y6s/MxsIjpiQbo78Bo4HKkRlb3JPgdYq80p8t6vqoLd+FvSrMr+Rxk9CsJHl2si4yBE4FdA1ocHsr14PjsJdNgwSjob4KLCEaVYYgL/+BR8Fbcu5Cmg50G7a3wn5ESUXsWsedIISdhfe6jeYB4yMClKWjKwl+mw+LpMY58ZmB4Mdp7JbCBCjNAum+ndvU1mwBOQcoWTkdqwoJikzHwSKtODQgcbQj4gt0CWhw6rJwSg+J24DiSW3u2nAFG3MW/nYELDPwzm4CUX4vUrDxzFrQOhvWNNL38GNiXYP38lK9ikZrTmw1MM/Df5gpm69YaE8G0S01sDtg7YLER9fvhZQee6PoXndKV/RPk/wbJGhZOPgcuuFxLJAJFa87kBDcCqXMIQpw96kg9WCCk4GMD1yFdi0l/uFLIHLqHLRzekCBxciW4OXjfkTrEYw1sX4xYzCBGHa01QCcwF5lheGDxUHhNFl5MgjDLQP92+KGFR5G0uwozYSmyL+Sb5f6Iyn5dD+wzMKA6N+XLm1XiGS05/EMCiCS0ATkD/2oNSChNA3cMvIJ0hw5GjHaTHDExwErFjWHoaHhtuqQSEsE0sK3Q0QqftcLjO8M9KZiFRNFXIZmeUkGJsleReqLMlZB7Ct5ohWWtMfPj64kmWNPCBcClwOpoGhMksv08cGUdnNkM/+nuH42Rf+ciqc2gx1etbuDDXeC5aTGuf4ziRpVozgPTX8LrYwM4mTwHHJqDD8L4rI2y+e5iZcj2XmhauwC0WsjkxTsssWRguIUdDfwIOAjt0vLyQPZHxDT0H3Xw5qSEiLEu99e3gWbE8qVebwssMB2xb3qqFCPyNKxt4G7RaoHzPrCL14bpSs8kPnK2K6xiRKz4PR5kGXBzTpz7Q6EVlo6Bt5C03t+ADQ2sVRSlSRTqTvEa7DsaFu4KryT1ZNgKbdPh7THSsfwC0kG3si6RVfHnYn3fDQZeyMFnzySstOA86Le71Lz+GviG7jksA94EzrGQs/BsXjp0+2Q6LBojUf9dQxC4KxtYPFIaVZQASHxDgJHw+ogAXuozA3eE/XmzcmpfADzaJEOSD7ZwEvBNkukwb4C1gSsKsFVG5hPOSOrzUIBljszuTLr9ihfMyvtslxNl0rCBERFyMjITNsksQVKWt9bDzRMrrC904Q4DpxDCaD4LJxu4AXhPH23/SXzkbLTc5D8PQKjenoPbovTZp8lg7Vd2hYesRNT6IRtzEkV7PfAd4Ouj4YPWhC5Ao2EtA1erOPOENUfJIPK5SfvgGdjTwCXAkSQ7jWmRaPQlwMQc/OWZLq7/5TAd2kZL/eJ+IXyW/kZqVv+oj7aKM19pks+/L+KB5SeLgZ9G1StmGixthVdGwx+N1F6tD6yHRJWSlu7cBNhtDHTsAv+ZlqAJC40yX3asERdypXoGGqhrhccStKYOGgmnG2hB0phJpQOxSTkbuHwlaL0IFnnxi0fBewZ+iGR9gsQBVh4FT0+Hz/Tx9v9iJxYX6i3sHMBL3UcNFFLmYLaBPyAjgI5ChNqCBN4aG1i4zIWWRjHHTMoR/ztFU1DFu8PvDzMSkY09adjQhcsNTCW5I5iWAC9aOM0V2577cvBxxsNaQyMm2teG9Pk2N7Bvo2bdAlk8EstIOdnm8LfweQkwwcKb5RRSjoP+o8D9a8DXZBrQKunOV3eB31p4B7FXWJdkpSdSwE7ATmPg3T1gxtPxdmtfBUlnbo12cXvJykDbGHimtYp0VpS5AOp2hb2K6fADErqvdAJPA1daaMjD9OliWeM5reCOlijcXshzGyQOMkbqkenJPLgHeqGTrEw3wP/IyN8MvJgvY2PPyWzEM1IwPMzr0wwLc3CblW6ro5DaiaTZAOxs4ZZ2OC0TU8PMsbKZHoG06Ksw856jLWyfjuG1HQcD62EccBMJiRB2oYBYYvwYOCYH1+Th8wD2rneK63EYfMvAD9JqYq/izC8sfNfna9AGPJ6Fj0v9gUYwC2WT3DcqJ9A8fAo8iDh7Hw78A4kIJsUWYH3EOPOacbBmJmabbB1siqQz1YDWH1a20GzEBDoWNIGTgY1ScCdwIWLJk6CtgyXAy8BxDuxr4Hc5+CioNzBZ9pYnCKnZxMC5jth6KCrOfGGkz7//Q1Omr5mF4Q6cX3zo2qJyoXIy/mdJXurn9gTOKp7cFifkXukHnFAcf7R7XGouLpRU9XnAlroc+rqZjQJOjcNnOQ/qXWmiegQxLU5SuUMb8AxwXgpG5uCOZliQDSGj4Mj7+DCk6zCi6OGnqDjzlisl+rGjjy/hWngyC/8t8+eOtjKi429EdOZhTtKdNxQfzhOBP5EQ81YjqZubXbjgohikOTtkcz0mAtd1Bv76y9nixhpWWt4BTs3ITNOaZSwM7Q+TEVPZbUgOLmIqfIKFH+fg2skedV9WSjN8bmVGaxj3dAo4vhGGqYzy7wInkm/CZsXONL9SDW3AydMlJVgSTbCpldoNa+BXOfEeiyzTYfEoeM1IyvMFxIZideI/cWCogZEF+MYYeG4kzK9F1+w0rGfgOsQ2JUxed+BAK6mi3X16jaVGxgcNQZpbwrg/hwH1o+GpVmivMVHm7AJbO3ALcBjJMKy2wDILrxg4y8LUAvxzCiyMyhscI0X5x4a0lw8G3mztYR6oUv1pLqlsh78DwB828Eap/3g81Bcgjcw0fN+tERPUvKQ75+fgfitjRU4D/krIp8oAGIgIivsd2OvCGkvtNMAAIx5MW4X8VmZZOL0ArwHv+vg68y08a+T+/CCkz+oAh1jYvaGG1t4GGJiSeav3F8Vzf+LPYgt/t3Bmp6Qv78vDnKkRa4hqkwkUYe0VKwP7Z+TAo6g48wYDX/dRnLUD19syUn0F2KVoLJgC3rc1OGA2D0tycKOBgw2cgThJd8T8VvoGcEsHNKaDb2uviAwYR2ZnHku4onIRkKuH6XnZ9BYhswd92WwNzMnCv5DuwrAOD0MNXGhqZLB8BtZxpJnhRoIZcxc2BeAJC6db+FEebrg4ouUlxRNiJyHOawb2QOx3FBVn1XOefO4RPm5M0w28Uqp9RlrSHUcDaxbFzCstkuKpSbLw6Ty41cLRRk7cfyfeNWlrAA0GbkvDVudFPKXrwDADkwjeYXxFXODBAtww6QsBvwT/7vultjhg2spmdgPhRUG+aaTDMbKMl27MbwK3I+UfcU9jdiBd6IcAx+bhlpYacMG3cg+HOU5pDQOHNErDlKLirDr6y6a0Dv5sop0GHulf4oPdIO9hW+Dg5ZuIgedq/Rr/EmwePnPgDx2wh5XGgeeJb3dnf2AfAw/1h30yEbWlOB9SLmSsGOyGyX+A86Z8uSN5Cf5FKZa6RXGWhyVWDFOfJxw7GAMckQ5nPmKfZGCIK5Y5jwC7Ee9uzEXA8wZOrJOyjAdzZdQJh01O7t93Ca9rEwvHFcI96Kk4ixFr4p8vz3sW/jyhxFO5C/VG0izLPWMWd8ZAnC1nMtiLYWkebgZ+YOBcpMOoPab31mbAPUBTGtaO2pvrB3sDJxNudO9T4By+ugkuwz/7mCX9ZOwNRYH2DjCR8IaSDzNwQTr8Zowv0QgbATkrz+s6Md4D2oEnDJzlwPeycOskWJqrTe/GeYjnWlisnhKTckXFWdWsVRRoXuMCzy4to3ulXnL2e67wn16fUoZpbS2Rg9lZ+LUV64ZjELuQOE4cGAxcYODWRtiuKSJpzgxsCIwl3BTVMuBKF6Z33QiN/J0fNWfWwLxJXV6vIJtzPqTrYIDvGjguHYEC+wYwaRht4S7gFOKbpupE/BkPB36ShZuaVxDttYiV7tHXQ34Px41TU1oVZ9UwQRbFdfFnnuZS4JbLSxQcp0HKSj3Hiovzk3H/DvIwy8B9Bfi+Ea+0fxLhotsKqUfSuU9YOCrjb2dwKcKsP1LXOIrwxKIFnknBdS3dRE5dEWZ+RFRdt5uROlPkOb0R+F1I16POwHkGvhayMBvswKlFS5ydgLqYPYsWKad4EXH039+Fh3IxOQTnYZmBNwm3+Wr9VETT9CrOaoSCbFJb+PTrX1pUxryzlaXGYfsVNkuLGLrGniy4U2BxFu6xEjk8v3iiXRKjj2mANa0YduYz/s9x7Y2dkEkAYT7z7xkYNxlm9/D3fqU1LT28ZlbSmjnKN4v26o0NB6Zm/DksliLat3DgGuBy5L3EzZ+wrbiu/LxoiXFnMyxqiV/EfgbhpegBVrLwo8aQD6Eqzmr7CNUPn1rCLVx1VYldicWb+CBgtRUfMDekTSLkk9+8HFxj4MdG6qGmEa/FcyDwc+D2RhHkgTIeVgUuLm6+oW2SBsZlJXrRk5L1K63pml6GUXfKe7osxIPBmOL9EbQwOxSZjXkM8UtjdgKPIXYxR+fgpqnxOvh13XtmIYa0oR1EDexopblNUXFWUSjDL3H2qpFZZ6U+TBshG/WK38E/nfgWyvdJFj42UvNyAJKCexm5HjYmz9ooC3dm4OcNAXVzngyOC+OBb4W7d3CVhT/08Wz6VnNGz9E6poLbDjcV5+CGca/VAT9JS8rZb0Fm0jA8I7V21xbvi7hEyyxSHvEP4CADP66D+3IiXOIedJhF+LVzGwG7NCZr1qqKM4+jGJv48HvvNTCnlH/YBI6RdGZX875/FU98iaVZJg7My8FdjgymPxd4lnjUpBmkg/NiBy7L+JdeB6ABnNVgPwtHEl4dkQVai+PIlvSxGIUSOQO4BNqtpNbDGkWzsYGz0xLl9IUz5P7bzsiIuHHUiGlyiSxG/CV/Vg+jc/BwtpsmkLiSl87nuWG/DwsHFZIx2kvFmQ83zwZ4P0/zI+CpbIlRLxf62+5bj19KujjrItQW5eCXRSPbM4GniIeZbT+kI+62DBw21ifhZMQKoYFw3eg/ByZlSxgxU+ejOKOXyNkK12uWgUwp/9YnfmTgOD+6e8fCgKHwU+AOZNh9XKJlyx39T7VwcBZum5jc7MM7Ya+PBnZyZPqOouKsbHHmx43zbyPCqtQbeDO+OuD5U2BWLiEnvXLIwscpuKkYATqmKGLjINJ2AK6pg4lpjwvCM+Kf10C4ZrOugUl1JTbJXCjfqR8bqy30ETkr3meulYac3xBO51sKyHTCd7z6heMljbl6HVyB1NXFYdSOLd4n0yzsjzj635avAUd/n3k9AuuiA5w4Nn6NJSrOAvjAXi9OS4BHs+I1U+rKcjhf9TZ6L8QTe+SZLBMHPgXuboeRRQuSf1P7Rb6rAmkH7myEbRu9i6IdDJwUYoTEGik2v2lSec0dS/H+gOI6JT5bOWizImL+GdJ1W8WBS5s8cFxPQ72FHYu1dCcTjwHVC4C/Gzh2mVjxPFZLjv4+K9a3InJo3ccRT0VFxVlZN/CWHv/Kz4AHylgw+yOnva68Z0usWUsyObCXwOI8/MqFHyC1M89Q2+lgY+EHFh6ycEIjDKrmlzXCtsXZmWF24L3oSjqzXPG8BO87dTuWFEc3lUIeZlm5r8KIxBhge1emB1TcNNIAQwyc7sra9B1qP5LRBjxi4YxO2DsL91wKyzTT8KUb5/2IiLPBjjR0KSrOSuMiWaA29/jXPpSTmrNS+S5fHdligffy4bZC1xwt8EkOfmFlITgeiaTVsgXHRsAlLlyXqXB0TgaGWxhrYdMQP8dsAzkD/1fBz/ohzmZfUeamtQSmIwI3jM2/H3Cyge9nKlij07ChI0X/zfg3pi4oOpDB3odYOCEPt00tI0uRMD6MyPpXD+zVGJJ3n4qz2nzK18TbG2ZZ0WC0nNPN9/nqmIuliImgUgF5mAnc2Qm7WjgNeA3/ZjT6zRAjtXV/aoQ9G8uIfqWlZulHSNo8rGe708Ct/4TfVRjVWOyDICo7Anal1MvdBdwbkkAbZuHSouVOSTRCv0bY28iUkYPwvvEpKCwykPw5A4cV4EAXHtWast4piJVGVA74m1mpqVVUnJXEpsgG5hVPGHi7jMVzZeDbfNUHRsVZleTAnQoL8nBdAXZBvL3+TrgjTSolBWxl4W4L56dLrD8y0uwymXB9hp6ycNHjFQoa40PkzFRYk5SVOrWpSC1P4BjY1MA1mRK+/zSsbmGclTq/ETW8ti8GngBO74Bds/DAFFjSounLPpki1ygq+8hawMgm9TxTcVbicWxjD8WZBe5wymj9L6aauvNYW6LizNNF6vMcXGJlbudpSHF3LS7uqwIXGbglAzv29g8z4p92JTI3Niz+CzTkqji9Wx/EmVtFwXgO/mUkPRhWJHYPoCndSx1iI+xg4ObigWR4jT62ncAjwDEGjs3BrRfXbvQ7TD6I0HvZ3fXRt0/FWbzE2QYeirP/WHixucSNZLzUu21G910sSxwVZ56Th/cc+I0Lexk4FamBqrVIWj2wN3BvBk7MfDUlzjhJX01C6hnDYqGBKY5MdagGP2rOqurmM3APUr4Q1vSAnxo4PtOlwzsDAzNwtJX39wNqL0qx3NH/78ABFo5uhweymr6s5oJG6dp91/pj+K7iLG4YEWeON88A013pjin1WDgA6ZrqziphdnME3J3jSDMUWmB2Fq5zxPPrQqRxoKO2bl02RMbtXJ2Gr11Y7L67AOpS0gwR5hQAF7ivIEOlq+0WW+KDCPq8ynuooxg9mx7S9R0sZw0OSRdrEDNyP1wE3IBkBGqtG3MB8DRw0hLYJSc1ZfMv0fRltQtFlOyY6gwcmva2lCgx1CXs867rkTibB/x5ShkpTSNpidE9bGyv660YiFCbA+QbJdLwQyuGtt+uoY+QAn5iYKcO+FUj3G7hh0g6K8zi738BF7Z4M2JrMR5HzhwPNiwHPi/ABOBWYP0QrvEQ4GoDm6fhDcTDbrcafAw7kIHkd1p4Mq/2QV7zecTez8H1ciBWJ4Ly15xk0CSeQcM9OmF+CPy5nB+wMsduu+7/itf0VgyOLLyTkrFQP0LGvoQ+9qRMtgLyFv6K1JmFOZ5pjoWf5zyqdTH+1JxVLc4mg3WhFfgV4c15HQ6MM/Iedq2h+9UiB9lnio7+J+TgHhVmvlzoqImztQtfnYajqDj7goKIIy+iCy7wcK4MU8vipjOS7iOVFhEHSoBMgkJWRPZ1LnzbSlTkDWpnOGKQgwAAIABJREFULt/gokgLswB8megW79z0rT9pTU9EQAsU+sHlyIinsOgPDKN20pgLgL8Bx7aJo/8TOZ2E4ifzI/Z+UhYO1a+lfJKU1hxOlc7rRZa6cHsFP9fT6cE6ZdSuKd5S9OKaC+TScJcRj7ADkPo0nQ/X+yHlESszDT0TtBaWGO+tNDyL0FwEbY1wTrHQeRu9DXqkA8ku3FkQOww1jg2GpRF7PwbYMQ3r5uUwrJRIkhoChiFF+dUyzYplQDkLej3d15sB2E7t1IwEeXh3CExBiuvPQDzstEC5e953YXze+yiI12nNDq83LAvvAo1oE09P1/uPFg4Ejs/BbSrMAt3Ql0Xwba3uwBj9dlSc9SbOBlb7SwzcXV/mHMcO+BqwWg8L/edGF6/IkAabkyH01zniLTYO+d/tenW+OJ1bOLfFh0YW431acz4e1xPmZHrA48D11KbJsddYYJGV9PaxBTjQwqM5+FgvTeBfRBS94YZZGH2hGtKWRWLSmgaGUn3k7GMX/p4vc/NwxSSyvgd1PAONzkSOnGzoc4CLm+BeF36KFDNvl/BLUwAuN/AHn57TxdbbyNl8fJg3mIVlGbgCscdJclRgMdBq4K4OuFeNY8PFgbaIDhf+ZofMC9YSntK/y8SwMtVHzp4xFZj8Gdi+JyFsJT2k4izCNMP7OZhg4AjgHKRxIKn80cDVOZ8iRinv05rzrU+duDmYZeB84JOEivQngWMcODarjv5RIaLajG1tOBY0Ks5qgGFUFynstDB9VpndMEXTyC3o2YhvhlFxVhNk4Q0HfuHAHkZqjmaRrLTW+xYmZ31MV02SkgEvr+kC4+OG5YjHW4basmKplOWO/s8iTTOHdsADzeroHyVlFlXD18HAdxuS561aMYm4UI1QbyWtWQ0fGvjnb8oUUsWpBKv18k9mqjirHZpFPHwE5DJwq4EzLewLbEm8nbCXAi15GbXjN4s8/F3zjY/CaTIUMvA7pOHnmBjfA4uAF4Ab6+HeiVqDGUkcqItq6MzAPsAvKbNmO8HfZWJEaLXi7CPgPxX83Eb0Pvz1M6virCbJwcysNAwcgrj0vxnjj/vrergxoNfyskFmvutzqicnqdOpxDPd3QE8ZOFnFg7Nwe0qzKJLIdqHg50MrKXfkoqzFamvUpwVgH/lKts0NqB3o9DP1Uyr5kXaG8AlVk6GjUgNUpzSXH8GLp0YXArXS3G2IIjvIg+vW8ghNXO1znJH/2kUHf3zcGc+eu7zSveBiKgyEPiBfkUqzv6HKzfskCp+RTvwVLk/dKGcYjZAXL17WgVnZzVyFgeB1pGXSQ95V+Z1Xon4YdW6SPvAQN6r8UwlKgNPI2dOQEXSn8PdBu6s8e97uaP/cXXwPdTRv9ZYKeLvb3/9impfZXv9OauJnC125RRZFh1SBLlxL/+kzUTP0VmpTqRZYCZwXgZuBo4CDgJG1ODH6QAuy5Y5R7ZaPPb9m18ISCBfD24GJgLfQAR6LbEM+CNwr4EHs+q9WJMYcSWIMttmYC31wOsbJyE3bF01JwoLz7VUFtIf1Ic4W4AWR8ZZqL3iSi3aQUAzEoGopSjp7QZ+HcLretoQYAO0F7BSm5qndoZ6dwBPGjjIwE9zcLsKs5re64ZF/C0ORuZMKyrOAEkvDqjiIj1RxY3Ymzibb9RhPNa0QEcO/mNhogM7AzchQj/q6c4XCtCUDaeGyktxsHBKgOIsL9MDHgMejvB3bIvX+DkDhztwgIHHsmqJUfPY6IuzQcg6qKg4+9/nrFScWQutVTwo6/byTxZYFWeJIA+dzfAWcBKwH3ALEmWJIh8DTfXi4xbG6d+ryJnnczVLISvjrS4hmjNzFwOPGzijDnbNwv3NsLRZ615jgendGSAK1CGpzZX121JxBtVFzv7Pwofl/lAGjIFN5XnpkSUkw7xSKZKT2Z3PujJY/TDgamBexN7mmxb+HdaGbb2L1i0lJNf6vNju/CJC32kBqSk72oHjsnDrJHX0jx1WRiRFnY1s7xklheTUnFUjzl5wKljErIiyLfr4Z8uI7rgNxUdaYGkO/gqMtdIVdz+SaorC/TAIScmH9bx6FTlrI0QB4sKthFv43NXR/7AOeFAd/WMtztatgbe5IbCJflu9U5eQG7aatOYLhQpSI0Zec3MVZ0pv5EQ8vAAc1Ai7WjgLGaS9Sohva6hTvWlzNaJmiUfef202xG7oooXHwJBefqGFFwzc1gZ3XKbGsYnAwHo18Db7Gdi2ER7O6n2ZbHFG5ZGzRcAbLZV1VBoLWxgVZ0qJZOHpJnjBhV0RC44fVXGoqIZhNkRxhoeRM0eesbDYjOALtNuBxxG/tSdztdM1qlTJWbLPrVkjb3dHKwcXFWcJF2cOvRjB9sJMKjTfbAennyzOfYkzrTlT/kezCJNH0jDdwO3A5QTvkTacECN3xruas2U2XHEWhtdZBrhZjWOTx0qwtg3nMFfpszEImK/fXM+iJfbYyoQZwEy3gmaAoupdh76nEiwzGjlTuiEP83LwB+Bpgr9H+gNrN4W0PhjpKPREnJlkibMFwKsqzJKJKw1oqRp5u6sDW+q3lnBxZiozoHWB91sqTAukpBulr9KZNlfFmdI7/yaEonYLm3RCv5CeVy8jZ2F2JH4r4Nebg6YxE4upLXEGsLt+awkXZ1TWebYMaYevdHPbsARx1mFVnCm98yohRH8MbJIKT5x5FjkLK605DtYm+PqfBcU/SgKxIs5qaU/fQ781FWeViLM24KUqXnOjEsSZGj8qveLCe4RTNLu5DUmc2RikNR3YisrLKSploVFxlliM2FPUUuRs6wmS3lQSLM4qKZJsc+GVKh6UUtKaGL0Hld75iHDsIEaYkLzOOuRg5EVEua0uJHFmYOsQxNkCV+diJpK0dD6uX2N7er9COE0zKs4iRCWnibcrHHa+/PRfSlpTUXqlBTqNdA0HfqCxfZso+/WwFvCmVmzZpPDGo21D8J1zC/IqzpK6ka+PdFnXEnUu7KDfXoLFmanscz5b6euNg3pKm3FmHL0Hlb6F/lshPTfbh/ixF1d/2UIZ2k6DeMRtFPD6WkCd/5O8RqxXi+Is5DVGxVkEbtxKImd/q/iOk4ekn95eikf8N6Tn5lvhPbJVp3JdQooipaQZYO2AX7aTcEdFKeGyPrU3TNwA6zXWjnGuijN/1svyTqGOWBhUyiqlijPtCFBK4P9Cet1vHh3OGuFF1KsQljizIsyCHkDdaVWcJZIJYia/MeGNCquGVa3O2Uy0OCt3EsK7bhVGjlbFmeIt74f0uqtvABuEIG6srdHI2bnFaADBd6Fp5CyhdIjZ+dY1+vZXLQpLJYnizJQfOXvZVDZPcznDkbqzvkg52jSg9P2QziQcP7x64JshPK9eGNGGIs4GyqFsmxC+q04HPtGnJZHrwxDgazX69lcCNhmfnECRirNu1vtyeMlWIc5M6ZGzAehNqfStMhYTjvN7HeHUnXlSc2ZCEGfF2YbbhiHOCirOkro+rE7w83e9ZEShsik+Ks5iQFnDxQ28nKpCnFkpzCwlcjbA1pZpoBLa+lvZjFcPxNl2IYmzaq003JA8vwYAXw9DnLWrOEscadnDt6f80p1IiTOj4iyZ4qzMKNhcCx9Nrq4cbEiJD0t/NHKmlHa4+CiE1zXA2pmA66es/KnWPNZ1YFEIa82aSOdc0My5LJxJEkqIGHAM7FbjH2Mzq+IsmeKM8sTZDAtzq3y9oSWKswFo5EzpewF2TTiRM4BVjRgqB/l5rQdjlwo2hFFGBnYK6XuaqU9KIk9tA4Fda/xjrG5h7bFaf63irIRFrmJxdrHcYIMp7UbTmjOlTyy4NpzIGUj95IbBf+Tq05qEEDkDvqviTAmKFOwIrBaDj/LNlIozFWd9LXLtMK/SF5ovqcpSZxJq5EwpRWWEKc6GWdj4lAAXzmK3Znv1ly3YmrOL5K1/J6Tv6QN9UhJ5cPtBHPZxA9sbDVQkT5zZ0ufrdQAzLq2iGaAgXZoqzhRP9ZkJT5wBjFgVBgX4vFrrTUNAoJGzAqyLeJyFgUbOEsY4GX80Jib7+PYFjZwlT5yV4Vm2xMK7VV7Qekp3al7JqDhT+qBF0nxzCa/ge/MQCnarbgioCzhyVgi3a07FWcJIwTcIfhKFX2xkam82qIqzABf6xU6V4syVxbl/if98iC3NckNRllB9o0rF4sxIB3IgWBGj1Yqzpc1lWuh4cAgMTZy5MEMfkcQxCnHYjwP1qdqdcqDirIpFc3Gp4ozqI2dliTNq259GCU6wLKWKWsgqWYcAhxM75R2oeiLwa+WKJ1wYz3O7C5/qU5IcGiWSvQNSGhOLbdoNx1NRxVnIlCrOZmerNHK0GjlT/DlghBk5w8K3MgGtFx5FzgIVZ42wupGaszDqZj6tq27cnFJ7h7X1CGG0mp9LnAnHvFnFWQSiDiUcfHnNg9cqR5wRZLpIUXFWBTsEuF5ULc6C9jhzYRPCSzF9RDizV5UQyMgBYHNgi5hpkW30202YOENqT/o6WVoDL3mwiZYrzlZp1C4Vpe/Nf2mY4szADjag9cJ48zvmBXx9NiU8vykVZ8miH3BADPfvVcYHWD6h4iw64qyvk7h14VUPXitFGalKC6vqqqr0RXv4ac2NgTWC0zrVrU0mwMhZkzzzIwhvBM0sq+IsMVgxhv5hDD/a4IKsMwrJSWu69O2b5DrwukfXtBx7jFWMRs6UPrhU7uHZhLcJp4y4kQfxvFa9NlmYH+D6MgTYKsTbY5ZRcZYYDOwT4EEpUHGGirNkiTMjkbO+xNknwOcevFZZ4szI7EIVZ0opfE71hfIVrxU22NFEtSbOQrMBMDDLUXGWJI6N6ecaSPCj4lSchUwnfbuFv+5FaqBYl1NXxr9f0+p9qJQuzsIyojW1FDkLMq1ppRFg87BuCguzCirOEkFavPTiWjjfD1jvXB3jpOKsqzj7Yl+o+pqWk9ZcC42cKaVtwp8RXuTMAOs2BuBIXowkD6zydwTSEJAR0botZTQBeUw7MD/vzdqlRBwDBwNDY/wR1x4Y78+n4qwbcbawj5v+dcebBc6oOFN8WpjDTGuC+PL5Xltl5fnZoMrfMTQdwPpmJd07MsTvZB6lWQUpNU4a1gd2Id7emGtZFWcqzlbEhTfavRNn5VzXtfU2VEq8sT4jvLQmBFBblYF6A6OpvhvtMgOnNfi80LvSKLFziN/JXCudvEqMGS8R2m8hUdo4szYwTL9xTWsuZwHw8VTvUgPl/J5V3PBSIkoNURd+5GwgsEVTeZHhkmmAQcApwO1IRLkaVgamOnBFo48dYEZ8mUaE+J3MczRyFnsK8uztTfxNy9c2GjlLjjhz+o6cfWC8W+BsmeKsLhXPtmjFYyaKMJsX8tvY2BWfJU9phGEOtAA5vHseBgLHWfhtWqJxfqwt3yXc+bia1kwARp6JQxLwUQdYWKdBmwKScQE6+hZnMz1e4MqNwK2FopTGTMIt/t7EeOiEPx5MI2xkJVp2Ot4buTrAtwzck4ETGsRLycsHfWTI6+g8V9OaSeAYwptAEShWOp9TSf/Ck+Jz1kHvvkcfmr590MoRZuVsnsaqOFNKv5c/CFmcbWRhdS9+URqcAuxi4T6kxszx77KxNnC1AxelZUB51ewldUDfDlucoZGzWJOG1Swcn6A1bgtHxVkyxFmLeADN7WVT+8h6tMBZeQ23vHvRf3sCJR64MCNkcTbAwJbV1p01gXHgSOBmxLspCAYB5xq4LeNBEf+3YSPCbeixwJx833ODldoWK0fi0YGiFrCwqVVxlpy8rpWi/+4EWAGYlfNugStbnFl1RVZKJ2xxhoUdC1XUWY2FwS40W7iW4O99B9gVuCMNBzbCgCqE8taEW6DdbmWklxJTmqSx5TDEoDUpYnRTo+IsOeLMSFqzu9TlIuBTDy9oAUmjlvzWjIozpfT7K3RxBuxgKhRnadiwDn4JXEB4g8INsJGBO4ALMhVGv4x4voUqzoyKs1jjwm6EOBosJNZwYLiu9cmhJ3G20EtxRgXiDDEXVJQ+6YyGONuyko7NRhF1NyHFzVEw0hxo4SLg1xn4ejk/OE7sb7YgXBucZUXvOyWGNIqlxIH40B0dcYwrz5aKs4TQU1pzkfVQnNnyxRnAsLEed5EpsX1gFxiYE/Lb6OeUMWezEVIZONzCvUgkwInWJWUf4LeNsGemxIhgnXTOjQj5vbejkbM4sznwo4R+9i11rU+KFJfIWXfizI/IWbku7gPq1etMKe0+tlY6NsNm11L+URpWduEcpL5sI6I5qswBNrfwe+DnGanz6esQtgYhDjtfLs5cFWexZDzUWTiV+JvOqjhLujgrLmLd+QHNy3sbiagkctbfK3sCJfZYJLUZNqNP6UNopaWu6xIjxrIr18C1HYK811+ke0mrFA0yNyH80WvtjoqzWNIJ2wCHJvgSqDhLygfNix/Qgq6azYipp2cY6fosd8ROfzRyppQuzt6PwPtYe5Ue0nrjwWRgRyPGssdTW4Oa+wNHGrg/LfU+3S2adYQ7T3M5bdnwU9yKDxg4n/AaZqLAxmckvGMzaSMSPuDLNhcF6/FGZyWlWa5jd3/UiFYpXZxFIXI2EDFg/RKNMKAT9gXuIXz3/GrWxa0M/CYjprVdndnrgTERuA8+0cchfmTkudmdaJYABLa+DE6Qt5uKMxFihRX+t2s93uispDTLFWcDSfiNqJSGKzVnkRRnjeJkfr6BO5H6slpnGDDBwK/TsNPy/2jkIPX1kN+bBT7UJyJeNMhzdZQe1ql3YAMVZ8kVZwXHe3FWSeQsBaw9IdwBykoN0CKb8swIvJU6YNsmWLV42t/Iin/ZeOJVxGyAA4tTBRrGwxAr6c4omILO1CciXhS98/ZHB3/XG1gvyRcgaWLgPb6c1nRdj9OaddJBVckoqDU7ZVObq0uU0scCvhAxTw67JmVzC1/PyJSLq40U8cZ1UxkBTCzAfgbWseG/H2s1chYrMlLeciyaRVkuzhLt/5kodd4Jb/LlMU3t/T1e4Jolcra4EnFGctumlfJYhrf2L5WynoVfAI8acTGP+3rSD9jZRiNlq2nN+B26tiRBA877Emc24ZGzRImzBfAxXy6inXWRRwPPu6yaCynfxX0NFWdKGeIsCs7wDiLK+utXErw4M5rWjA15SFmYiEwFUKTUZ60fJ7gpIlHi7FoRTK+s8J/e9ukENJfyjWjX1AdTKUOcfaqXIdniTNOa8WEhHEKJxs4JYuUNpSlHxVlCeGmF//8dn15jLuUb0a5kYNUJyW6fVkrZlaMTOVPCY5ER70alxslI1uRkEixEehJnpjbMq1WcecS/l/8/xj9xNofyI2cAW7gJN95TSnpoNXKmfEj5pRNKxGiQprz9iYapceTEGSrOkoML/6FYZ+b6GzmrRJxtY1WcKX2QlaisRs6SzUwVZ7WPFW/As4ABejW+Ks6spjUT9YHnAy8DpMRawy9x1lHBg7qNVa8zpTTmAG16GRKLRs5qnIngpOBUA1/Tq9EtwzStmayTShvwArDU9WkunVN5WnNLq51vSunibIleBhVnSm3SDtsDp+uV6JH+wGrphBryJvFDtyF1Z+/zZc8zzyhULs6GAhvrM6mUwFwq89NTYiLOtHOodhknkyaagOF6NXplPSeh2aTEibO8TAj4r4GnTWUCqpTXWEKFnVQGvqHPo9IXViNnSf/+P3Q1claTnC3pzIOB3dAxTX2xvgv1Ks6Ss7C9aeEe/K3ZmUFli6eKM6UUEa/iLME48HFexVlNMkgGep+Gmo6XwnpGxVlyyMMnn8K0rFgS+MV7FYqzHfV5VEp4cFWcJZcFVlPaNUkaHAunADvo1SiJ9VFxlixu+PIA9CiJs/XTYkqoKD3SLAeLuWj0JIl87ldJhuIvBnY2EjVTSrteGjlTIiPOBhrYVi+fUgIf4f8hQ4mgOEPFWc3RIJ5dzcBKejVKw0qTXCLtNFSc+YRbuTjrj4ozpTRmqjhLJLOtirOa4kJwHDgBSWdqo215Am1TFWeKZxj4gAqMaFWcKWUsWirOkivOlullqB3aYWuk1myQXo2y99LNVJwpXt5Q7VQ2gcABNmiEVfQqKn0wEyjoZUgcn2vkrHZIw2AD5wGb69Wo6BCqkTPF63uKNyr82XUsrK2XUOnj4dXIWTKZXa/irJYO6ocAx+iVqBiNnCmREWfrFf8oSo+kVJwlEReYM1m/95ogA9sA4+VxVSpEI2eKp6clF3izwh8fCmzZqEPQlV6YBAvxaT5sxMXJx8BVwJ7A5cCiBH3+pabC6SNK4MJsMNAAbOTTc7CseO/PK64DC4mntc7q4+RaJgrd/H0iCzYtY6IqZQdgQMI2HqV83vNp8Y8ii4HHgKk5eB5gHLSm4BXZCxOR/lhiVZzVgjBLAfsD++FN1GxZ8VDyMWKl8inwLvCuhRkOzLcwBrgYaSqLEylHMklvJukeUnHmIwZmI0ahlQy33dHCQBVnSgniLCmfM+vAvc2wYPl/nCK1V79Jw+sGLgT2jvl1WIqKs8jjwDoupBFvs0pwgdeBlyy8YuC/wIfARy581iL3wZdohBE2npEzBxVnipdYSUF8UKE4G+HCusBneiWVBIuzTuBZ4OcOvNIs//sr5OHZjPhINQAnEl/LgqUaOYs2jVBXgAvLNBPvKArvfwIPGHjKhU8NLHWhbUoJtkxWsi1B7OlLgGssvGlkms0uwE5Ipqcf3vu4OSaBNdgqzvy/id8Hvl7hcWFX4EW9jEpPGHgvxvOb5gC31sOFE1eIlvVEDmadBxf0h3eAs4lnuncJKs6ifig/0sBRJf7zhcBbwEMO3NUsEbKyaRBRFJQ4e9hANvfFfZjLwDpI1Ho/4BvIcHevatpTqDhTPN44FwNvV/ErvgdcoVdS6YV3Y/q5XgGywO8nlmHmfKmkOa/MwEvARcVTfZxYOkDFWWRJizBpRKJIvTEbeMzA48AzWem8rmYj37yYafGbZcAzDszvcjD6CLjpTLhlCGwP/BA4EPiaB6/pIAPQE4V2a/pIDtqKm2elbe87NsBqeiWVXk7pH8TvI3GPgQNd+G2usikbAM9YOA64jXh5gi26UKJnSvSE2SoGxtKz2awLzDFStL+HgdOzcEe1wqz4i7cC1gzgY84Enp3cQ23b1VDIwT8sTLawr4XzkSaGagL8DsEITxVnCWMmJaRkemClFOyml1DphaXEpy5xDjABODELb7dU4eWVA5uH95fBSQZyxUhFrbPcRkSJGOOlLupw4Ai+WnPVUTyk/8KRqFI6By9lK98XuorCemA7Km8+KOfg9KYrUe1eyUNHHmYYuMLAzsDdVN7cZoDhmb6jkSrOlLIjG3Mr/PF6K15OitITnUhKodZ5ycCp/aAl52GH8qWwzMAkAycDr8ZAnM3SWz56FESATOwizFzg36JV2D8HZzXDe1mPR64ZWBUYHcDHbAcebumhKaeHQ1IhC++68FPgXCqsqUMafBI10lDFmf/ibCaV14ikgO3G65xNpeeFucPUtjizwL0GjsrCvReVsfCXSrO8xgMGjgT+SO3aDbhWxVnkyEjKbSqw+gr/+VXgNODQ+TAxB//xcQ1YF9gxgI+6yMIDlfxgCyxdG25w4Wjg6Qp+xWAVZ4qntMhi+nkVv2LdTm+KKpV40mlrV5zNBVpcOCXrc1QrC25W/KIOB35BNz5RtSDOjIqzSDFBUm3nAN9GaoxfB84owGgDN+Tg7V/6OGorA46FvQgm5fdAAT6p9IfPBFsQ8+hjgd9SXi3oICqzpFJxpvQaGniVyiMCaxrY9hzvvWOUGFAQcVaLG/ZrwNnrQmNL5Wn/SkTaPAMXIIXKtdZM4Zp4pLBjQRqcThFGRyCiownYNQe/nAJzvU5f9vD81yOD1f2m3cCNU6uMOl8MNifP3c8s3FqGQBuEpG9VnCme8nwV4qwe2HEgDNHLqHSlrvbSmi7wEHBsDm49PYQUYxaWFeC64gn++drS4ho5iwoG+luxzmgwcHgOLs3JWKXASInR7TYBvNQ0KwcqT8jB3BScJ3qtJIGmaU3Fe6y4PndU8StGWrXUULqhWcTOZ/iYOvGQxcCVDpxg4F9hvpEpUOgPzwAHATfjQ62bH8K2Q8VZlGgDLgPu9MIOo0KOwn+/UmvgvjqPRwk2wwIDU4Cri9eyN/qjkTPFawZIh0o1dWebOrB1k6Y2le6Zj0dt+T7yjoUz7oHzmmF2toyI2XhxP++VieCU22p/oaRYZlo4S/Ra5O025kxVj7PIULRrWZgL6WA0XsTK9wPYx9+y8OwkH9K0WVhYkJm4t5VwQFq9sYS1QMWZUjIXycP7bFVHFzjY6veldM8Cujh2RwgL/MnCURZuebsMUfYLMBnYv1NsMHqlXVI7UxorGJWWhwWOTBM4Aynojioz9VZXllOA3ZGxSX7iAv/w87mYAosdqQO9vY9/uoaVCJqKM8U7DPy1yl+xb0HrzpSexVkUI2edBq4uwNF5eLalDGGWgeEfQTNwvSmh4NmKlcApFu5rhKPLPWE3Q6cD9yJpoj8TzTTxB3qrKwBpub93w3/j2UUGHsj5PGWjGeYbGA88rOJMxVnQPFvlzw93pDNIUboK/6ilNS3wIXCqhbFTymi/bwKnUUbR3Cp7EGsgnVp9sTLiCzjCwm9cuKoB1kuXUQrQDG5OTEN/XDzFL4rY96yRM2X5vbABYnzrd6nLjH7wWBCfqVi31wS8SPcHudWNijPFh93qA+C9Kn5FCjHRVJQv4UYvrdkKHFsPN+ZkUHJJjIX+Lhxq4X5kcPLyjae+hOdrxU2qzsDJjngp7T2uzHUuB58OkLFPE4oiMypriIozhQbxNtuWYPwvr70wQE/AHLxcFGjd1X9q5Ezx5aSzFMndV/Er+EYxqqAo/yMvEZ4oiLMC8EvguBw8NbGMNOYFMKROxt9cA2zRzcGkL9q6eV6+Y+CmFEy4CAaW80EmQLsLV1s4HnF3j8JUAU1rKqSgn4HDSnwuquG/HsHxAAAgAElEQVQ9C/cF/fk6JFKX4asNCGto5EzxS5xV66m0upUiUEXpyseEZwdhkdTleQYacmVEiNPgNMBmdRLlOo/uvYxMCc9XTxG6tYCGdri3EbYsJ4qWl+v5Jwv7GfgTPtfdlHCRNXKmYGBD4IAAXupmA3OC/nwXi9ny3cANXQ5FA0yCvM5UnAVEsyz0r1FdHcsgYEwGhuoVVbrwUYji7HkDJ+XgymwZ9/cFkq7c34EHjdRT1vUi/vqirZd/1x/4oYXfOXBIOc0CebFLeM/AwcAVhBehdG3ABqdKNHHhVMqMBFdy2LPwSK46f86KycJC4HK+Wn+2oYozxY8TzwzkTzXslKQbVCn53vqI4BfSDuBmC8dme++y+goXwcB6GG/EqX/rvvej3rGl1bZtbeBaF1oyZZo6N8PCot3GmYQzkeGzVMiROyV8GmTIeRBRsz8Db4b5WXPy+rkVAxpWxZni08WeAbxf5a/Z0MLODf7XGyi1xSyCjZzNAyY7cJaBt0r9oYx4l23QDnch3kZrlPBjnSU8W6U2Hgw34md2Txq2aShjDWyGpRbusrCPlfrRIO02PrG1McVA8XcPORhY0+9n28DD+Qh0K7vSHHTT8mfNqDhT/GCydNW9Xu0mauCYlP9hbaWGKASX1rRIev6EHExuhgW5Eovlz5b1Zhekvmx/Snf0L8WZvK2Mz1AP7G7gAQf2S5cxWSAPnXl4yYr32t1lvm41fIqKs0STFruYffB/7X/bwuNR+MwtUHBgEvBccfHZSMWZ4tfONp3qR7DsVBy4qygApIIRZ50Gfl8c8nx/OT/YBP0HScTqFsQwthx/plI+VyUiaTPgFgPjG8qc29cinZNnIB2mQdShaeQs4TiwPfLHT1zg1lyErHk6Ya4sIXyMpHVVnCm+3PmtVB8urqOEkTZKcigW0M7z8SWWARe7cHJWrCVKJgOrF6S4txkxzyzrPGNLqKUr1pxVYncxDDjPgTszsHlDGaIxJ5vG5QaOoIzUboV8anyYbajUBhkYZKXWbDWfX+pdZM5lZGgBW5B983oSNCVHxVnATIHPDfzTg1/1vcYEhXiVvjHVmRz3dpJ+28CPDUzIl9FaP0nc/rcFbjdwSqULaymixFSXXuwPfA94zMAemTK6OXOwrA6esHA48DQ+RbcsfOZq5CzJrEsAJuQWrrQRnNM7BToKcFUAhyAVZwnnYQ9+x8rFDUFRli+sfoizx4AjsvD7bJnioB32tFJf9n2qGzPjV1qzi75jEwN3AqeMLaOuZ6LYbbxoZS7ndVRfttDdm/vMauQsyZyE/1Gz14GH8tGcK8sU+Bw4X8WZ4id/pIyxNj0wANg7IyabigLeirN2JA15Ug5eqOQXuLAvUtdVLYUSXmuZR597dSCbgvPTZXZE5+EjCw0GzqWMeaKlfH4Dc6dEdNNU/CUtGZJjfH4ZF7inLhybmJIpjndScab4FuH4nOpGOS3nWwa+nfZ/+K1SG7zrze3JDAM/BbI5seioFK/uy44SXqjSmrPuWAkxxS17fczDIgPXG9lM38AbQbWYiA1hV4LDSNRsVZ9f5h0LD08OyXRWUXEWFZYh6aJqGWrhAKO2GoooEy/E2TTg6CzcngvOJqIvgkhrdt0QnUqVZTO4WXiyWMD9INVH9RaqOEsmxbri/RD7F78oAE/n4V96xVWcJZocdBYtNRZ68OsOIkHtxUrPuGJyXOnJtw24wsJPctIZFaXIQZ9pzYL3QrK3cVAlkYe3XIl6XIxEvyplkYqz5NEEjpXSgBE+v9QCpNheUXGmIJMCXvHg96xi4ISLNLWZeFKwFPECKgeLGJyOBZry3tatFfAg1VjKaCZHomteFswv9eKXtMBsK7V7JyJ1aJVcj0WuirMkHrbWRppMBvj8UjcCr+oVV3GmAHVSy/Mvjzav4zs1epZ4DLimvPFgLvCCgSNzcHWuuuhOd+/Hi65Fa0uYKVk8mXgZPfPsd+XFbuMeR9Kcz1UgIhc7Ks4SRSMYI3WP3/X5pWZY+EVOm01UnClCsfDy70hIuVpWdeFnelWTjYWCldRmKSwDbjZweBae8unkv9SLw4cpvWZrmYdvfyHeNRgwCWwzPGckEnIL5W2GmtZM3kFrVSvRbD9xLfzKVtf0o6g4iyXTkc7NaqkD9s2oKW3ScSlNnC0EmgycnS2ziaAJVmmExsYSmlAcj8QZpUWxLN5GznqtB70A6jNwaCOMyJSxjmalK+5c5E+pgmth1uOophJtCjIBZjOfX+YVAw+0lBCZVlScJYqcbKQvebSBbQnsldHas4Sv6b2mNV0Lrxs4GLgsW0ZDShpSGdjehbss/NyW0D1mJa3pxb1dakTMM3FmYEFvD9IAec72svAn4KAmsd8oiTzMt3CNFbuNN/u4RgVgtt7aySENGxn4CWX67FXwTP0+J3YvioozpZtN4A68yfcPBA7FfxdpJaK0ifj6oJdN/nfAIVl4spwak3EwxMhJfrnbf6rEe7tm05oWFtje37tT/LMBcKuFi5tg0zIEWkceHij6oT3Whzj7TO/uZDAWUsV7YgOfX+otA7/WK67iTOl5E/gTMNOjX7cLMEajZ8nkMrBGZl8u7ka0TLBwWh5eK+d3NsCGKbgWsYPYuCiWjCnt3vai49HaECJn9FEL6soztlykDrRwkgv3ZWDvcl4kC88Xhe/UHsRlp5FuWiUBpMQ24whk3quP2w7N2fI7uxUVZ4kSZ4uL8we9oM7C+RYG6ZVNLIv4YjO3wIfFFMml+TLqGzPQPwO7p4qzNYHB5b4RDyNnbSX8G2u8bQiY31vkzMramfryvso3gLsyML4JhjeWeEjKwocpuBA4i69GPjutirNEkIZ+xajZ1n6+joGHDPxBr7iKM6UX8pK2uB+PNhYDOyDGtEoyWbCCOHsOOL4d7smVcX9lYE1kwPD9Frbquk5YMKUoLq+6NUuJnFn542lDgOn9OTM9rJ8rAxe6cK0L25X6YpOhLSdD048G/rrCddO0ZnLYBjjN59eY7cKVHd7Y3CgqzuKNgXfwZtYmSM3CGWlYRa9sIu+lBcCbBq4ycFwOnry4DIGUEXF/KzABGNrzy5S0uHjVEFBqN5mnDQF1fa+dPdXepYDDDNzaCMfkyyjszsG0YqPA5Uh6umBUnMWeLNQZmFQU937hAr8HnpvqoU2MouIsznyOt15TW6PRs6QyDzgTaMjCW6X+UBMMaBSvvIeA7wH9etcufeNVzVmJaU08TmsumNTLBtZL5GxFtrVw9SLINZbRqJMXe5MMcISFR+t7bvJQYsIiaeYa4/PLzASuz2vUrCao00sQPjnozMg8w1nIyI5qWcnAjzPwaA4+0iucqBO4pUxj4zSMcOE84DhKGxVTauRssevBCd0tMa2Jd+LM7WsqQSc4TmkRsWFFM9FtMzC+Df59WQmdssU09CPFP0qMaYQ1rcxgHerjy7jAzTl4Xq94baCRs4jQKfVBr+NduHkU8P2Mv145So2TgR8ZSWP+DI9n+Lkeuew7pYkuL01oF9PHiKUSI2cr8gPgngFwfNrfTjyltoRZnRXfQb/HND1fgCv1iqs4U8pkqnTZPYiMdfKCeuCCThimV1fpSgMMzUhd2XXAd8r88ZIiZ8Vh3YFEzop4FTlbLOclzxfOTZFasisaYXiTWt4osB7SfOPncPOlwIR+MFcvt4ozpQIs3Iv4VHnF1inxUFIUADLgpPn/9s47TK6zPtv3e2ZVLFsy7jY2GGMb0wmmBMhHgikJxXQIIcGEFttgbBMXSTsrS7alnVnJcgUXigsmNoT20SEQeigfcTDVCSVYxXKRrLZarbbMnPf74x1Zu6OZ3VPec6Y993XttdLu7Dkzpz7n+TVOCVzvshXAkQkWE0lUzHMiJ3WD5Sg5Z56rNXfbWZyz8JE0t9gsNHCWha9YeKac7d7lEphr4TJq/QOzu61wh4WfrlQRgMSZSEbZNQX8nM9lGnhv0TU2FD3OMvd0/lbjKrbemuL8jyRKLnMCJ+1MyEj9yzwXBIyYWZyzONuhyd+9oPYw9vZLIozCEt1HCK/HFQJkyXrgI+WYeahC4kzs/5hzC/5CmwCPBs67UMUfvS7MDg1hLXA96ZtcxnGNUt8UwgitNKybJLDH0+babbMJa9ZzInBVFa7ph4U6SnuHfjjBuiKcLMOZE7j7yV3a4hJnIv1d73+Bb3pcZB/w2vnw/AHluPQcRegbgGdZ1+n/bHLOQTQexFkLWmnMWhBA8rBmPY8C/snAnf3weOWhdT9L3CSAdwCnku3+vrsKV5cUzpQ4E+mxrsLtM0RvvBmFx1h4d6ixTj3FMufGnGnhSxaei7/8JhPjePYhznIvCJgtrGljbodZmAOcbuATYfa9rkSL6XPn4plkm2+4zcJFq11RjpA4E2kpQ2jgP4DfeF703xpd+HuGATg+dEn/a3ChbZ/EESU+wpp5Dz4fYfacM1/O2VReANw8AG/REdyd9MOiEErA0dk+43NDwd/UGSFxJgAGXWjzu/jNPTsAWLVYuS1dTxFOq4Ux30KCgeWexdmutDcaE60Jrc8+ZyPB7H3OsuJEC6uL8GIdyV13XhoDK0z2Pc1+ZuG2VX6jL0LiTNS4E/99aZ7WB+eXlNfStSxx5/SbcAPLswqb5OqcRRFntQuZt7BmNd+wZj3HA+9RkUDX8Urg7WRbnLULuL7sHvCFxJnwTQl+DvzA82LnAO8cgWdpC3cnfU6QZV2Zm6c4s5PRHQBfTsFIMIs4M9mENadyNBJnXUPRNZtdTIwZqwn5dAX+VVtc4kxkewe8mmj9luJwAnDmgC78Xcl8F46rtMv78VAQMNEXoZGt72rNwVnCmjmUv43gd5C7aBEDblzX2biRellyj4EVaxTOlDgTmd/Y7sb/4GMD/IOFF6hsv/u4xAmZrCu08nTOIgmUCrEKB2YiBEYjnJtZO2c7Q39920RreSlwQcb3210WilV4QJtb4kxkzxjw0Sg3i5gsAFZOwmHaxN2HcbmKk9muIvILcxFnQ2ADP+JskuiiKEtxtmNS4qzjKcLTLVyFK8jKigpwh4FvD3kYlyYkzsQslNwN5y78554BPKsAA9rK3Yd181mzDG3k7ZzZiJ/bhzibiPEwlJU4qwLbrlLz0I6mH44ALgVOynhV/2vhypJ6mkmcifxYBZuBL5B+RmGjff93RfgbbeXuwmQvzuK8l1TizMJ4DIXi4zNHdc6ydM0mga06kjuX2hSAdwKvzvg+u9vA8jL8UVtd4kzkf4P7AvCHDBZ9NPCBfjhSW7l7aDPnbFfKFY3HWFnVw2ebsK13zsYlzjr+xnqa02iZV05/bBt8Vltc4ky0gEF4yMJtnm4+9bwU+Pt+DUbvJrbRJjlnYb7OmSV9peqkie6cZSXOJiTOOpd+OMXANcChGa/qexauvFF5ZhJnonVU4Vbgdxksus+43LNTtJW7A+Nu7Jm2YQgjCpNae4tqis8yZqLnXoUeRGmksGbGF84JI3HWkSyDw2stkJ6Q8aruN7AmhPu01SXORAuZA7sMDJGNe3Z4ANcugUdpS3c+Yy5PMVNxVojuGoWky5eM8zmsB3EWKawZPqIdsxFnFh7WkdxZDMCC0IUyX5rxvbUC3HYyfGO1ikYkzkRrGXQn4TdxQ9G9Y+GFBTh3RXYjf0ROXJlDzlKMJ4S0fdfGYxzDuTlnZBvWHLewRUdy57DCHQtn4JrNzsl4dd+2sPYdEmYSZ6I9mHSOyB3473sGMBc4awJeeK6a03YD68nw4h3m5JzFKQgI/IizCRPh/Mr4BNlVVluEjmICTrMwCByU8ao2GLiw7H/uspA4E0lZA9a6iQG/zOjGe6yBxQtdfx7R2azLUpzNiZ5zlkqcWRiz0V/rpSAgjCbOsnLOLMoj6ij64akGbiD7pt4jwPIwm9xjIXEm0lB24zluJbtqvFcYOEdbuuPJ2jmLdO2oCaY0LtCEjd6E1ktYc9RN5oioPTMRZxt1+HYGRfdAewXZFwBUgE8Any230excIXEmpnOngZ9mtXAL5xbh9drMnYvNWJyZ6O8jdVgziP5aHwUBY9dFu/ll6Zxt0BHc/gzAgcAa4GVknwryiwAuL/lvRi4kzoQvaifoMqI/4cflEGBFMfunQZERBbiXbJ2zOC8dSbGesZjrSiPOLOnHTaUWZ1birO3phwNCKAFvIfsiqodDeN8qeFBbXuJMtDkWfg7cmeEqng4s7YeF2tqdh4H7ybCdRl/Ea0eQUpzFnBCQ1jkLgZ2tPrUDhTXbmiLMN3ChgbNyEGajwDLjrvdC4ky0O+PupL2N7C7kBnircfM3Vb3ZYVSdSNmUrf6LpJZS9zmz+TWhtW0gzgjknLUttUkqbwUuBOZlfxrzSQt3lrPpbykkzoRvrgQ7B34CfJXsEkTn46z7U7XFOw6Lq9jMhKgHXAihTVetGcf964aw5kio6QBtyTIIAtdg9kryadj9C+DScsr5tELiTOTMZVAJ4UNk65AcBtxQhONa8RkHoO8SOXdJhcb6DJcfaZ8EEJoUYc0AxoJ4nzmVODOwI+qKMuI+q1mJbcelYCz8dW3G8SE5rPJ+C+eV1FZF4kx0JkPwW+DajG/CzwSKrcg/C+GkKrxyQMdq3J2WqXNGvD5nicVZzMHnqZ2zsPXO2QbU+b2tWAZmwgmzG4CjcljlKFAsw4+19SXORGdzG/C9DJc/B3gn8Maiy7nIU2TsAC4MobwcDtCujqNrsnPO+iKKs2r+szXThPjDIGLOmYkhUCXOOpd+MCE8B7geOCGHVVaBDwOf1daXOBMdziTssFAm22Tm+QbWBPDsPD9byZWP32Pg3ArcWIRHa4/PzmDG4qwaUZgMpcw5q4mzOAUBE2kErY14Dtlp37wq6o1W4qxtMPAs66riT8zpgeq7Bq5UPzMhcdYFXOFyZX5ce9rKsqrniBA+tDSfJ8ipV6x/qV24zgBuHICTtNcjsY1oQ7wT3rcivzCOwKrf9+PV6K8NSeecWdNi58y42YkSZ21AEZ4P3GryEWYAf7Bw8WC2OcRC4kzkSQlGDHyQ7E/sPwtgVREOzfEgvcvAXbXj9dUWPjWQs4PXoU/948DmNngr4yR0tAyM90V/beqCANviVhoGNpYkzlrKUjBFF8q8CXhKTqvdaeC8sqvQFELirJsYdAPRP0a2s9cKwJuAdxez7/Oz93NVgJunmBanWrijCC/uz74JZCczBjzUBteOCZI3xI38d6bzCwIqVm00WsoyCAw8F/gUrhF3HpXiewwsC+C72gNC4qx7uQb4j4zXMRcYAE7P8XN9i33NOQ1utNTNBt78drXaaEjohE0m4izmhSOxc2ZhPOqTRtXDhICgtc7ZFjKc6iBm5jIIQniZccLs8XkJcuATFm5fmS5fUkiciXam5BoWLiP7cNbBwNoBl5eROdZVbX6p7sePA649Fi5Yq2O5mSjK5DgI4gniNM7Z2OqIYb5CeudsbH7EebUZxR03S5y1hn4ojMMrcaHMx+W1Xgs/DmFFqfUtXITEmchhp94FfITsR34cb2HtMjg+68806m6a/+7+OY0jDVyyDZb0wwLt/X1k6ZzFuXYYJ86SugITMT5vWudsx/LW5ns9LHGWP7X2QK8AbslTmAF/AN4zpIHmQuKsN1jlLvC34ERaljcbAzwvhEuLGXfNvsZV0v0K13S3noOB5QYWL3P/FsBqJ1S2ZLHsOKq/NoJpPOEBFllsBSmdMxtxOsCUY983m63EWd7C7ADgnQbuAI7IcdX3G3hvH/xRe0FInPUQJbgXGCK7VgpTj6G3GVh8ZsbH07DreP+fTbTBfGAghDUD+cy96xS2sr/bmCspnLOQeKOMUjWhNbA9zooyEGibA4mzPIXZAuAiYC2wKMdVDwOXVeEHK1WZKyTOeo+qG4p+aw6r6rNw7mHwvixX8kF3IfsKzQcB9wHvsHBFMZ/5d50izrJoaBn52mGTFwRMxmnIWk3fhHZ7i/fVwxUlhefCYlhoXPFUMWdhNgncCNw6lC4ELyTORKeyGiYDWGXgv3JY3YEGLumH05dmeFzNh+8AD8zwkrm4UVOXF+HwXj8GTEbiLIzXhDZpQcCkieGcVdM3od3Rwl1VBbau1tDzzOmHx86B2y28211SciO08JkxuLQkYSYkznp+B2+2cCkZ5R7VcaSBcgDPyGoFy90g7G/M8rICcA5Q7s+xWW47Yt2UAO9hTRNDnKV0zsIY7yl1QUALd9UorXfuup4iPNvAbRZe04L737cKcPFVESuChcSZ6GIud09r3wRuJ5+QyVNxMzCPzfCg/UK0ezXvMHD10t7OQcvEObMxxFk1uXM2EWeU0Zr0BQHbYgjBLMTZNkRmDMDrcT3MXtSCe99vgCVmZtdfCImzXqIME6ErDvh1Tqt8LvDRrEY8WTfiZGOEl/YBbw1geX+PVnH+3rkxI628cKQoCJgkfphvMsVnamUD2lEr5ywrUXbQAFxsXf7tieTftHoTcE4JfqkCACFxJqYxBA8buADXSylrDPAy68KKWYiiCdyg9yjMAc41sKSYb35JW/BZdzN4EM+5TDbGtWNR8rBmJcH7rqT4TK0UR3LOshFmx1lYY+FyWvOAthk4rwQ/0N4QEmeimaXwI6fTckk67jNwhoHz+v3P4KzEEGfgHLR/Boo9OklgYwb7PLL7UHQCMUmezQTxnYZKis/aylYayjnzTD88x8IngLNozYPZMLAi3H+yiRASZ2Ifa6Bq3MXqy+Rjrx8ADARwxoDHAeUlNyD6tzE/w3zgvK1wzoVOrPWaOKu2+D3sJlmIMolzlkicha0VRyNlOWdeGIADivBWA58G/qpF97kx4CN9rmVGRXtFSJyJGRl01ZtXAffltMp5Fq608PrFHo83425kcceeHGygOA9OL/bWsPQNeHbOEmy8JOJsIqE4qyb8TK2q1gzJfhZuT1CEx1pYwb5RTKZF+/OTBpZfrqbCQuJMRKXs8h9Wk5+bsgi4qg9esczTMWdcI9okcyOPxonTP++hXZ5FWDMuIyRzzvIKa06aGDdSz3f8kGgFLqIJ54EZcC7ZrcASWptfegdw8WD201mExJnoNizcauHmHFf5GOBaC8/s93BvC9Pl6JwAfHip+971VDIIa5r4+zCRc2bzc86GY/6dT30W4ir6RAKKsGAhvMfCncBprb2s8jVgWcm1sBFC4kzEowyjBlYCP81xtSda+DjwJA/L2kO6MNRTA7hqab7DjlvCv7sbxS6fywzji5NEzpnJL+dsl2mduxja/NIMuoalUBiAJ1m4ycJNwKNpbbrCXQYuLrk0AiEkzkQydrqn9eXk2xjxKQY+OpBSoBl3Ex5Peey/KoAPZFBN2lb83D3Rr2vx20hUEGBzFGdh68RZ1UicxWIZzDfOLfu8gTPa4F72WwPvG4R7tHeExJlIxfVg57hZlavJd6TI8yysLbpQZ+IbGunn080Bzjfw2h7Y3X9q5YXDJHPOJoJkOWeJwppBjPfnuZVGGEqcRaYfTg5dwv0VwBPb4dyycPYg3KW9IyTOhBcug+ooXI8LN4Y5HnevBEpJh5NX/d0cDwSu7YdTu3xXr/O5sDD+6xM5Z2GOzpltXbuR8eH4lcc9RxEOLsLfGfg33GzMhW3wtu6zcEFfvL6LQkicidm5BioBLMPN4MyTtwGlATgswYFbwDlfPjjKwNoBOKaLd/O9rbxwBM45i+uCxc45MynEGa0La266Qb2wmrIcgiL8JXBD7SHyhDa5d20BlpbhiytbXw0tJM5El7LVPZzym5zX+w4LK/vjDyefg2ty6wMD/IWF9/Z36Ygn41mcxS0IsMmb0NqY60ka1owlzjxnna/T5acxS+Coiptq8gng74G5bfLWdho4rwKf1F4SEmciM1aBLcHdwAD5NsScA7wngIsGYoQpAlhAfEE3E3OB84H/06UNajd4vnDEFU25tNKwyZ2zYds690PibApF17NswQCcXoBv40avPbaN3uIwsDiEz6+RYyYkzkQelNwcuEtxYajcBJqFfgvnFSO6YaF73SGe38ci46YZHNtt+9W6vnAPe1xeW7bSSBPWLLToRmtgva48jhXuYe0FFm6w8HngKbTXuLURoGThtrKbYCGExJnIhwn4GK6CcyLnY3EZsHhphNYWxjlnh2TwPp5m4LJlXTZ/s+Yo3e9XU0RnbsJqzRz7nA1XY4RDrd99I3EGDMDTJuE64FPAP+Ivp9QXkxZWTcK1EmZC4kzkzlrnWHwIuJ18E5XnAxcGcHZxdoG2kISVnhFEx+tCeGOXneiTeOxCH9c225m8z1lb5pwl3AzN6Flx1g+FIhxThDXWddf/J+C4Nnyr404/8sEr8m07JCTOhNjHIOwwrangXAissvC2gSZPzv3uuD2e7JL3DwXev8yto1uo4LHZcNyCgGucYIp7U5sM4oc1J0nmnI2UWxPWnCTZjNiOZpmrwHyMgbNwbSguromyQhu+3VHgCgs3lN2/hZA4Ey0VaA9ZOAeXlJsnBxm42sLZlzS+WPcBT8/4PfyFhfcMdEl4M3TizKdzliSyF3eEVJKCgGoCcVYl/pBqX67ZgzZ9M+WOYgCOs/B+4DM4h/5xbfx2q8A1IQyVnfsrhMSZaD1lV0l2Pvl3v14IXFaFcy7e30Hrs9mLM2PhvBD+okvE2SR+x3QlESc7Y75+MowpAmvh27hhzXFijgLzWM77gOmBHmcXQ7AUjhuAQQv/ZqEM/DntXRkd4uYPl4ckzITEmWg3SvBb4ALgv/GbCz0bhwAr++CMJVP6GwWw0MDzclj/IgNXLnVhzo5mtbvRbMZTF3yTkzhblMwFi/s3Y6Sb05pKnNHFztkAzO+Hk/pgeQA/s7AUeDKuoKedGQPWWriqlG/luhASZyKWQPsh8AE8NzONKJCuCeDdi2sOmoXT8NvjbCaeFsAFXVK9OVz7So1NJtLjrnuiP1lBQFxxNk7MfDiPTygP0IXO2RKYX4QXWbjcwHcMrMBN4OiEe84E8EELpTf6ij4AACAASURBVHL8ULwQEmcid4H2TVwC78acV73QQKkPFl/qigDeluO65wLvqMLzu2AX7vQlzkjmnMVdd2zREiYLa8Z2znzF4iw8EHaROOuHhUX4xwJ8DvgXXKL/YzroI1SBy4HLy/GdXiG80adNIGLe/L5r4P0GbgQeneOqHwUMTLiBx0/N+WMfa+DCIvy2BNs6ePcN4+mGY7MPa4ZJxJlJFtYcNwmcM+NBoxl4wHawOOsHY9wD01HA3wHvqomxeXTepI09wCBwTUk5ZqLFyDkTsRiC6mPhy8bN4dyS8+oPAJ5La/JVXotrjNnJ+HTOkgiROOuumgS5WEGyVhrjYWtyzirA1qEOHQHUD8cY+BtgLfAzXJL/yTix1mnCbDewxsDVEmaiHZBzJmLzXrAXwSfmOgPhQ8SYidnh9PfDL8vwnU588xaGTQtDNaFbf+SXJ3GUAqhUE4Q1TWvCmt5yAPPiDWCeBM+18Grg/wB/Bhzc4ef1GLCiCjesjt9SRQiJM9E+rIWwCJ+yLqxxHbCoBz724QYuK8L/lPyOQsqFMuwuwo5WrT9ww8WjUiWBczYOlb5k1Zqt6Pre9uJsGZjQzb59FPAqA++2cErtfJ/bBef0MHAR8InV6vwv2giFNUViSjBRgE8al0DbC1VNBtfC49yl2U0nyJqH8JDjFCQwj2wOOWeTyas1WxHWHLZtKs6WwIEDcJKF04EbDPzWwC24vn+Hd4kw2wIUq3BbScJMtBlyzkQqVsFEEa6vHUuXEWFoeRecM2ca+BXwyU578xY21Zqe9qVcTlKXIirVJGHN3VA5IFkT2iQFAanFGW0kzs6G4FB4Gq4y+XkWngU8ifYcqZSWzcCFD8GdN3dozp+QOBNiRkowthSuC9zNdKgHjqtDDVw1AA8Ndlj+WQD318YF5e782Zg5Z0kKAj4CtpggrPm7FjlnrRJnRTcBwxSgYOEk4A0WXombb3k47d8kNg33AWdb+IaEmZA4E13NEOwpwk243JQLcZWV3czRFq7vhzeV3QSFjiCE+02Lwpoh7IxhwVRJ/j7j/J0F9nwu38kXe9lZzrH7/BIo9MGi0CXwnwycFrpqy6fU7gWFLj9nLfBH4PwC/NtKCTMhcSZ6gZJLOF+Nc2U+0APH1ykGrizCe0ruabztmeKcpRV5sTEuLzFqRDAk+fuciLmeVuRLVnGhtUwpugbOJ1l4AnCyhWcaeDbwWEPP8UsLF5Xh27paC4kz0WsCbWQAVlp381nS5R/XAC8FrrwE/mllB7RFmAP3T/hxzpJsrAlcblcUVzWNcxYnRNkqceZ7ED0Ay5wz9nQLpxo4FTjRwtG4r4N6+NL0QwvnleEXukoLiTPRkwzCcNE1pJwHvL/Lj7MC8MYQ7GI4c02bC7RLYbQIW0k53SFMENY0zs3aFVGctbVzVpsOkMZ8qkQVZ8shmIQ+A30WCsadT30hHBDACQaeYl2/sWeGcAIwv/aaOagivwp838D7gN/r6iwkzkRPU4Kd/TBo4BDcLMxuzmcpWHhDH+xaCkuG2n/E0zpcVV6uWJfkvws4MspN1eTnnLVCUDcUZx8AcyAca904pIOBg6twhHFi+qgpX48J4FggsLrczHDI8VUL55fcMS+ExJkQZXi4CEtrN5nXdfnHnQOcEcBYEZaUYLSN3+u9aRdgkv3NXucskmhKOnPSwISNnuBfta0Ja1ZsA3G2APprVZPH4IprDrZTHmyMLitxhNnNASxflUH4WIisURNakSkleLDqBqX/rAc+7jxcD7Q1F7Zxtar14CIkHPodR5xVk4oz68KaUdnr5uXNZL04u9wdP2/FNXp9PHAo3V9BmQXjuMrxpRJmQuJMiCYc4EYdXYDrTt/tzLVw1jz44FI4oh3foGldiMcSvXVENUieczZOdOesVQUBe4Zc7t8jjMFj6e2kfR+MATcX4OJS3fYVQuJMiClcCrbiqqR6pYS9D3h7ANcuc1Vy7UbqsGbCBlGxwpph8pyzWM5Zi8KaGxr87Gg6dyxYO7AHuMLARSthtzaHkDgTYvYDbS7d35h2KnOAN1fh9iUuf6iduA8Pvc4yFmdpnLO91ZqR1mNaUxCwvv4HxiX6z9PVIhG7gMsLsHrQiTQhJM6EmIkL3XH2IuAlPfbR+wy8pACfHYCnLG6f820ceDDlMtK00ohCYufMxqzWDFvgnNkG4sw6ES/nLD47LAzNh7VyzITEmRARmQsvNG7m5qIePcdeYOHOPnh5O7wh66KSG9IsI0y23ljOGQmdsyCecxYWWiDOggbiDDlnSdhmYPlJUF7uobmyEBJnoicowssNfBg3PqaXeTrw0SIMXN7iG3DghM/GFqzXmugFAWGQ8GYbxsw5292CsGZYV5RRdHmKh+maHIsdwICFm97dmtmoQmSG+pyJTOh3XcpfA1yJa5YpXCPRZWNwahEuKcDvV7bgaT907SNSzQJNMvjcgrXRhVC1mrzPWZxqzd3XJDACjVtB0rZjNqxzzgwssK51hojGTuOaXH9slRwz0YXoKU1kIcyONq51xkeB41DvzKnMB94AfDWE9wy0oFjAODGSyjmzyf4mTiuNsC9dQUBUtrfgGNht4OG6ny1A4iwqw8CaTXClhJnoVuScCW8sA2NdflUR+BvUQHMmHmfhWuCNRbipAF9amVMFZdVVQm5IqZgTFQTEaFuR2DmzMGGi68dWiLNNtdDyPiUKC2qjzsQswha4tAofuk2hTNHFyDkTqVkCwQAssrDYwudwie8SZrMzF1fBemsInyrCs4owt5ix07ja3dS2knM7jcGYztmCdAUBUQVjInGWIqSJgY2mLpRqnHMmcTYz48ANBj68ujWtYISQOBOdwTJ4VAFebuFrFsq4ijMdV7Hu1Sy0LtT5feA6Ay8owoEZr3Q3rRnQPkmda9SE6j3pWmlEclXCFjhn1uX71ee5Kaw562bjCxZWDbb33FohvKCwZhuw2LlMB62BnR0kyg6uwstDeBPw1/RmmwzfHAicZeH1wFf64eMW/mMocUP+GRmtibOjWiDOxphdfFY/mTBsVQtrRn06TSTOUhYE3BfuL1APxA06F435WgAXrGpNw2AhJM56dCfMAy4ccCGubwNfqcKvDEwGEA62OLfiEjBV54YFwNOA14XwCgMn6YaSCUcC7zTwSuB7/fBBAz8zUPV1LBjYbVPMHjTJhUlUcZY4bBXAuI24naxrx5BEAE75FptNU8OayyAI8xfJncR/AhetcjN6hZA4E/lQgtEi3GLhOcBSYGkA/2vh68D3i/B7YMTCngDGKjCedc5FrRXGIguLQldx+RLgtcApteNGoctsMbiq17fgnLTvWbi+CHdZ2FyOFhpsSugqBlsR1qzUxNls2mc8xToiN6E1CcVZSudsUzhFnFUhMGo304yHgJUl+B9tCiFxJloh0Nb1w5nG9QV7M/BEA0+08M84K/9PBh6w8EABHiy6cMwwLsF6l4HRWq7NWE3EjeOq4yYCN6KmGjhBZabcAecA8ywcYGGegYNxjTAPA04Gnmzgydb15xKtE2nzcNWvLwV+bOCLRfgm8JtS8tDfbpPCObPpnLMosw8nkr63EMZN9M+Rd87ZOLBtaPp+C5A4aybkbyzAV7UphMSZaBll2DgA51pn378PJ57A5XP9We2r/kY3jgvjTNQuZhUDE9Y5KxaohO67Dfe/oRZqx8Ac474fgAs3LUDOWDtSAF4IPB84C7i7CJ+x8NVyzGHPQzBe3L/XVh7sDWvOoplyc84SuYcpYsvbTF1Cu3Hn2nE6vPfjiwauXplNzqUQEmciOoPw0ABcYp3QOhNYOMPL59S+DtKW67nz9mTgRODVBtYV4Q4Ln8c5qyMRm3NuqQmZuXHfQArlnrk4C9zDSVR25Lzvttn9qw0LyDmrF82/C+HikgoARI8id6Q9Bdqug2CphctREqyY+fw9AHgSsMrA3QY+HcIHivDi/lncGOPyecZyfs9Rcs4wKcKaxHDOWtBKY7uVczYbI9aNZtqgTSF6+QlctCFFqCyHqypwD1ACnqGtImZhHvCy2tcWA38YgHss/NDCN8vwYJ0w2WwSOlQp4kyRnDObwjkzLswfhWqQ0JlJURCwDddjbipzgKN1+D5yaH3dwpfSFr0I0elP3qJNudwNqP6Ggb8HfoC6YovoHIEbpfUu4HoDd/XDtf2u2GMvm0mX25VE1EQRZ5gU72syunM2YpM3uoVkqWfbCnXOWehap8zVIQs4N7dU7qCej0JInPUgg67P2T1z4DXAjbRmFqDo7HP8IOBYAy8xU/pp1cKaiUSQSZgTbyK20kjjnM2LHhLdSfLPMeVbPHG2qu7zB/AYHaYAVA2sLcEvtCmELtyiI7gMdlbgYuBcXN8zIeKyoPblFJBzzhLlnKWoVsy8lUYl+vimnTbfBs+TxhVh1G9LFQM4vhXCR7UZhJA46yjWwEQInzLORfs0KjEX8cXZI535y04oPZxEayVtcjaRQ7Xm3BjOmcn3HBqrCeJ65JzBdgNrA9e3UQiJM22CzmLIjfD5HfBO4HxcRZPVlhFRxJmZ4pzVWJ9kQUkdp7GI1ZppxNmlTnBFyc/ckfO5M9FInBlVaoa4KuOfDupaJoTEWSdTgtESfAh4G66/lYoFxKzizNaJMwvr8hQo17l1zRbWtKRrpUFEAThM8gkLJPjb8SZhzV4XZxstfLi8fxWrEBJnomNF2g+t6xb/TjR/TsxMgTpxFjjnLG+3Yg+zt0lIVUUasU/azpw/+zgKa9ZTtfCxMtyt01MIibOuogxbLXzSwqsM3En+4RrRIRg4aMWU8z5sjTgbnUWcpXbOIlZ7pq3WjC3O6p2zi1yPs0N7+JD8dQDX6cwUYjpqQts9Ai0E/gT8wwC8xsJ7gb/CdZAXYq9oWTThHLSw9v91pg3FmU3ffy1KWHMnCQsCEm6w4cG6hPd5cJTt3evwGLDCwi6dmUJMR85ZFzIIXzJwBk6g/VJbREwVZ3bKeW/gARK000gp6GYTZwTpw5qRnLMcW2lYYGODHx7Zww/JX7Tw/ZJcfiEkznpIoD0cwL8ALwf+GRe+qmjL9DYGFhWmn/eTFjbFXU6YXpzNdCzaMKU4sxHCohZ2pPwccf7W2saVsUf1qDh7ALhFkwCEkDjrOVZBtQQPluCaAP7SuOrOP6KZdb3MotCFNfdeAGyQsJ1GSnFWnUVEps05izIiKnG1ZgLn0NJgkHfNOSv02DEYAt8CvqPTUQiJs14XahsGnYP2txZWAn/QVulJFpop5711js66NhNn1qYUZyZaqHb36vxaaVjTIKxpejOsucXC6pKcfCEkzoSjBHdbKBv4a2Ax7sYsJ613WMT0nDNLGzpnhfQFAbOJuzHy7Q3YLKx5RA+Ks2tH4L91KgohcSamMAQTg06UXRnCc3DzOu9C+R+9wEI7JYwWNhcNmV047Ox9znxUa87296MmfaPbOIRzGoQ1gcPorbDmL4FbPqgiACEkzkRjShAOwcMluNHAy4BzgNvJ30kR+bFoaliznNA5S1OtaSI4Z+Qgzmy+4mznnrqHnze7dmkLST6qtNMYBa6xbp6rEGIG1OdMADDoGtfeMQBfDOEEA6cB7wKeSu8lLHe1OKt/KDOwHRfmmx9DYKW9Sc9YrUn6as3xWd7jHvINa26YUydoT6gbRN/lWNw0ky+XlUYhxKzIORP1Im2kDL+2cH0ALwTeAHwOV/o+qi3UFeKsXmyPAQ/FWUiY4g0UojlnWRcEjKYRZ3H7oxnYUO829jlx1itNoncA15dhq05BIWZHzploSO3pdhfwJeBLy+D4EE4HXgw8GThJx09HclB9R/qay7QZOD6G2Egc1qy4fK8Zc84q2RcE+Mg5szFeuN+YLAMH2t5xzr56D3xFp58Q0ZBzJiKxCtaXnJt2BvC3wDuA20jQwFS0/KQ/qO7/zQZyZyX89zB7G4Ws+5ztsSmcswRh3Y314sw612xBDxxymyxc/gUVAQgRGTkfIq5IGwV+vRR+W4Av4BKan27hlbivY4C5uIHORlus/QhdaHPq/8dNzLCmh7vsnpkWvyulcxbA+CzvcU/O1ZrrGmy2BT0iztYauFdnnhASZyJjhlza0e7a14PAN5fBkhCeDfwl8Oe4MNlR9GYvp7bFwMF1F4Gxao7OWe09DNfythoJ+OoNKRuUhhEKAsJ0OWexnjwMbBrcX5xZut9N+pGBzw+q4awQEmeiNaxybsePal/0w2MNnAycAJwCPAmXr3aCtlbrsHXO2UqYLOYszqzLZ2xG2nyzKIPP8+xzNmLdqKj6bXCvcTmdL6udH3O67FDbBdw82Li/mxBC4ky0grK7KG8AWAbzQpfrdJCFRwVOpD3DwjNw7ToOx+VAmrrvwjOmTpzV2IoLNUaqHgxSOj4Whk3z3415+Ixjs7zB0fnpc86iboMtjQRnGbYPwKUWrrJwLHCugdfTHaFOC/y/CnxKZ5wQEmeiTam5auM1EbB+AH4F/CtgAgiqcEgBHm/hRAsnGvf9BOCQmmCYh+vDtff7HG3VxDQSZ9twIepcWjtMGTpuGvwutXMWJay5PL9Q2+Zmn2nQbYdh4L73wl2HwDfdjzmuw4+xYQMr1sycWyiEkDgT7cTg9HybKi6sthn46dTXLYGDAjjaOGdt79dhU74OAQ6d8nUwDRqtilnF2daaODs8r5v3DL8b87D88Zm1G7vTLDxmztnmMILgvNGdB7cXndN2E/DYDj7GPhbWnctCCIkz0SWshhHgj7WvaSyFeQXn9BxQa0sw3zpXbb6BR1k40sDRwBEWjjJwJK5A4ShmnmnY1VWmtrlzFrnJcJg+kX2YJssw2eecVXDHVVp9FpUtcT7TJHxrDnwQWIVzijuN3wAfLqfrVSyExJkQncjQvlDpjvrfDYCpgilAYPfPYzPGCbPDbO0rgEMtHG7hMFP7sk7AHUpNANbEnGH68hr9e6prV+/gzfR/M+Wr2etn0CORRKUxdX3Oan+81cZwkzyUGO6aYdlexNkM77FKSucsZs7Z5jif6Qqo9MPXDLwHVyjQSewBbqzCn3SFEkLiTIhpTAmbzvT0PkyM/ktXQLDV9XCbZ2Cuhfl97vtcnGs3x8C8mosX1Na/oE40Tf2/sXCA2ff/oLacvf8vBM45mVV0Wfe6qOfzbxoope0HxRAsHqzF4RnEjY+CgJnEmQ/nLA5byjGLDwrw+9C1qOkkcWaBHwOfXq35mUJInAmRBxc7oTeGn5yotuI6qNbaaYREcOtMSvOs1uesGV4KAphZnOWVczaGCxnHYhVUiq4xcKT90SbsBgZL8LCuFkKkQ0nTQoi9bCSnPKFw5j5nYx6Wn3XOWRzBsi3JH1r3HjupSe1NFn6g00gIiTMhRAeKswB2NhMeNvuCgKrNL+ds1CYUZyZ6HmE78PMQriwrnCmExJkQwh/WibNIN9cwfVhz1wy/85JzNsOvK0FKcRaD0SChOMMVbnSCONsGlPpynjIhRDejnDMhxF5Bk5tzZmYoCLDZ9zmrhinDmhZsRNU0CmyPu/xznSg7vAPEWQX4fAhfK6l1hhDekHMmhIgtztJeOPY45yyzPme1z9Hss1SCHHPOjGvwG4uFro3Lwg44bP4rhBVDmgQghMSZEMI/Iy4sNZrHuua68GmzdflwzizN21dUbD5hTQtsX5VgwLqFI2jQj67N+IOFc4bgfp09QkicCSEy4FonmDbktDqLKwpo9ItxT8tvJoqq8/MpCAiBTQkvzEfS3s7ZNguLq3C3zhwhJM6EENlybx4rqZUhDjf5XdbibGJ5zKawjRYegRC4L+EqHoebTtGO7AJWA19dozwzITJBBQFCiKmsi6g6UlVr2n03+Ua/8xXWnGjy8x05bcuqTSDOlkCfhZNwkybajUng+gpcsyalwBVCNEfOmRDiEUxEcRakF2fWNglrenLO9gqJRuQlzkJckUUsCi6c+eQ2PUSuKcCqNQny6IQQ0ZFzJoSYSqSwpk3Z4qH2x7ua/K7tnbOoOWdBspyzRcAT2+y4qAA3WxhamV+POCF6FjlnQoipomN9xNdl5pyFHpwzO3O1pg/nLMrnr/QlEGcWjgGe0GbC7ONVKJaTN9QVQkicCSGSUHXCZdiHMplF3M1UEOBjQkAeztlsbL0sZj+1IgQGXkL7RDVC4Drg4tUSZkJInAkh8sc4l2TWvlXWg3NG84KATKs1TYKO/QlZl2D7F4BXtcnhMAGsMbCylN82E0JInAkh6pgkv6aiO5v83Mfgc2uaiDPbfL2xlB+zC9T1Cd73ccAz2+A42AlcUYBVg/kVUAghaqggQAgxVXRUTA7irBYWHG7yxOilIMA2zjmz1lNYM4J1uC7uckPnms1p8WHwILBqD3zkarXLEELiTAjRWqKGNT1Y7raZOPPR5yycwTkL8nOC1if4m9fR2ojGn4AP9MHXr3bHghBC4kwI0UpCmAyiOWepcs6qToEMN0ms9xLWpHlBgI+wpp1tGwQxxdkAnGrhFFK2KUm+6/mVhfcX4MeXp6/5EEKkQDlnQohHGHK66aGs17N6BucszLbPGeSU3G5jNqC18CLg8Bbs9nHg08CbyvCjVRJmQrQcOWdCiHp24iopF86kfDww2uiHxkP3eevCmg1zzioenLMIbLVNPl8j+uEQ4C+A+Tnv62EDaw18aJUqMoWQOBNCtCcWdhonYDIVZwFUavllUwVJaDwM054hrDkexBBNMyx/tm3wgImRs2XgeOA5Oe7mELjfwvkBfHmVEv+FkDgTQrQvteawszWiTa3PrAuhjtaJswlPy27onBnYYfIJ291vI4qzAShYeCHwmJx28QTw78DSMvxaR7wQEmdCiDan5pzNKM48JatWcXMaD53ys3Ef4qyZc2Y9VWpG6HP2gI3unB0AvCun3bsVuAK4pQRbdLQLIXEmhOgAasIsj7ysCvuHGL04Z8b1M2sU1txBPs7ZAyZiqDCE0ww8LeP3Exq4O4TzArhr0ENenxBC4kwIkRO7YfjAfHqBVRuJM+tBPM3Q58zL54qQc/ZglJyzCyAI4GzrxjZlJhSBO6uwekhumRAdgVppCCGmca1znbbUxFNDrJ+k/YbizHjKOWsyIcCX6JztPW4enGH77WW+6232vIx2ZQX4IvCu4+FiCTMhOgc5Z0KIRk9tm2o5U4Umwio1IVRNRs5ZoUlYszZX04f4m4kRIoSFz3eb8e3AIs+7zwL3GVhl4f8qt0wIiTMhRBdg3ZSASWBeo99XPQicWiuNzJwzGjhngadeXmbfOhoRpdqVA+GpwEs8XodDYBvwWQNl4L6SB4dTCCFxJoRoDx5g5pwpn600puKtWtM2r9bM2jnbaWdxzpbCHAsvNfAkT/trO/A14KMV+MEadfkXQuJMCNF13D+LOEvtyARQDTNyzmpkmXM2E7uC2VuRPArXPiNthHg38AXgVgM/G3STHYQQEmdCiG6jCpsKGXeNtxlWa06CLTih10iceXHOZlBVw+EsIsnCa40LayYVnbssfN3C1Qb+uwB7NBNTCIkzIUQXsxp2FJ3AOKbR742fdhcV45yfaeLMh3ia72ZoTjR43zt9FDMEzJxzVpnBOVsKBxv4QILV7gHuMfBtCx8vwz06UoWQOBNC9BYbgCc0+Z2XnDOTURParWAXwWQj5yxjhykEHr5ihpBwAP8AnBxjmduBrwNftfCTEtyrQ1OI7kZ9zoQQzcTTvTM81aUWOENOyOxXEOAjrHl949ma1dqgdU+bpyEV4MFmfzQAh+PE2ZxZBN448EsDFxl4roH3TsAnyxJmQvQEcs6EEA0xMwiBij/3aawmRvY+KPosCKhvAjtC9HmXMxLSNOesgium2I/LwEzAy3Gjmhr9+S5gE/Bz4PYQvl+A8UHlkgkhcSaEEDXWNftF4E8w7GF6PzUvYc0pQqnKvka6u4nQtT8KM+ScNXXOxuFg4HRg4ZQfTwK/An5i4KfATwbhTzr0hJA4E0KI/TBwbzOVZP06Z9PEmfXrnIV14qyS8WabNK5HXCOOsfCSWp7dz4FvGPhBCBsCeGjQX8hVCCFxJoToRkJYb6aHHB+h4ElAWRirGxDuO6xZYV9+14jJJ6z5QJNf3N8Hr7LwBwOjBioBhApbCiEkzoQQkTAuR+th4MgG4iT0tI69ztlexo1/52wvIzZ752xivElYc42bGvAzHVlCiNlQtaYQohkhsLHZLzyxp06cTXhc/F7nbC/ecs5qrlkjEfnQ2oyb9wohJM6EED2KhdA2EWcF/zlnj4iz0K9zVq0TZxV/m6fhD9fryBFCSJwJITLBuCaxDcWZ51Ya03LOPOazNRJn1Sy3WSBxJoSQOBNCZEjTsCb+W2nsFYTecs7M/uJsJPTknM1QxSpxJoSQOBNCZEM1h7CmrQtrWpiYzC6sOVLIuCDAqoO/EELiTAiRFashNK7y0DZQPb7crf1yzgr+m9A+Is58OWfNCgIKcs6EEBJnQogssS5Pa3sDcZJVWHNiboYFAWVPlaBN3uAkTUY3CSGExJkQwtcFYjewtf7nvioqJ+sKAiyMr8hGnFVwnyVLHgzdwHIhhJA4E0JkRkNx5osrnJiZnK7X/GCm9zmbxLl0vpZt2V9E3ofXFnBCiF5FEwKEEE2xbg7ktgbixKcI2VMTOvVNY9MydULABNk7Z/eRcasOIURvIOdMCDGTOGvonFm/8yB31cRZBY/OWV2fswk8Ome2uTiTcyaEkDgTQmRH2Tln+4mzQkbizOfsy7qw5kTNBcwSiTMhhMSZECJ7LGyhztGq+hVnwzVxNmk8irM652zSZC/ONhqJMyGExJkQImsMPERdFaLnC8cjzlmG4mzCegxr7lvFI4TAlkGJMyGExJkQImssbK4TZ9ZjnzPM9LCm72rNR8RZ4NE5a/D5twEjOlqEEBJnQog8LhIP4fqRZSX+9oqzSTIMa1q/4qy2imnibFRHixBC4kwIkTl2/7Cm9byKLAsCMnHO2L/P2TabfasOIYTEmRBCQF/G3BIbfAAAA6VJREFU4sxMb6XhU5xNna05EXoUZw02wLZAzpkQQuJMCJEHl7uQ5rasxJmdXhAw6XHR05yzkt98tvrtsLUq50wIIXEmhMiR9VPESFbizGvO2RRxZnHtOny+5/3Cmjv8V4MKISTOhBCiKetyEGdew5rBdHG2I4Ntsnc7VIAtN/nPxRNCSJwJIURTMnPOCvua0Hod3zS+b0JA6Fuc1W2AMVxenhBCSJwJIXJjHRk5Q5WMmtAunO6c7fT5ns30sOa4cb3ghBBC4kwI0RJx5lWkbXFVjpO4XmTexNkl08XZ9gy3zXgocSaEkDgTQuTJJGwCJrIQZ7eAtS606btak5o4C22D4e1psHLOhBASZ0KIVjLHCbP7sxBnAMaFHSuh32rNmq4kBB7O4ML5iDgrSJwJISTOhBA5Y3Ghzb3/9i3QhoHJgn/nbBKoGs/OWVgnLFdqrqYQQuJMCJEnxg07nyrOfLMTmDhoX+jUpzjz7pxNFagWNugIEUL4pE+bQAgxG6ETIutNRuLMwg4DfUunm1I+mACq1rM4M9NF2nodIUIIn8g5E0JEEU9Tw5reMa4PWRbjjyaA0QWel233fZM4E0JInAkh8mfIhTXXT9cmXslKnE0Cmy/xP6x9rzCzRmFNIYRnFNYUQkRlGzBu/YceMa4PWSEjcZZl9345Z0II78g5E0JEZQx4yID1feGwsD3MzjnzLs6mOGfVADbq0BBCSJwJIVrBeE3ohL7jmjXnrGPE2RQeHlcbDSGExJkQooXibDPZ5JxtN9kVBHhvEDulWnNDX0YzR4UQvYtyzoQQUQXJmK05Z74FWphRQYCFyWDfZANvVF0hAMC9SJwJITwj50wIEVWcZeacmYycM+PmXv4xg+Xu5U9W4kwIIXEmhGgFq2ptKfA//5KqE2dZ5IZtsBlUU04RZHLOhBDeUVhTCBGHrWSQAF+AUQv/43u54/A9/I+EekSjWfhTVeJMCCFxJoRoFQa22QzEWcnlse30vdwrXSjWvypzOWcjBraskTgTQkicCSFahYWtFnZpSwBwv3G934QQQuJMCNEytgYSZ3t5wEqcCSEyQAUBQojIhM45G0GhPItr0SFxJoSQOBNCtFScbQeGe12ZFVzOmcKaQgiJMyFEa1njRjdtymL4eYeJ1DCEjTajggMhRG+jnDMhRNwnunuBai9vg3muPcdDl2bQ800IISTOhBCxCJ0462nn7FL3+UMdDUIIiTMhRMupjUOqaksIIUQ2/H/tJZQAgDYzMAAAAABJRU5ErkJggg==;" vertex="1" parent="1">
          <mxGeometry x="1505" y="10" width="195" height="195" as="geometry" />
        </mxCell>
        <mxCell id="826YfGAfoeWJMJrcTG79-3" value="&lt;h1&gt;&lt;font style=&quot;font-size: 82px;&quot;&gt;8517&lt;/font&gt;&lt;/h1&gt;" style="text;html=1;align=center;verticalAlign=middle;whiteSpace=wrap;rounded=0;fontSize=38;fontFamily=Verdana;" vertex="1" parent="1">
          <mxGeometry x="580" y="73.75" width="490" height="67.5" as="geometry" />
        </mxCell>
      </root>
    </mxGraphModel>
  </diagram>
</mxfile>
